<?xml version="1.0" encoding="utf-8"?>
<!-- Generator: Adobe Illustrator 16.0.0, SVG Export Plug-In . SVG Version: 6.00 Build 0)  -->
<!DOCTYPE svg PUBLIC "-//W3C//DTD SVG 1.1//EN" "http://www.w3.org/Graphics/SVG/1.1/DTD/svg11.dtd">
<svg version="1.1" id="Capa_1" xmlns="http://www.w3.org/2000/svg" xmlns:xlink="http://www.w3.org/1999/xlink" x="0px" y="0px"
	 width="450.689px" height="450.691px" viewBox="0 0 450.689 450.691" enable-background="new 0 0 450.689 450.691"
	 xml:space="preserve">
<g>
	<path d="M279.287,206.497c-19.361,0-21.49,20.882-21.49,33.839c0,21.184,13.263,26.825,21.794,26.825
		c14.635,0,21.494-13.265,21.494-30.787C301.085,226.162,300.019,206.497,279.287,206.497z"/>
	<path d="M225.346,36.834c-104.657,0-189.499,84.842-189.499,189.499c0,104.658,84.842,189.499,189.499,189.499
		c104.656,0,189.498-84.841,189.498-189.499C414.844,121.676,330.002,36.834,225.346,36.834z M279.896,278.743
		c-13.564,0-19.206-7.772-21.949-12.19h-0.303v9.908h-12.656V167.016L192.86,279.8H58.845l52.128-112.786h134.016v-0.002h13.415
		v39.786h0.307c5.793-8.379,13.717-12.192,23.019-12.345c21.187,0,33.227,17.381,33.228,39.787
		C314.956,253.29,307.03,278.743,279.896,278.743z M359.222,278.746c-22.404,0-35.666-16.917-35.666-39.938
		c0-24.692,11.887-44.357,38.254-44.357c20.885,0,28.81,15.247,29.877,29.115h-12.954c-1.673-10.669-7.624-17.07-18.904-17.07
		c-16.607,0-21.942,15.849-21.944,30.027c0,13.719,3.357,30.639,21.799,30.639c8.992,0,16.761-6.708,19.05-18.9h12.954
		C390.32,260.912,382.543,278.746,359.222,278.746z"/>
	<polygon points="244.988,167.014 244.988,167.016 244.989,167.014 	"/>
</g>
</svg>
