<?xml version="1.0" encoding="utf-8"?>
<!-- Generator: Adobe Illustrator 16.0.0, SVG Export Plug-In . SVG Version: 6.00 Build 0)  -->
<!DOCTYPE svg PUBLIC "-//W3C//DTD SVG 1.1//EN" "http://www.w3.org/Graphics/SVG/1.1/DTD/svg11.dtd">
<svg version="1.1" id="Layer_1" xmlns:serif="http://www.serif.com/"
	 xmlns="http://www.w3.org/2000/svg" xmlns:xlink="http://www.w3.org/1999/xlink" x="0px" y="0px" width="64px" height="64px"
	 viewBox="0 0 64 64" enable-background="new 0 0 64 64" xml:space="preserve">
<path d="M32-0.001c-17.663,0-32,14.34-32,32c0,17.663,14.337,32,32,32c17.661,0,32-14.338,32-32C64,14.339,49.661-0.001,32-0.001z
	 M32,58C17.651,58,6,46.349,6,32C6,17.65,17.651,6.001,32,6.001c14.349,0,26,11.649,26,25.999C58.001,46.349,46.35,58,32,58z"/>
<g>
	<path d="M49.055,45.215c-0.008,0.037-0.018,0.074-0.031,0.113c-0.011,0.03-0.024,0.062-0.039,0.093
		c-0.019,0.041-0.039,0.083-0.064,0.126c-0.019,0.032-0.04,0.064-0.062,0.097c-0.029,0.044-0.061,0.089-0.097,0.134
		c-0.026,0.033-0.056,0.067-0.086,0.102c-0.04,0.046-0.082,0.092-0.128,0.139c-0.035,0.034-0.072,0.068-0.11,0.104
		c-0.05,0.047-0.102,0.094-0.158,0.14c-0.042,0.036-0.089,0.071-0.136,0.107c-0.06,0.046-0.119,0.092-0.185,0.138
		c-0.052,0.036-0.107,0.072-0.162,0.108c-0.068,0.044-0.137,0.089-0.21,0.133c-0.061,0.036-0.126,0.071-0.19,0.107
		c-0.076,0.042-0.151,0.085-0.232,0.126c-0.07,0.036-0.146,0.07-0.219,0.104c-0.084,0.04-0.166,0.08-0.255,0.118
		c-0.08,0.034-0.166,0.067-0.249,0.101c-0.09,0.035-0.178,0.071-0.271,0.105c-0.092,0.032-0.189,0.062-0.285,0.094
		c-0.094,0.031-0.187,0.063-0.285,0.092c-0.102,0.03-0.209,0.057-0.314,0.084c-0.101,0.026-0.198,0.055-0.303,0.078
		c-0.114,0.026-0.234,0.049-0.353,0.072c-0.104,0.021-0.203,0.043-0.309,0.062c-0.131,0.022-0.27,0.039-0.405,0.059
		c-0.102,0.014-0.198,0.03-0.302,0.042c-0.154,0.018-0.316,0.028-0.476,0.041c-0.093,0.007-0.182,0.018-0.275,0.022
		c-0.257,0.015-0.521,0.022-0.792,0.022c-4.404,0-7.007-2.002-7.007-3.003h-6.006c0,1.001-2.603,3.003-7.006,3.003
		c-4.404,0-7.007-2.002-7.007-3.003H9.039c0,2.202,1.201,4.204,3.003,5.806c2.402,2.002,6.005,3.203,10.009,3.203
		c4.003,0,7.607-1.201,10.009-3.203c2.402,2.002,6.006,3.203,10.01,3.203s7.607-1.201,10.009-3.203
		c1.802-1.602,3.003-3.604,3.003-5.806h-6.006C49.076,45.118,49.064,45.167,49.055,45.215z"/>
	<path d="M22.022,36.895c2.402,2.002,6.005,3.203,10.009,3.203s7.607-1.201,10.01-3.203c0.005-0.005,0.01-0.01,0.015-0.014
		c0.005,0.004,0.01,0.009,0.015,0.014c2.402,2.002,6.006,3.203,10.009,3.203c4.004,0,7.607-1.201,10.01-3.203
		c-1.802-1.602-3.003-3.604-3.003-5.805c0,1.001-2.603,3.002-7.007,3.002c-4.403,0-7.007-2.001-7.007-3.002h-0.029h-5.976h-0.03
		c0,1.001-2.602,3.002-7.006,3.002s-7.007-2.001-7.007-3.002h-6.005c0,1.001-2.603,3.002-7.007,3.002
		c-4.404,0-7.006-2.001-7.006-3.002c0,2.202-1.201,4.204-3.003,5.805c2.402,2.002,6.006,3.203,10.009,3.203
		C16.016,40.098,19.62,38.896,22.022,36.895z"/>
</g>
</svg>
