<?xml version="1.0" encoding="UTF-8" standalone="no"?>
<!DOCTYPE svg PUBLIC "-//W3C//DTD SVG 1.1//EN" "http://www.w3.org/Graphics/SVG/1.1/DTD/svg11.dtd">
<svg width="100%" height="100%" viewBox="0 0 100 100" version="1.1" xmlns="http://www.w3.org/2000/svg" xmlns:xlink="http://www.w3.org/1999/xlink" xml:space="preserve" xmlns:serif="http://www.serif.com/" style="fill-rule:evenodd;clip-rule:evenodd;stroke-linejoin:round;stroke-miterlimit:2;">
    <g id="Symbol" transform="matrix(1.62599,0,0,1.62599,-2.27639,-2.09265)">
        <g>
            <path d="M12.013,2.9C9.988,3.688 8.275,4.737 6.563,6.45C4.85,8.15 3.8,9.875 3.013,11.888C2.25,13.838 1.738,16.076 1.588,19.35C1.438,22.624 1.4,23.675 1.4,32.025C1.4,40.375 1.438,41.425 1.588,44.7C1.738,47.974 2.263,50.213 3.013,52.162C3.8,54.187 4.85,55.9 6.563,57.612C8.275,59.325 9.988,60.375 12.013,61.162C13.963,61.925 16.201,62.437 19.475,62.588C22.75,62.737 23.8,62.776 32.15,62.776C40.5,62.776 41.55,62.738 44.825,62.588C48.099,62.438 50.338,61.912 52.287,61.162C54.312,60.375 56.025,59.325 57.737,57.612C59.45,55.9 60.5,54.187 61.287,52.162C62.05,50.213 62.562,47.974 62.713,44.7C62.862,41.425 62.901,40.375 62.901,32.025C62.901,23.675 62.863,22.625 62.713,19.35C62.563,16.075 62.037,13.837 61.287,11.888C60.5,9.875 59.45,8.15 57.75,6.45C56.037,4.737 54.325,3.687 52.3,2.9C50.35,2.138 48.112,1.625 44.838,1.475C41.563,1.325 40.513,1.287 32.163,1.287C23.813,1.287 22.763,1.325 19.488,1.475C16.2,1.612 13.962,2.138 12.013,2.9ZM44.575,7C47.575,7.138 49.2,7.638 50.287,8.062C51.725,8.624 52.75,9.287 53.825,10.362C54.9,11.437 55.562,12.462 56.125,13.9C56.55,14.987 57.05,16.612 57.187,19.612C57.337,22.85 57.362,23.825 57.362,32.037C57.362,40.249 57.325,41.224 57.187,44.462C57.049,47.462 56.549,49.087 56.125,50.174C55.563,51.612 54.9,52.637 53.825,53.712C52.75,54.786 51.724,55.449 50.287,56.012C49.2,56.437 47.575,56.937 44.575,57.074C41.338,57.223 40.362,57.249 32.15,57.249C23.938,57.249 22.962,57.212 19.725,57.074C16.725,56.936 15.1,56.436 14.013,56.012C12.575,55.45 11.55,54.786 10.475,53.712C9.4,52.637 8.737,51.611 8.175,50.174C7.75,49.087 7.25,47.462 7.113,44.462C6.963,41.224 6.938,40.249 6.938,32.037C6.938,23.825 6.976,22.849 7.113,19.612C7.251,16.612 7.751,14.987 8.175,13.9C8.737,12.462 9.4,11.438 10.475,10.362C11.55,9.287 12.575,8.625 14.013,8.062C15.1,7.638 16.725,7.138 19.725,7C22.962,6.85 23.937,6.825 32.15,6.825C40.363,6.825 41.338,6.85 44.575,7Z" style="fill-rule:nonzero;"/>
            <path d="M16.362,32.038C16.362,40.763 23.437,47.826 32.15,47.826C40.863,47.826 47.938,40.751 47.938,32.038C47.938,23.325 40.875,16.25 32.15,16.25C23.425,16.25 16.362,23.312 16.362,32.038ZM42.4,32.038C42.4,37.701 37.812,42.288 32.15,42.288C26.488,42.288 21.9,37.7 21.9,32.038C21.9,26.376 26.487,21.788 32.15,21.788C37.813,21.788 42.4,26.375 42.4,32.038Z" style="fill-rule:nonzero;"/>
            <circle cx="48.575" cy="15.625" r="3.688"/>
        </g>
    </g>
</svg>
