<?xml version="1.0" encoding="utf-8"?>
<!-- Generator: Adobe Illustrator 16.0.0, SVG Export Plug-In . SVG Version: 6.00 Build 0)  -->
<!DOCTYPE svg PUBLIC "-//W3C//DTD SVG 1.1//EN" "http://www.w3.org/Graphics/SVG/1.1/DTD/svg11.dtd">
<svg version="1.1" id="Layer_1" xmlns="http://www.w3.org/2000/svg" xmlns:xlink="http://www.w3.org/1999/xlink" x="0px" y="0px"
	 width="1190.55px" height="841.89px" viewBox="0 0 1190.55 841.89" enable-background="new 0 0 1190.55 841.89"
	 xml:space="preserve">
<path d="M1033.901,527.819c6.273-5.974,10.235-14.347,10.235-23.692c0-8.994-4.28-17.078-10.142-22.997L769.933,217.067
	L690.23,296.77l207.9,207.9H603.58c-14.399-0.431-25.81-5.262-35.465-14.619L435.949,357.885
	c-13.705-12.96-32.479-21.161-52.834-21.161c-0.071,0-0.139,0.011-0.201,0.011v-0.011H221.612v-55.152h167.056v0.011
	c33.099,0.016,62.631,13.562,84.278,35.303l98.583,98.583l79.702-79.702l-100.5-100.5c-42.007-41.369-98.739-66.411-162.349-66.411
	c-0.067,0-0.139,0.003-0.206,0.003v-0.003H108.893v280.583h236.379v0.018c15.374,0.11,29.253,6.433,39.276,16.589l129.44,129.443
	c13.166,12.931,30.956,21.082,50.68,21.815h357.571c15.052-0.197,28.647-6.361,38.569-16.254l73.147-73.14L1033.901,527.819z"/>
<g>
	<path d="M831.465,168.856c-18.188,0-32.65,15.011-32.65,32.828v0.176c0,17.832,14.268,32.652,32.65,32.652
		c18.203,0,32.636-15.008,32.636-32.829v-0.188C864.101,183.669,849.858,168.856,831.465,168.856 M860.349,201.685
		c0,15.95-12.569,29.264-28.884,29.264c-16.509,0-28.884-13.13-28.884-29.088v-0.176c0-15.945,12.562-29.261,28.884-29.261
		c16.501,0,28.884,13.126,28.884,29.073V201.685z"/>
	<path d="M819.338,184.779h15.854c7.262,0,10.977,3.35,10.977,8.977c0,6.366-4.414,7.994-5.488,8.366v0.092
		c2.004,0.281,4.93,1.768,4.93,7.024c0,3.859,0.559,7.395,1.812,8.737h-6.227c-0.884-1.438-0.884-3.247-0.884-4.877
		c0-6.092-1.257-8.79-6.608-8.79h-8.549v13.667h-5.816V184.779z M825.154,199.89h9.532c3.672,0,5.676-1.816,5.676-5.3
		c0-4.229-2.749-5.07-5.766-5.07h-9.442V199.89z"/>
</g>
</svg>
