<?xml version="1.0" encoding="UTF-8" standalone="no"?>
<!DOCTYPE svg PUBLIC "-//W3C//DTD SVG 1.1//EN" "http://www.w3.org/Graphics/SVG/1.1/DTD/svg11.dtd">
<svg width="100%" height="100%" viewBox="0 0 100 48" version="1.1" xmlns="http://www.w3.org/2000/svg" xmlns:xlink="http://www.w3.org/1999/xlink" xml:space="preserve" xmlns:serif="http://www.serif.com/" style="fill-rule:evenodd;clip-rule:evenodd;stroke-linejoin:round;stroke-miterlimit:2;">
    <g transform="matrix(0.106924,0,0,0.106924,-11.6437,-18.0554)">
        <path d="M1033.9,527.819C1040.17,521.845 1044.14,513.472 1044.14,504.127C1044.14,495.133 1039.86,487.049 1033.99,481.13L769.933,217.067L690.23,296.77L898.13,504.67L603.58,504.67C589.181,504.239 577.77,499.408 568.115,490.051L435.949,357.885C422.244,344.925 403.47,336.724 383.115,336.724C383.044,336.724 382.976,336.735 382.914,336.735L382.914,336.724L221.612,336.724L221.612,281.572L388.668,281.572L388.668,281.583C421.767,281.599 451.299,295.145 472.946,316.886L571.529,415.469L651.231,335.767L550.731,235.267C508.724,193.898 451.992,168.856 388.382,168.856C388.315,168.856 388.243,168.859 388.176,168.859L388.176,168.856L108.893,168.856L108.893,449.439L345.272,449.439L345.272,449.457C360.646,449.567 374.525,455.89 384.548,466.046L513.988,595.489C527.154,608.42 544.944,616.571 564.668,617.304L922.239,617.304C937.291,617.107 950.886,610.943 960.808,601.05L1033.95,527.91L1033.9,527.819Z" style="fill-rule:nonzero;"/>
    </g>
</svg>
