<?xml version="1.0" encoding="utf-8"?>
<!-- Generator: Adobe Illustrator 16.0.0, SVG Export Plug-In . SVG Version: 6.00 Build 0)  -->
<!DOCTYPE svg PUBLIC "-//W3C//DTD SVG 1.1//EN" "http://www.w3.org/Graphics/SVG/1.1/DTD/svg11.dtd">
<svg version="1.1" id="Layer_1" xmlns:serif="http://www.serif.com/"
	 xmlns="http://www.w3.org/2000/svg" xmlns:xlink="http://www.w3.org/1999/xlink" x="0px" y="0px" width="64px" height="64px"
	 viewBox="0 0 64 64" enable-background="new 0 0 64 64" xml:space="preserve">
<g transform="matrix(0.360569,0,0,0.360569,0,0.0971585)">
	<path d="M0,120.04c0,2.202,0.798,3.865,2.394,4.994c1.595,1.129,3.302,1.525,5.118,1.194c1.705-0.328,2.902-0.934,3.59-1.815
		c0.688-0.88,1.032-2.337,1.032-4.374V96.103c0-1.706-0.592-3.15-1.774-4.333c-1.184-1.184-2.627-1.774-4.333-1.774
		c-1.651,0-3.069,0.59-4.251,1.774C0.592,92.953,0,94.397,0,96.103V120.04z M18.984,130.275c0,1.598,0.565,2.792,1.693,3.591
		c1.128,0.796,2.573,1.197,4.333,1.197c1.816,0,3.288-0.401,4.416-1.197s1.691-1.993,1.691-3.591V74.477
		c0-1.651-0.592-3.069-1.774-4.251c-1.184-1.184-2.628-1.775-4.333-1.775c-1.651,0-3.069,0.592-4.251,1.775
		c-1.184,1.184-1.775,2.6-1.775,4.251V130.275z M37.886,132.918c0,1.593,0.578,2.79,1.733,3.589
		c1.156,0.799,2.642,1.197,4.458,1.197c1.76,0,3.205-0.398,4.333-1.197c1.128-0.799,1.693-1.996,1.693-3.589v-50.93
		c0-1.706-0.592-3.165-1.775-4.375c-1.184-1.211-2.6-1.816-4.251-1.816c-1.706,0-3.165,0.605-4.375,1.816
		c-1.209,1.211-1.815,2.669-1.815,4.375v50.93H37.886z M56.872,133.165c0,3.025,2.035,4.539,6.107,4.539s6.109-1.514,6.109-4.539
		V50.621c0-4.622-1.404-7.235-4.21-7.841c-1.816-0.44-3.605,0.083-5.365,1.568c-1.76,1.486-2.642,3.576-2.642,6.273v82.544H56.872z
		 M76.187,135.556V45.752c0-2.861,0.853-4.566,2.558-5.118c3.687-0.88,7.347-1.32,10.978-1.32c8.418,0,16.261,1.981,23.525,5.942
		c7.264,3.962,13.138,9.37,17.621,16.221c4.485,6.851,7.085,14.403,7.8,22.658c3.358-1.431,6.933-2.146,10.731-2.146
		c7.705,0,14.295,2.723,19.771,8.17c5.474,5.449,8.212,11.998,8.212,19.647c0,7.703-2.738,14.279-8.212,19.728
		c-5.476,5.449-12.039,8.171-19.687,8.171l-71.812-0.084c-0.496-0.163-0.868-0.466-1.115-0.905
		C76.31,136.271,76.187,135.887,76.187,135.556z"/>
</g>
</svg>
