<?xml version="1.0" encoding="UTF-8" standalone="no"?>
<!DOCTYPE svg PUBLIC "-//W3C//DTD SVG 1.1//EN" "http://www.w3.org/Graphics/SVG/1.1/DTD/svg11.dtd">
<svg width="100%" height="100%" viewBox="0 0 1808 1808" version="1.1" xmlns="http://www.w3.org/2000/svg" xmlns:xlink="http://www.w3.org/1999/xlink" xml:space="preserve" xmlns:serif="http://www.serif.com/" style="fill-rule:evenodd;clip-rule:evenodd;stroke-linejoin:round;stroke-miterlimit:2;">
    <g transform="matrix(4.15354,0,0,4.15354,0,-77.2673)">
        <path d="M0,235.534C0,115.862 97.01,18.852 216.683,18.852C336.355,18.852 433.365,115.862 433.365,235.534C433.365,355.207 336.355,452.216 216.683,452.216C97.01,452.216 0,355.207 0,235.534Z" style="fill:rgb(15,152,146);fill-rule:nonzero;"/>
    </g>
    <g id="stars" transform="matrix(1.41489,0,0,1.41489,-688.539,-417.837)">
        <g transform="matrix(4.15354,0,0,4.15354,0,-77.2673)">
            <path d="M312.288,263.137L307.093,259.361L301.896,263.137L303.881,257.028L298.686,253.255L305.107,253.255L307.093,247.146L309.079,253.255L315.5,253.255L310.305,257.031L312.288,263.137Z" style="fill:white;fill-rule:nonzero;"/>
        </g>
        <g transform="matrix(4.15354,0,0,4.15354,0,-77.2673)">
            <path d="M333.303,263.137L328.106,259.361L322.911,263.137L324.896,257.028L319.699,253.255L326.123,253.255L328.106,247.146L330.091,253.255L336.515,253.255L331.317,257.031L333.303,263.137Z" style="fill:white;fill-rule:nonzero;"/>
        </g>
        <g transform="matrix(4.15354,0,0,4.15354,0,-77.2673)">
            <path d="M354.316,263.137L349.121,259.361L343.926,263.137L345.909,257.028L340.714,253.255L347.136,253.255L349.121,247.146L351.107,253.255L357.528,253.255L352.333,257.031L354.316,263.137Z" style="fill:white;fill-rule:nonzero;"/>
        </g>
        <g transform="matrix(4.15354,0,0,4.15354,0,-77.2673)">
            <path d="M375.331,263.137L370.137,259.361L364.939,263.137L366.924,257.028L361.728,253.255L368.151,253.255L370.137,247.146L372.12,253.255L378.543,253.255L373.346,257.031L375.331,263.137Z" style="fill:white;fill-rule:nonzero;"/>
        </g>
        <g transform="matrix(4.15354,0,0,4.15354,0,-77.2673)">
            <path d="M396.347,263.137L391.149,259.361L385.955,263.137L387.938,257.028L382.743,253.255L389.164,253.255L391.149,247.146L393.135,253.255L399.559,253.255L394.361,257.031L396.347,263.137Z" style="fill:white;fill-rule:nonzero;"/>
        </g>
    </g>
    <g id="open:sounds" transform="matrix(1,0,0,1,128.711,1169.41)">
        <g transform="matrix(195.833,0,0,195.833,0,0)">
            <path d="M0.035,-0.268C0.035,-0.066 0.177,0.02 0.389,0.02C0.601,0.02 0.743,-0.066 0.743,-0.268C0.743,-0.47 0.601,-0.556 0.389,-0.556C0.177,-0.556 0.035,-0.47 0.035,-0.268ZM0.217,-0.268C0.217,-0.373 0.28,-0.432 0.389,-0.432C0.498,-0.432 0.561,-0.373 0.561,-0.268C0.561,-0.163 0.498,-0.104 0.389,-0.104C0.28,-0.104 0.217,-0.163 0.217,-0.268Z" style="fill:white;fill-rule:nonzero;"/>
        </g>
        <g transform="matrix(195.833,0,0,195.833,152.358,0)">
            <path d="M0.23,-0.265C0.23,-0.367 0.307,-0.42 0.395,-0.42C0.484,-0.42 0.561,-0.367 0.561,-0.265C0.561,-0.163 0.484,-0.11 0.395,-0.11C0.307,-0.11 0.23,-0.163 0.23,-0.265ZM0.06,0.199L0.236,0.199L0.236,-0.06L0.238,-0.06C0.272,-0.012 0.345,0.02 0.444,0.02C0.613,0.02 0.743,-0.094 0.743,-0.268C0.743,-0.456 0.606,-0.55 0.432,-0.55C0.358,-0.55 0.299,-0.535 0.232,-0.463L0.23,-0.463L0.23,-0.536L0.06,-0.536L0.06,0.199Z" style="fill:white;fill-rule:nonzero;"/>
        </g>
        <g transform="matrix(195.833,0,0,195.833,304.716,0)">
            <path d="M0.53,-0.16C0.505,-0.114 0.455,-0.09 0.384,-0.09C0.264,-0.09 0.212,-0.168 0.212,-0.219L0.212,-0.221L0.728,-0.221L0.728,-0.237C0.728,-0.439 0.616,-0.556 0.384,-0.556C0.172,-0.556 0.03,-0.47 0.03,-0.268C0.03,-0.066 0.172,0.02 0.384,0.02C0.545,0.02 0.667,-0.033 0.718,-0.16L0.53,-0.16ZM0.212,-0.325L0.212,-0.327C0.212,-0.34 0.241,-0.446 0.38,-0.446C0.509,-0.446 0.546,-0.356 0.546,-0.327L0.546,-0.325L0.212,-0.325Z" style="fill:white;fill-rule:nonzero;"/>
        </g>
        <g transform="matrix(195.833,0,0,195.833,453.158,0)">
            <path d="M0.505,-0L0.681,-0L0.681,-0.357C0.681,-0.515 0.542,-0.55 0.451,-0.55C0.348,-0.55 0.264,-0.503 0.232,-0.458L0.23,-0.458L0.23,-0.536L0.06,-0.536L0.06,-0L0.236,-0L0.236,-0.259C0.236,-0.373 0.305,-0.414 0.387,-0.414C0.466,-0.414 0.505,-0.378 0.505,-0.304L0.505,-0Z" style="fill:white;fill-rule:nonzero;"/>
        </g>
        <g transform="matrix(195.833,0,0,195.833,598.27,0)">
            <path d="M0.088,-0.366L0.282,-0.366L0.282,-0.536L0.088,-0.536L0.088,-0.366ZM0.088,-0L0.282,-0L0.282,-0.17L0.088,-0.17L0.088,-0Z" style="fill:white;fill-rule:nonzero;"/>
        </g>
        <g transform="matrix(195.833,0,0,195.833,670.728,0)">
            <path d="M0.029,-0.166C0.038,-0.039 0.141,0.02 0.344,0.02C0.497,0.02 0.675,-0.002 0.675,-0.161C0.675,-0.254 0.617,-0.307 0.438,-0.326L0.316,-0.339C0.24,-0.347 0.227,-0.364 0.227,-0.389C0.227,-0.442 0.296,-0.446 0.342,-0.446C0.393,-0.446 0.451,-0.43 0.461,-0.375L0.655,-0.375C0.643,-0.475 0.585,-0.556 0.338,-0.556C0.192,-0.556 0.045,-0.521 0.045,-0.376C0.045,-0.274 0.109,-0.239 0.221,-0.224L0.381,-0.202C0.466,-0.19 0.481,-0.178 0.481,-0.148C0.481,-0.109 0.434,-0.09 0.354,-0.09C0.263,-0.09 0.231,-0.12 0.223,-0.166L0.029,-0.166Z" style="fill:white;fill-rule:nonzero;"/>
        </g>
        <g transform="matrix(195.833,0,0,195.833,808.594,0)">
            <path d="M0.035,-0.268C0.035,-0.066 0.177,0.02 0.389,0.02C0.601,0.02 0.743,-0.066 0.743,-0.268C0.743,-0.47 0.601,-0.556 0.389,-0.556C0.177,-0.556 0.035,-0.47 0.035,-0.268ZM0.217,-0.268C0.217,-0.373 0.28,-0.432 0.389,-0.432C0.498,-0.432 0.561,-0.373 0.561,-0.268C0.561,-0.163 0.498,-0.104 0.389,-0.104C0.28,-0.104 0.217,-0.163 0.217,-0.268Z" style="fill:white;fill-rule:nonzero;"/>
        </g>
        <g transform="matrix(195.833,0,0,195.833,960.953,0)">
            <path d="M0.511,-0L0.681,-0L0.681,-0.536L0.505,-0.536L0.505,-0.268C0.505,-0.169 0.451,-0.116 0.356,-0.116C0.275,-0.116 0.236,-0.152 0.236,-0.226L0.236,-0.536L0.06,-0.536L0.06,-0.173C0.06,-0.015 0.199,0.02 0.29,0.02C0.393,0.02 0.477,-0.027 0.509,-0.072L0.511,-0.072L0.511,-0Z" style="fill:white;fill-rule:nonzero;"/>
        </g>
        <g transform="matrix(195.833,0,0,195.833,1106.06,0)">
            <path d="M0.505,-0L0.681,-0L0.681,-0.357C0.681,-0.515 0.542,-0.55 0.451,-0.55C0.348,-0.55 0.264,-0.503 0.232,-0.458L0.23,-0.458L0.23,-0.536L0.06,-0.536L0.06,-0L0.236,-0L0.236,-0.259C0.236,-0.373 0.305,-0.414 0.387,-0.414C0.466,-0.414 0.505,-0.378 0.505,-0.304L0.505,-0Z" style="fill:white;fill-rule:nonzero;"/>
        </g>
        <g transform="matrix(195.833,0,0,195.833,1251.18,0)">
            <path d="M0.217,-0.265C0.217,-0.367 0.294,-0.42 0.383,-0.42C0.471,-0.42 0.548,-0.367 0.548,-0.265C0.548,-0.163 0.471,-0.11 0.383,-0.11C0.294,-0.11 0.217,-0.163 0.217,-0.265ZM0.548,-0L0.718,-0L0.718,-0.726L0.542,-0.726L0.542,-0.47L0.54,-0.47C0.506,-0.518 0.433,-0.55 0.334,-0.55C0.165,-0.55 0.035,-0.436 0.035,-0.262C0.035,-0.075 0.167,0.02 0.334,0.02C0.414,0.02 0.489,0.002 0.546,-0.067L0.548,-0.067L0.548,-0Z" style="fill:white;fill-rule:nonzero;"/>
        </g>
        <g transform="matrix(195.833,0,0,195.833,1403.54,0)">
            <path d="M0.029,-0.166C0.038,-0.039 0.141,0.02 0.344,0.02C0.497,0.02 0.675,-0.002 0.675,-0.161C0.675,-0.254 0.617,-0.307 0.438,-0.326L0.316,-0.339C0.24,-0.347 0.227,-0.364 0.227,-0.389C0.227,-0.442 0.296,-0.446 0.342,-0.446C0.393,-0.446 0.451,-0.43 0.461,-0.375L0.655,-0.375C0.643,-0.475 0.585,-0.556 0.338,-0.556C0.192,-0.556 0.045,-0.521 0.045,-0.376C0.045,-0.274 0.109,-0.239 0.221,-0.224L0.381,-0.202C0.466,-0.19 0.481,-0.178 0.481,-0.148C0.481,-0.109 0.434,-0.09 0.354,-0.09C0.263,-0.09 0.231,-0.12 0.223,-0.166L0.029,-0.166Z" style="fill:white;fill-rule:nonzero;"/>
        </g>
    </g>
</svg>
