<?xml version="1.0" encoding="UTF-8" standalone="no"?>
<!DOCTYPE svg PUBLIC "-//W3C//DTD SVG 1.1//EN" "http://www.w3.org/Graphics/SVG/1.1/DTD/svg11.dtd">
<svg width="100%" height="100%" viewBox="0 0 1808 1808" version="1.1" xmlns="http://www.w3.org/2000/svg" xmlns:xlink="http://www.w3.org/1999/xlink" xml:space="preserve" xmlns:serif="http://www.serif.com/" style="fill-rule:evenodd;clip-rule:evenodd;stroke-linejoin:round;stroke-miterlimit:2;">
    <g transform="matrix(4.15354,0,0,4.15354,0,-77.2673)">
        <path d="M0,235.534C0,115.862 97.01,18.852 216.683,18.852C336.355,18.852 433.365,115.862 433.365,235.534C433.365,355.207 336.355,452.216 216.683,452.216C97.01,452.216 0,355.207 0,235.534Z" style="fill:rgb(113,177,62);fill-rule:nonzero;"/>
    </g>
    <g transform="matrix(1,0,0,1,154,1095.21)">
        <g>
            <g transform="matrix(541.667,0,0,541.667,0,0)">
                <path d="M0.217,-0.265C0.217,-0.367 0.294,-0.42 0.383,-0.42C0.471,-0.42 0.548,-0.367 0.548,-0.265C0.548,-0.163 0.471,-0.11 0.383,-0.11C0.294,-0.11 0.217,-0.163 0.217,-0.265ZM0.548,-0L0.718,-0L0.718,-0.726L0.542,-0.726L0.542,-0.47L0.54,-0.47C0.506,-0.518 0.433,-0.55 0.334,-0.55C0.165,-0.55 0.035,-0.436 0.035,-0.262C0.035,-0.075 0.167,0.02 0.334,0.02C0.414,0.02 0.489,0.002 0.546,-0.067L0.548,-0.067L0.548,-0Z" style="fill:white;fill-rule:nonzero;"/>
            </g>
            <g transform="matrix(541.667,0,0,541.667,421.417,0)">
                <path d="M0.234,-0L0.434,-0L0.68,-0.536L0.48,-0.536L0.334,-0.16L0.188,-0.536L-0.012,-0.536L0.234,-0Z" style="fill:white;fill-rule:nonzero;"/>
            </g>
            <g transform="matrix(541.667,0,0,541.667,783.25,0)">
                <path d="M0.217,-0.265C0.217,-0.367 0.294,-0.42 0.383,-0.42C0.471,-0.42 0.548,-0.367 0.548,-0.265C0.548,-0.163 0.471,-0.11 0.383,-0.11C0.294,-0.11 0.217,-0.163 0.217,-0.265ZM0.548,-0L0.718,-0L0.718,-0.726L0.542,-0.726L0.542,-0.47L0.54,-0.47C0.506,-0.518 0.433,-0.55 0.334,-0.55C0.165,-0.55 0.035,-0.436 0.035,-0.262C0.035,-0.075 0.167,0.02 0.334,0.02C0.414,0.02 0.489,0.002 0.546,-0.067L0.548,-0.067L0.548,-0Z" style="fill:white;fill-rule:nonzero;"/>
            </g>
            <g transform="matrix(541.667,0,0,541.667,1204.67,0)">
                <path d="M0.247,-0L0.429,-0L0.429,-0.694L0.288,-0.694C0.248,-0.582 0.191,-0.57 0.037,-0.567L0.037,-0.443L0.247,-0.443L0.247,-0Z" style="fill:white;fill-rule:nonzero;"/>
            </g>
        </g>
    </g>
</svg>
