<?xml version="1.0" encoding="UTF-8" standalone="no"?>
<!DOCTYPE svg PUBLIC "-//W3C//DTD SVG 1.1//EN" "http://www.w3.org/Graphics/SVG/1.1/DTD/svg11.dtd">
<svg width="100%" height="100%" viewBox="0 0 2906 4017" version="1.1" xmlns="http://www.w3.org/2000/svg" xmlns:xlink="http://www.w3.org/1999/xlink" xml:space="preserve" xmlns:serif="http://www.serif.com/" style="fill-rule:evenodd;clip-rule:evenodd;">
    <g transform="matrix(8.76656,0,0,8.76656,1452.91,1127.49)">
        <path d="M0,327.666C-90.483,327.666 -163.834,254.316 -163.834,163.832C-163.834,73.35 -90.483,0 0,0C90.482,0 163.832,73.35 163.832,163.832C163.832,254.316 90.482,327.666 0,327.666" style="fill:white;fill-rule:nonzero;stroke:rgb(26,22,25);stroke-width:3.8px;"/>
    </g>
    <g transform="matrix(8.76656,0,0,8.76656,1496.28,2815.81)">
        <path d="M0,119.09C71.969,116.447 129.4,63.71 137.279,-2.665L-147.299,7.876C-133.723,73.469 -71.927,121.755 0,119.09" style="fill:white;fill-rule:nonzero;stroke:rgb(26,22,25);stroke-width:3.33px;stroke-miterlimit:3.864;"/>
    </g>
    <g transform="matrix(1.30274,-8.66922,-8.66922,-1.30274,2638.89,3337.48)">
        <path d="M-40.217,46.712L54.256,46.712" style="fill:none;fill-rule:nonzero;stroke:rgb(26,22,25);stroke-width:2.85px;stroke-miterlimit:3.864;"/>
    </g>
    <g transform="matrix(0.586305,-8.74693,-8.74693,-0.586305,2291.26,3392.96)">
        <path d="M-52.97,56.639L60.563,56.639" style="fill:none;fill-rule:nonzero;stroke:rgb(26,22,25);stroke-width:2.85px;stroke-miterlimit:3.864;"/>
    </g>
    <g transform="matrix(-0.376743,-8.75846,-8.75846,0.376743,1766.04,3303.49)">
        <path d="M-58.356,55.9L53.547,55.9" style="fill:none;fill-rule:nonzero;stroke:rgb(26,22,25);stroke-width:2.85px;stroke-miterlimit:3.864;"/>
    </g>
    <g transform="matrix(-1.01311,-8.70782,-8.70782,1.01311,1225.21,3191.73)">
        <path d="M-53.348,47.501L42.295,47.501" style="fill:none;fill-rule:nonzero;stroke:rgb(26,22,25);stroke-width:2.85px;stroke-miterlimit:3.864;"/>
    </g>
    <g transform="matrix(-1.06213,8.70198,8.70198,1.06213,1085.73,1262.67)">
        <path d="M60.207,-67.999C26.713,-68.002 -0.447,-40.844 -0.436,-7.35C-0.454,26.158 26.707,53.312 60.207,53.306C93.709,53.317 120.857,26.161 120.858,-7.345C120.868,-40.846 93.716,-68.004 60.207,-67.999Z" style="fill:white;fill-rule:nonzero;stroke:rgb(26,22,25);stroke-width:2.85px;stroke-miterlimit:3.864;"/>
    </g>
    <g transform="matrix(0,-8.76656,-8.76656,0,1001.82,1649.22)">
        <path d="M-32.553,-32.551C-50.531,-32.551 -65.103,-17.978 -65.103,-0.001C-65.103,17.977 -50.531,32.553 -32.553,32.553C-14.576,32.553 -0.001,17.977 -0.001,-0.001C-0.001,-17.978 -14.576,-32.551 -32.553,-32.551" style="fill:rgb(26,22,25);fill-rule:nonzero;"/>
    </g>
    <g transform="matrix(0,-8.76656,-8.76656,0,1001.82,1649.22)">
        <ellipse cx="-32.552" cy="0.001" rx="32.551" ry="32.552" style="fill:none;stroke:rgb(26,22,25);stroke-width:1.9px;"/>
    </g>
    <g transform="matrix(-8.53994,1.98039,1.98039,8.53994,2074.39,2243.53)">
        <path d="M15.847,-138.498C-22.894,-138.503 -54.306,-107.09 -54.294,-68.35C-54.313,-29.596 -22.9,1.809 15.847,1.806C54.595,1.817 85.995,-29.592 85.995,-68.345C86.007,-107.093 54.604,-138.507 15.847,-138.498Z" style="fill:white;fill-rule:nonzero;stroke:rgb(26,22,25);stroke-width:2.85px;stroke-miterlimit:3.864;"/>
    </g>
    <g transform="matrix(8.23715,-3.00033,-3.00033,-8.23715,1906.53,1927.51)">
        <path d="M-12.885,-2.274C-33.676,-2.274 -50.536,14.584 -50.536,35.375C-50.536,56.167 -33.678,73.025 -12.885,73.026C7.905,73.025 24.765,56.169 24.764,35.376C24.765,14.585 7.907,-2.274 -12.885,-2.274" style="fill:rgb(26,22,25);fill-rule:nonzero;"/>
    </g>
    <g transform="matrix(8.23715,-3.00033,-3.00033,-8.23715,1906.53,1927.51)">
        <ellipse cx="-12.885" cy="35.376" rx="37.651" ry="37.65" style="fill:none;stroke:rgb(26,22,25);stroke-width:1.9px;"/>
    </g>
    <g transform="matrix(8.76656,0,0,8.76656,641.011,1035.54)">
        <path d="M0,-118.124C3.994,-112.761 7.824,-107.678 11.524,-102.863C13.879,-79.792 13.933,-55.436 10.835,-29.658C10.078,-22.613 8.768,-13.503 6.106,-7.063C3.185,0 0.394,-0.273 -1.531,-0.612C-3.268,-1.05 -4.989,-1.528 -6.697,-2.049C-4.791,-13.288 -3.467,-24.388 -2.701,-35.354C-2.19,-34.163 -1.831,-33.489 -0.736,-32.672C2.002,-30.675 2.993,-36.028 3.492,-44.37C5.213,-70.137 3.826,-94.687 0,-118.124" style="fill:rgb(26,22,25);fill-rule:nonzero;"/>
    </g>
    <g transform="matrix(8.76656,0,0,8.76656,903.394,815.281)">
        <path d="M0,-32.085C-1.55,-23.612 -3.408,-14.644 -5.717,-5.147C-3.878,-4.059 -2.03,-3.035 -0.171,-2.071C0.326,-12.097 0.383,-22.102 0,-32.085M-4.529,-60.141C-0.766,-55.587 2.89,-51.343 6.478,-47.392C9.103,-22.007 8.97,3.103 6.408,27.902C3.333,28.015 0.302,28.056 -2.687,28.019C-2.236,24.216 -1.846,20.41 -1.517,16.598C-4.542,15.974 -7.524,15.237 -10.467,14.379C-11.574,18.645 -12.775,22.994 -14.08,27.426C-17.008,27.148 -19.893,26.78 -22.739,26.317C-12.037,-7.575 -7.327,-36.055 -4.529,-60.141" style="fill:rgb(26,22,25);fill-rule:nonzero;"/>
    </g>
    <g transform="matrix(8.76656,0,0,8.76656,1132.9,900.422)">
        <path d="M0,-25.988C-0.771,-21.692 -1.611,-17.283 -2.539,-12.758C-0.938,-12.071 0.674,-11.424 2.296,-10.818C2.765,-10.716 3.258,-10.538 3.776,-10.644C5.229,-10.918 6.473,-12.73 7.087,-15.452C8.28,-20.645 5.83,-22.218 4.801,-23.006C3.195,-23.95 1.595,-24.944 0,-25.988M-6.91,-44.094C-1.613,-39.101 3.619,-34.748 8.885,-30.977C11.808,-28.685 14.336,-26.781 15.699,-22.399C16.928,-18.463 16.286,-14.986 15.636,-12.529C14.805,-9.327 13.421,-5.911 10.423,-2.922C7.218,0.435 4.623,0.403 1.652,0.012C-0.553,-0.368 -2.736,-0.802 -4.898,-1.296C-6.148,4.795 -7.568,11.059 -9.197,17.506C-12.132,17.763 -15.031,17.965 -17.893,18.106C-12.083,-4.581 -8.88,-25.217 -6.91,-44.094" style="fill:rgb(26,22,25);fill-rule:nonzero;"/>
    </g>
    <g transform="matrix(8.76656,0,0,8.76656,1379.92,948.033)">
        <path d="M0,-15.723C-2.09,-12.334 -4.231,-8.693 -6.467,-4.781C-4.464,-4.671 -2.441,-4.597 -0.402,-4.556C-0.254,-8.301 -0.121,-12.023 0,-15.723M-2.109,-26.137C1.125,-24.595 4.397,-23.238 7.722,-22.053C8.157,-13.156 8.709,-4.344 9.355,4.387C5.966,5.127 2.609,5.834 -0.713,6.504C-0.695,5.113 -0.68,3.723 -0.666,2.333C-4.047,2.733 -7.385,3.073 -10.68,3.347C-11.578,5.146 -12.497,6.99 -13.44,8.882C-16.726,9.441 -19.973,9.953 -23.182,10.414C-15.079,-4.479 -8.487,-16.465 -2.109,-26.137" style="fill:rgb(26,22,25);fill-rule:nonzero;"/>
    </g>
    <g transform="matrix(8.76656,0,0,8.76656,1555.28,982.495)">
        <path d="M0,-22.415C3.102,-21.706 6.253,-21.123 9.457,-20.657C10.532,-18.459 11.676,-16.35 12.895,-14.331C13.727,-12.809 13.965,-12.393 14.664,-10.843C15.123,-12.292 15.239,-12.613 15.988,-14.235C16.998,-16.123 18.006,-17.913 19.021,-19.609C21.842,-19.396 24.703,-19.262 27.605,-19.198C25.264,-15.652 22.98,-11.615 20.619,-7.005C17.146,-6.128 13.697,-5.267 10.273,-4.426C9.04,-6.026 7.865,-7.699 6.741,-9.445C5.791,-11.089 5.532,-11.631 4.75,-14.047C4.227,-12.371 4.088,-11.949 3.406,-10.213C2.377,-7.611 1.332,-4.883 0.252,-2.021C-2.717,-1.327 -5.662,-0.652 -8.584,0C-5.506,-8.403 -2.764,-15.826 0,-22.415" style="fill:rgb(26,22,25);fill-rule:nonzero;"/>
    </g>
    <g transform="matrix(8.76656,0,0,8.76656,414.352,2820.97)">
        <path d="M0,-43.117L0.503,-33.957L-17.764,-32.956L-17.355,-25.5L-0.287,-26.434L0.204,-17.512L-16.867,-16.575L-15.994,-0.663L-28.116,0L-30.39,-41.45L0,-43.117Z" style="fill:rgb(26,22,25);fill-rule:nonzero;"/>
    </g>
    <g transform="matrix(8.76656,0,0,8.76656,455.309,2789.53)">
        <path d="M0,-39.784L30.39,-41.449L30.89,-32.351L12.677,-31.352L13.016,-25.187L30.032,-26.121L30.524,-17.138L13.508,-16.204L13.958,-7.983L33.801,-9.072L34.293,-0.09L2.273,1.665L0,-39.784Z" style="fill:rgb(26,22,25);fill-rule:nonzero;"/>
    </g>
    <g transform="matrix(8.76656,0,0,8.76656,793.199,2762.95)">
        <path d="M0,-38.865L17.342,-39.817L23.121,-20.935C24.216,-16.873 24.43,-15.943 25.181,-12.215C25.607,-17.36 25.767,-18.431 26.417,-22.47L29.791,-40.5L47.187,-41.451L49.459,-0.002L37.88,0.633L36.568,-23.32C36.454,-26.376 36.467,-27.142 36.492,-30.678C36.01,-27.529 35.932,-26.936 35.335,-23.9L30.323,1.048L21.299,1.541L14.096,-21.441C13.097,-24.742 13.04,-24.799 11.877,-29.093C12.181,-26.518 12.271,-25.875 12.399,-23.527L13.796,1.954L2.271,2.586L0,-38.865Z" style="fill:rgb(26,22,25);fill-rule:nonzero;"/>
    </g>
    <g transform="matrix(8.76656,0,0,8.76656,1270.49,2550.65)">
        <path d="M0,8.882L9.895,8.338L10.5,19.376L0.606,19.919L0,8.882ZM-1.061,-10.493L8.833,-11.037L9.438,0.003L-0.456,0.543L-1.061,-10.493Z" style="fill:rgb(26,22,25);fill-rule:nonzero;"/>
    </g>
    <g transform="matrix(8.76656,0,0,8.76656,1500.28,2671.08)">
        <path d="M0,-24.091L0.58,-13.524L7.539,-13.905C8.188,-13.999 8.895,-14.037 9.534,-14.31C11.348,-15.056 12.332,-16.994 12.193,-19.519C11.925,-24.393 8.381,-24.434 6.85,-24.466L0,-24.091ZM-12.656,-32.173L9.307,-33.375C13.502,-33.429 17.158,-33.393 20.445,-30.1C23.449,-27.026 24.041,-23.229 24.185,-20.588C24.375,-17.126 23.928,-13.331 21.121,-9.82C18.111,-6.064 14.586,-5.693 10.407,-5.346L1.057,-4.832L1.797,8.669L-10.382,9.338L-12.656,-32.173Z" style="fill:rgb(26,22,25);fill-rule:nonzero;"/>
    </g>
    <g transform="matrix(8.76656,0,0,8.76656,1847.66,2652.64)">
        <path d="M0,-24.219L0.533,-14.532L5.589,-14.81C7.6,-14.919 11.453,-15.247 11.195,-19.946C10.936,-24.701 7.123,-24.61 5.004,-24.493L0,-24.219ZM-12.654,-32.24L6.484,-33.289C10.125,-33.489 13.619,-33.445 16.015,-32.517C21.254,-30.45 23.084,-24.896 23.303,-20.903C23.391,-19.318 23.43,-15.61 20.824,-12.405C19.398,-10.559 17.805,-9.824 16.05,-8.962L26.318,7.257L12.836,7.997L4.588,-6.215L0.998,-6.018L1.801,8.6L-10.377,9.27L-12.654,-32.24Z" style="fill:rgb(26,22,25);fill-rule:nonzero;"/>
    </g>
    <g transform="matrix(8.76656,0,0,8.76656,2103.71,2699.18)">
        <path d="M0,-39.785L30.39,-41.451L30.888,-32.349L12.677,-31.352L13.014,-25.186L30.03,-26.119L30.522,-17.139L13.507,-16.205L13.957,-7.985L33.8,-9.072L34.292,-0.089L2.272,1.666L0,-39.785Z" style="fill:rgb(26,22,25);fill-rule:nonzero;"/>
    </g>
    <g transform="matrix(8.76656,0,0,8.76656,2496.52,2443.24)">
        <path d="M0,14.16C1.187,15.921 2.194,17.395 5.573,18.389C7.184,18.889 9.159,19.136 11.009,19.032C11.987,18.979 16.765,18.599 16.601,15.605C16.584,15.311 16.5,13.785 14.339,13.139C12.95,12.683 5.81,11.722 4.209,11.396C0.622,10.594 -6.411,8.621 -6.89,-0.126C-6.99,-1.946 -6.713,-3.847 -6.097,-5.528C-3.931,-11.771 2.407,-14.533 9.312,-14.912C13.714,-15.153 17.788,-14.434 21.036,-12.905C24,-11.535 25.505,-9.969 26.947,-8.517L19.713,-1.23C19.069,-2.02 18.364,-2.924 16.628,-3.769C14.335,-4.822 11.38,-5.013 9.425,-4.905C7.358,-4.793 5.106,-4.082 5.222,-1.968C5.331,0.03 7.317,0.451 10.669,0.915C19.291,2.033 27.862,3.21 28.426,13.484C28.663,17.828 27.146,20.976 25.513,23.008C20.967,28.616 13.247,29.04 11.126,29.156C8.245,29.313 5.185,29.187 2.144,28.411C-4.048,26.867 -7.078,23.322 -8.942,21.128L0,14.16Z" style="fill:rgb(26,22,25);fill-rule:nonzero;"/>
    </g>
</svg>
