<?xml version="1.0" encoding="UTF-8" standalone="no"?>
<!DOCTYPE svg PUBLIC "-//W3C//DTD SVG 1.1//EN" "http://www.w3.org/Graphics/SVG/1.1/DTD/svg11.dtd">
<svg width="100%" height="100%" viewBox="0 0 500 464" version="1.1" xmlns="http://www.w3.org/2000/svg" xmlns:xlink="http://www.w3.org/1999/xlink" xml:space="preserve" xmlns:serif="http://www.serif.com/" style="fill-rule:evenodd;clip-rule:evenodd;stroke-linejoin:round;stroke-miterlimit:2;">
    <g transform="matrix(3.65206,0,0,3.65206,-60.2955,-58.6666)">
        <path d="M103.591,142.924L16.51,142.924L16.51,55.002L64.512,16.064L153.407,16.064L153.407,96.283L103.591,142.924ZM148.406,21.064L148.406,21.064Z" style="fill:white;fill-rule:nonzero;"/>
    </g>
    <g transform="matrix(3.65206,0,0,3.65206,-60.2955,-58.6666)">
        <path d="M103.591,142.924L16.51,142.924L16.51,55.002L64.512,16.064L153.407,16.064L153.407,96.283L103.591,142.924ZM21.51,137.924L101.616,137.924L148.406,94.115L148.406,21.064L66.285,21.064L21.51,57.385L21.51,137.924Z" style="fill:rgb(56,206,81);fill-rule:nonzero;"/>
    </g>
    <g transform="matrix(3.65206,0,0,3.65206,-60.2955,-58.6666)">
        <g>
            <path d="M74.844,57.596L87.6,57.596C92.479,57.596 96.215,58.69 98.811,60.877C101.407,63.063 102.704,66.043 102.704,69.818C102.704,73.638 101.395,76.666 98.78,78.896C96.161,81.126 92.325,82.24 87.266,82.24L78.422,82.24L78.422,103.871L74.844,103.871L74.844,57.596ZM78.422,60.578L78.422,79.26L87.035,79.26C90.9,79.26 93.836,78.442 95.846,76.809C97.854,75.176 98.862,72.866 98.862,69.887C98.862,67.037 97.878,64.774 95.913,63.094C93.948,61.418 91.132,60.578 87.466,60.578L78.422,60.578Z" style="fill:rgb(56,206,81);fill-rule:nonzero;"/>
            <path d="M79.545,104.993L73.722,104.993L73.722,56.473L87.6,56.473C92.727,56.473 96.743,57.666 99.534,60.019C102.382,62.416 103.826,65.713 103.826,69.818C103.826,73.964 102.373,77.306 99.508,79.75C96.694,82.147 92.575,83.362 87.267,83.362L79.545,83.362L79.545,104.993ZM75.966,102.749L77.3,102.749L77.3,81.118L87.266,81.118C92.027,81.118 95.656,80.083 98.052,78.042C100.427,76.017 101.581,73.327 101.581,69.818C101.581,66.358 100.438,63.714 98.088,61.735C95.712,59.732 92.184,58.717 87.6,58.717L75.966,58.717L75.966,102.749ZM87.035,80.382L77.3,80.382L77.3,59.456L87.465,59.456C91.387,59.456 94.475,60.393 96.64,62.24C98.859,64.136 99.984,66.709 99.984,69.886C99.984,73.206 98.83,75.827 96.554,77.678C94.346,79.473 91.144,80.382 87.035,80.382ZM79.544,78.138L87.035,78.138C90.615,78.138 93.342,77.398 95.139,75.938C96.889,74.515 97.74,72.536 97.74,69.887C97.74,67.361 96.904,65.417 95.184,63.947C93.436,62.457 90.839,61.701 87.465,61.701L79.544,61.701L79.544,78.138Z" style="fill:rgb(56,206,81);fill-rule:nonzero;"/>
        </g>
        <g>
            <rect x="68" y="79" width="9" height="3" style="fill:rgb(56,206,81);"/>
            <path d="M78,83L67,83L67,78L78,78L78,83ZM69,81L76,81L76,80L69,80L69,81Z" style="fill:rgb(56,206,81);fill-rule:nonzero;"/>
        </g>
        <g>
            <rect x="76" y="70" width="12" height="3" style="fill:rgb(56,206,81);"/>
            <path d="M89,74L75,74L75,69L89,69L89,74ZM77,72L87,72L87,71L77,71L77,72Z" style="fill:rgb(56,206,81);fill-rule:nonzero;"/>
        </g>
        <g>
            <rect x="63" y="63" width="14" height="3" style="fill:rgb(56,206,81);"/>
            <path d="M78,67L62,67L62,62L78,62L78,67ZM64,65L76,65L76,64L64,64L64,65Z" style="fill:rgb(56,206,81);fill-rule:nonzero;"/>
        </g>
    </g>
</svg>
