<?xml version="1.0" encoding="UTF-8" standalone="no"?>
<!DOCTYPE svg PUBLIC "-//W3C//DTD SVG 1.1//EN" "http://www.w3.org/Graphics/SVG/1.1/DTD/svg11.dtd">
<svg width="100%" height="100%" viewBox="0 0 1808 1808" version="1.1" xmlns="http://www.w3.org/2000/svg" xmlns:xlink="http://www.w3.org/1999/xlink" xml:space="preserve" xmlns:serif="http://www.serif.com/" style="fill-rule:evenodd;clip-rule:evenodd;stroke-linejoin:round;stroke-miterlimit:2;">
    <g transform="matrix(4.15354,0,0,4.15354,0,-77.2673)">
        <path d="M0,235.534C0,115.862 97.01,18.852 216.683,18.852C336.355,18.852 433.365,115.862 433.365,235.534C433.365,355.207 336.355,452.216 216.683,452.216C97.01,452.216 0,355.207 0,235.534Z" style="fill-rule:nonzero;"/>
    </g>
    <g transform="matrix(1,0,0,1,-122.534,-54.3395)">
        <text x="289.228px" y="1303.12px" style="font-family:'HelveticaNeue-Bold', 'Helvetica Neue';font-weight:700;font-size:75px;fill:white;">VISUALPULSE</text>
    </g>
    <g>
        <g transform="matrix(4.15354,0,0,4.15354,0,-77.2673)">
            <path d="M39.789,297.851L46.146,297.851L46.146,278.041L52.826,278.041L52.826,273.433L46.146,273.433L46.146,271.544C46.146,269.332 46.652,268.642 49.556,268.642C50.752,268.642 52.135,268.733 52.826,268.827L52.826,264.219C51.351,264.127 49.878,264.033 47.113,264.033C40.479,264.033 39.789,267.583 39.789,270.3L39.789,273.433L34.766,273.433L34.766,278.041L39.789,278.041L39.789,297.851Z" style="fill:white;fill-rule:nonzero;"/>
        </g>
        <g transform="matrix(4.15354,0,0,4.15354,0,-77.2673)">
            <path d="M56.134,283.2C57.194,278.224 61.34,276.843 64.29,276.843C67.423,276.843 71.752,278.318 72.537,283.2L56.134,283.2ZM79.171,287.255L79.171,286.333C79.171,279.191 75.024,272.511 64.197,272.511C55.535,272.511 49.5,277.719 49.5,285.872C49.5,292.369 53.601,298.772 64.612,298.772C73.918,298.772 77.236,293.382 78.617,290.663L71.706,290.663C70.462,292.691 68.62,294.164 64.427,294.164C58.115,294.164 56.273,289.972 56.134,287.255L79.171,287.255Z" style="fill:white;"/>
        </g>
        <g transform="matrix(4.15354,0,0,4.15354,0,-77.2673)">
            <path d="M97.917,297.851L104.274,297.851L104.274,284.259C104.274,278.915 108.698,277.67 110.909,277.67C116.576,277.67 116.898,280.758 116.898,283.292L116.898,297.851L123.256,297.851L123.256,281.634C123.256,274.169 117.452,272.788 113.536,272.788C108.421,272.788 105.196,275.045 103.629,277.302C101.926,273.296 97.871,272.788 95.014,272.788C90.684,272.788 87.458,274.492 85.386,277.119L85.293,277.119L85.293,273.433L78.935,273.433L78.935,297.851L85.293,297.851L85.293,284.259C85.293,278.915 89.716,277.67 91.928,277.67C97.594,277.67 97.917,280.758 97.917,283.292L97.917,297.851Z" style="fill:white;fill-rule:nonzero;"/>
        </g>
        <g transform="matrix(4.15354,0,0,4.15354,0,-77.2673)">
            <path d="M143.667,288.037C143.667,293.428 137.907,294.717 134.499,294.717C132.333,294.717 129.384,294.118 129.384,290.894C129.384,288.822 130.535,287.76 135.327,287.209C139.843,286.702 141.824,286.471 143.667,285.688L143.667,288.037ZM150.025,280.712C150.025,277.533 149.655,272.511 136.893,272.511C129.66,272.511 124.916,274.492 123.995,280.897L130.213,280.897C130.444,278.178 132.701,276.843 136.893,276.843C140.58,276.843 143.804,277.533 143.804,280.344C143.804,282.233 142.837,282.555 133.714,283.431C129.66,283.799 122.751,284.398 122.751,291.124C122.751,295.915 126.344,298.772 132.701,298.772C139.843,298.772 142.928,296.606 144.172,295.408C144.358,296.33 144.817,298.541 148.963,298.541C151.129,298.541 152.236,298.219 153.479,297.99L153.479,293.519C152.973,293.613 152.005,293.658 151.406,293.658C150.992,293.658 150.025,293.613 150.025,292.277L150.025,280.712Z" style="fill:white;"/>
        </g>
        <g transform="matrix(4.15354,0,0,4.15354,0,-77.2673)">
            <rect x="151.813" y="264.404" width="6.358" height="33.447" style="fill:white;fill-rule:nonzero;"/>
        </g>
        <g transform="matrix(4.15354,0,0,4.15354,0,-77.2673)">
            <path d="M164.751,283.2C165.813,278.224 169.958,276.843 172.907,276.843C176.04,276.843 180.371,278.318 181.153,283.2L164.751,283.2ZM187.788,287.255L187.788,286.333C187.788,279.191 183.641,272.511 172.815,272.511C164.153,272.511 158.118,277.719 158.118,285.872C158.118,292.369 162.218,298.772 173.229,298.772C182.536,298.772 185.853,293.382 187.234,290.663L180.324,290.663C179.08,292.691 177.238,294.164 173.046,294.164C166.734,294.164 164.891,289.972 164.751,287.255L187.788,287.255Z" style="fill:white;"/>
        </g>
        <g transform="matrix(4.15354,0,0,4.15354,0,-77.2673)">
            <path d="M199.152,307.156L205.51,307.156L205.51,294.488L205.602,294.488C206.063,295.961 209.887,298.772 214.955,298.772C224.261,298.772 228.315,292 228.315,285.734C228.315,279.56 224.261,272.788 214.955,272.788C211.13,272.788 207.49,273.986 205.602,276.934L205.51,276.934L205.51,273.433L199.152,273.433L199.152,307.156ZM213.434,277.67C219.423,277.67 221.681,281.68 221.681,285.734C221.681,289.881 219.423,293.89 213.434,293.89C207.49,293.89 205.233,289.881 205.233,285.734C205.233,281.68 207.49,277.67 213.434,277.67Z" style="fill:white;"/>
        </g>
        <g transform="matrix(4.15354,0,0,4.15354,0,-77.2673)">
            <path d="M227.805,297.851L234.162,297.851L234.162,286.057C234.162,280.39 238.723,278.686 241.947,278.686C243.054,278.686 244.253,278.731 246.002,279.285L246.002,273.019C245.171,272.879 244.436,272.788 243.468,272.788C238.585,272.788 235.958,275.413 234.254,278.178L234.162,278.178L234.162,273.433L227.805,273.433L227.805,297.851Z" style="fill:white;fill-rule:nonzero;"/>
        </g>
        <g transform="matrix(4.15354,0,0,4.15354,0,-77.2673)">
            <path d="M250.376,283.2C251.436,278.224 255.582,276.843 258.528,276.843C261.661,276.843 265.994,278.318 266.776,283.2L250.376,283.2ZM273.41,287.255L273.41,286.333C273.41,279.191 269.264,272.511 258.437,272.511C249.777,272.511 243.742,277.719 243.742,285.872C243.742,292.369 247.84,298.772 258.851,298.772C268.16,298.772 271.476,293.382 272.857,290.663L265.946,290.663C264.704,292.691 262.861,294.164 258.669,294.164C252.357,294.164 250.514,289.972 250.376,287.255L273.41,287.255Z" style="fill:white;"/>
        </g>
        <g transform="matrix(4.15354,0,0,4.15354,0,-77.2673)">
            <path d="M271.933,290.203C272.164,297.667 280.411,298.772 285.615,298.772C293.171,298.772 299.116,296.652 299.116,290.434C299.116,284.767 293.862,283.982 285.846,282.832C279.717,281.956 279.121,281.634 279.121,279.653C279.121,278.364 281.055,276.843 284.648,276.843C286.814,276.843 291.051,277.256 291.56,280.897L298.194,280.897C297.823,273.064 288.749,272.511 284.97,272.511C280.87,272.511 272.763,273.433 272.763,280.39C272.763,285.965 276.724,286.839 284.28,287.854C291.143,288.773 292.204,289.421 292.204,291.307C292.204,293.613 288.749,294.44 285.57,294.44C283.267,294.44 279.027,293.89 278.844,290.203L271.933,290.203Z" style="fill:white;fill-rule:nonzero;"/>
        </g>
        <g transform="matrix(4.15354,0,0,4.15354,0,-77.2673)">
            <path d="M297.181,290.203C297.412,297.667 305.656,298.772 310.864,298.772C318.419,298.772 324.361,296.652 324.361,290.434C324.361,284.767 319.11,283.982 311.092,282.832C304.965,281.956 304.366,281.634 304.366,279.653C304.366,278.364 306.301,276.843 309.896,276.843C312.062,276.843 316.299,277.256 316.807,280.897L323.439,280.897C323.071,273.064 313.997,272.511 310.219,272.511C306.118,272.511 298.008,273.433 298.008,280.39C298.008,285.965 301.972,286.839 309.528,287.854C316.391,288.773 317.452,289.421 317.452,291.307C317.452,293.613 313.997,294.44 310.817,294.44C308.515,294.44 304.274,293.89 304.089,290.203L297.181,290.203Z" style="fill:white;fill-rule:nonzero;"/>
        </g>
        <g transform="matrix(4.15354,0,0,4.15354,0,-77.2673)">
            <path d="M323.673,289.743C323.673,296.883 328.787,298.772 334.037,298.772C338.368,298.772 341.593,297.068 343.667,294.44L343.759,294.44L343.759,297.851L350.116,297.851L350.116,273.433L343.759,273.433L343.759,286.839C343.759,292.046 339.15,293.89 336.34,293.89C330.904,293.89 330.028,291.079 330.028,287.346L330.028,273.433L323.673,273.433L323.673,289.743Z" style="fill:white;fill-rule:nonzero;"/>
        </g>
        <g transform="matrix(4.15354,0,0,4.15354,0,-77.2673)">
            <path d="M350.66,297.851L357.018,297.851L357.018,286.057C357.018,280.39 361.578,278.686 364.802,278.686C365.909,278.686 367.105,278.731 368.857,279.285L368.857,273.019C368.026,272.879 367.29,272.788 366.323,272.788C361.44,272.788 358.813,275.413 357.109,278.178L357.018,278.178L357.018,273.433L350.66,273.433L350.66,297.851Z" style="fill:white;fill-rule:nonzero;"/>
        </g>
        <g transform="matrix(4.15354,0,0,4.15354,0,-77.2673)">
            <path d="M373.229,283.2C374.291,278.224 378.437,276.843 381.384,276.843C384.518,276.843 388.849,278.318 389.631,283.2L373.229,283.2ZM396.266,287.255L396.266,286.333C396.266,279.191 392.119,272.511 381.293,272.511C372.632,272.511 366.597,277.719 366.597,285.872C366.597,292.369 370.695,298.772 381.707,298.772C391.015,298.772 394.331,293.382 395.712,290.663L388.803,290.663C387.559,292.691 385.716,294.164 381.524,294.164C375.212,294.164 373.369,289.972 373.229,287.255L396.266,287.255Z" style="fill:white;"/>
        </g>
        <g transform="matrix(4.15354,0,0,4.15354,0,-77.2673)">
            <path d="M312.288,263.137L307.093,259.361L301.896,263.137L303.881,257.028L298.686,253.255L305.107,253.255L307.093,247.146L309.079,253.255L315.5,253.255L310.305,257.031L312.288,263.137Z" style="fill:white;fill-rule:nonzero;"/>
        </g>
        <g transform="matrix(4.15354,0,0,4.15354,0,-77.2673)">
            <path d="M333.303,263.137L328.106,259.361L322.911,263.137L324.896,257.028L319.699,253.255L326.123,253.255L328.106,247.146L330.091,253.255L336.515,253.255L331.317,257.031L333.303,263.137Z" style="fill:white;fill-rule:nonzero;"/>
        </g>
        <g transform="matrix(4.15354,0,0,4.15354,0,-77.2673)">
            <path d="M354.316,263.137L349.121,259.361L343.926,263.137L345.909,257.028L340.714,253.255L347.136,253.255L349.121,247.146L351.107,253.255L357.528,253.255L352.333,257.031L354.316,263.137Z" style="fill:white;fill-rule:nonzero;"/>
        </g>
        <g transform="matrix(4.15354,0,0,4.15354,0,-77.2673)">
            <path d="M375.331,263.137L370.137,259.361L364.939,263.137L366.924,257.028L361.728,253.255L368.151,253.255L370.137,247.146L372.12,253.255L378.543,253.255L373.346,257.031L375.331,263.137Z" style="fill:white;fill-rule:nonzero;"/>
        </g>
        <g transform="matrix(4.15354,0,0,4.15354,0,-77.2673)">
            <path d="M396.347,263.137L391.149,259.361L385.955,263.137L387.938,257.028L382.743,253.255L389.164,253.255L391.149,247.146L393.135,253.255L399.559,253.255L394.361,257.031L396.347,263.137Z" style="fill:white;fill-rule:nonzero;"/>
        </g>
        <g transform="matrix(5.15093,0,0,5.15093,33.2817,53.7754)">
            <path d="M146.397,201.148L151.926,201.148L151.926,196.116L146.397,196.116L146.397,201.148ZM146.397,214.651L151.926,214.651L151.926,209.618L146.397,209.618L146.397,214.651Z" style="fill:white;"/>
        </g>
    </g>
</svg>
