<?xml version="1.0" encoding="UTF-8" standalone="no"?>
<!DOCTYPE svg PUBLIC "-//W3C//DTD SVG 1.1//EN" "http://www.w3.org/Graphics/SVG/1.1/DTD/svg11.dtd">
<svg width="100%" height="100%" viewBox="0 0 346 346" version="1.1" xmlns="http://www.w3.org/2000/svg" xmlns:xlink="http://www.w3.org/1999/xlink" xml:space="preserve" xmlns:serif="http://www.serif.com/" style="fill-rule:evenodd;clip-rule:evenodd;stroke-miterlimit:2;">
    <g transform="matrix(4.16667,0,0,4.16667,0,0)">
        <g transform="matrix(1.12104,0,0,1.12104,-4.88101,-5.15006)">
            <path d="M61.894,70.929L77.482,42.954C76.922,54.256 71.204,64.731 62.143,71.151C61.992,71.258 61.806,71.08 61.894,70.929Z" style="fill:rgb(237,170,31);fill-rule:nonzero;"/>
        </g>
        <g transform="matrix(1.12104,0,0,1.12104,-4.88101,-5.15006)">
            <path d="M60.703,70.564L60.534,31.279C60.534,31.083 60.738,30.968 60.907,31.065L76.878,40.971C77.162,41.149 77.26,41.514 77.1,41.807L61.032,70.644C60.943,70.795 60.703,70.742 60.703,70.564Z" style="fill:rgb(255,210,1);fill-rule:nonzero;"/>
        </g>
        <g transform="matrix(1.12104,0,0,1.12104,-4.88101,-5.15006)">
            <path d="M59.645,31.243L59.823,72.663C54.256,75.979 47.88,77.74 41.371,77.74C35.129,77.74 29.251,76.148 24.121,73.347L51.259,26.193C51.517,25.748 52.095,25.606 52.531,25.872L58.818,29.776C59.334,30.087 59.636,30.639 59.645,31.243Z" style="fill:rgb(237,170,31);fill-rule:nonzero;"/>
        </g>
        <g transform="matrix(1.12104,0,0,1.12104,-4.88101,-5.15006)">
            <path d="M59.627,28.736C59.636,28.949 59.396,29.082 59.209,28.967L52.931,25.072C52.513,24.814 52.371,24.263 52.62,23.836L59.156,12.481C59.262,12.294 59.556,12.365 59.556,12.588L59.627,28.736Z" style="fill:rgb(255,210,1);fill-rule:nonzero;"/>
        </g>
        <g transform="matrix(1.12104,0,0,1.12104,-4.88101,-5.15006)">
            <path d="M59.645,31.243C59.636,30.639 59.334,30.087 58.818,29.776L52.531,25.872C52.095,25.606 51.517,25.748 51.259,26.193L24.121,73.347C29.251,76.148 35.129,77.74 41.371,77.74C47.88,77.74 54.256,75.979 59.823,72.663L59.645,31.243ZM59.627,28.736L59.556,12.588C59.556,12.365 59.262,12.294 59.156,12.481L52.62,23.836C52.371,24.263 52.513,24.814 52.931,25.072L59.209,28.967C59.396,29.082 59.636,28.949 59.627,28.736ZM60.436,10.133L60.525,29.785L78.22,40.758C78.354,40.838 78.416,40.989 78.416,41.131L78.425,41.131C78.425,54.309 71.542,66.643 60.463,73.33C54.718,76.798 48.112,78.629 41.371,78.629C20.955,78.629 4.354,62.019 4.354,41.611C4.354,21.204 20.955,4.594 41.371,4.594C48.014,4.594 54.532,6.381 60.223,9.751L60.205,9.769C60.338,9.849 60.436,9.973 60.436,10.133ZM61.894,70.929C61.806,71.08 61.992,71.258 62.143,71.151C71.204,64.731 76.922,54.256 77.482,42.954L61.894,70.929ZM77.1,41.807C77.26,41.514 77.162,41.149 76.878,40.971L60.907,31.065C60.738,30.968 60.534,31.083 60.534,31.279L60.703,70.564C60.703,70.742 60.943,70.795 61.032,70.644L77.1,41.807Z" style="fill:rgb(255,199,8);fill-rule:nonzero;"/>
        </g>
        <g transform="matrix(1.12104,0,0,1.12104,-4.88101,-5.15006)">
            <path d="M78.416,41.131C78.416,40.989 78.354,40.838 78.22,40.758L60.525,29.785L60.436,10.133C60.436,9.973 60.338,9.849 60.205,9.769L60.223,9.751C54.532,6.381 48.014,4.594 41.371,4.594C20.955,4.594 4.354,21.204 4.354,41.611C4.354,62.019 20.955,78.629 41.371,78.629C48.112,78.629 54.718,76.798 60.463,73.33C71.542,66.643 78.425,54.309 78.425,41.131L78.416,41.131Z" style="fill:none;stroke:white;stroke-width:1px;"/>
        </g>
        <g transform="matrix(1.12104,0,0,1.12104,-4.88101,-5.15006)">
            <path d="M59.378,10.302L23.347,72.903C12.534,66.652 5.243,54.976 5.243,41.611C5.243,21.693 21.453,5.483 41.371,5.483C47.712,5.483 53.918,7.154 59.378,10.302Z" style="fill:rgb(255,210,1);fill-rule:nonzero;"/>
        </g>
        <g transform="matrix(1.12104,0,0,1.12104,-4.88101,-5.15006)">
            <path d="M12.971,39.121C12.925,39.013 12.862,38.919 12.781,38.839C12.701,38.759 12.607,38.696 12.499,38.65C12.391,38.603 12.279,38.58 12.161,38.58L10.56,38.58L10.56,40.338L12.161,40.338C12.279,40.338 12.391,40.315 12.499,40.269C12.607,40.223 12.701,40.159 12.781,40.079C12.862,39.999 12.925,39.906 12.971,39.801C13.017,39.697 13.041,39.584 13.041,39.464C13.041,39.343 13.017,39.229 12.971,39.121ZM10.56,44.502L9.357,44.502L9.357,37.377L12.161,37.377C12.445,37.377 12.714,37.431 12.966,37.539C13.219,37.647 13.441,37.797 13.633,37.988C13.824,38.179 13.974,38.401 14.081,38.654C14.189,38.907 14.243,39.163 14.243,39.422C14.243,39.681 14.206,39.919 14.133,40.135C14.058,40.351 13.953,40.546 13.818,40.722C13.682,40.898 13.52,41.051 13.332,41.18C13.144,41.31 12.935,41.405 12.707,41.467L14.29,44.502L12.902,44.502L11.486,41.541L10.56,41.541L10.56,44.502Z" style="fill:white;fill-rule:nonzero;"/>
        </g>
        <g transform="matrix(1.12104,0,0,1.12104,-4.88101,-5.15006)">
            <path d="M23.207,39.996C23.081,39.7 22.907,39.441 22.685,39.219C22.462,38.996 22.204,38.822 21.907,38.696C21.611,38.569 21.297,38.506 20.964,38.506C20.631,38.506 20.316,38.569 20.02,38.696C19.724,38.822 19.464,38.996 19.242,39.219C19.02,39.441 18.846,39.7 18.72,39.996C18.593,40.292 18.53,40.606 18.53,40.94C18.53,41.273 18.593,41.588 18.72,41.884C18.846,42.18 19.02,42.439 19.242,42.661C19.464,42.883 19.724,43.057 20.02,43.184C20.316,43.31 20.631,43.373 20.964,43.373C21.297,43.373 21.611,43.31 21.907,43.184C22.204,43.057 22.462,42.883 22.685,42.661C22.907,42.439 23.081,42.18 23.207,41.884C23.334,41.588 23.397,41.273 23.397,40.94C23.397,40.606 23.334,40.292 23.207,39.996ZM24.332,42.365C24.14,42.809 23.88,43.196 23.55,43.526C23.22,43.856 22.833,44.117 22.389,44.308C21.944,44.499 21.469,44.595 20.964,44.595C20.458,44.595 19.983,44.499 19.539,44.308C19.094,44.117 18.707,43.856 18.377,43.526C18.047,43.196 17.787,42.809 17.595,42.365C17.404,41.921 17.308,41.446 17.308,40.94C17.308,40.434 17.404,39.959 17.595,39.515C17.787,39.071 18.047,38.683 18.377,38.353C18.707,38.023 19.094,37.762 19.539,37.571C19.983,37.38 20.458,37.284 20.964,37.284C21.469,37.284 21.944,37.38 22.389,37.571C22.833,37.762 23.22,38.023 23.55,38.353C23.88,38.683 24.14,39.071 24.332,39.515C24.523,39.959 24.619,40.434 24.619,40.94C24.619,41.446 24.523,41.921 24.332,42.365Z" style="fill:white;fill-rule:nonzero;"/>
        </g>
        <g transform="matrix(1.12104,0,0,1.12104,-4.88101,-5.15006)">
            <path d="M31.595,43.781C31.394,44.052 31.145,44.256 30.846,44.391C30.546,44.527 30.221,44.595 29.869,44.595C29.517,44.595 29.192,44.525 28.893,44.387C28.594,44.248 28.344,44.043 28.143,43.771C27.943,43.5 27.843,43.161 27.843,42.753L27.843,41.782L29.045,41.782L29.045,42.753C29.045,42.901 29.086,43.025 29.166,43.123C29.246,43.222 29.348,43.296 29.471,43.346C29.595,43.395 29.727,43.419 29.869,43.419C30.011,43.419 30.144,43.395 30.267,43.346C30.391,43.296 30.492,43.222 30.573,43.123C30.653,43.025 30.693,42.901 30.693,42.753L30.693,37.377L31.896,37.377L31.896,42.753C31.896,43.167 31.796,43.509 31.595,43.781Z" style="fill:white;fill-rule:nonzero;"/>
        </g>
        <g transform="matrix(1.12104,0,0,1.12104,-4.88101,-5.15006)">
            <path d="M38.088,40.098L37.219,42.097L38.958,42.097L38.088,40.098ZM40.489,44.502L40.013,44.502L39.486,43.299L36.691,43.299L36.164,44.502L34.85,44.502L38.088,37.099L40.937,43.609" style="fill:white;fill-rule:nonzero;"/>
        </g>
        <g transform="matrix(1.12104,0,0,1.12104,-4.88101,-5.15006)">
            <path d="M44.354,37.377L46.279,41.782L48.203,37.377L49.518,37.377L46.279,44.78L43.623,38.709" style="fill:white;fill-rule:nonzero;"/>
        </g>
        <g transform="matrix(1.12104,0,0,1.12104,-4.88101,-5.15006)">
            <path d="M54.469,40.098L53.599,42.097L55.339,42.097L54.469,40.098ZM56.394,44.502L55.866,43.299L53.072,43.299L52.544,44.502L51.23,44.502L54.469,37.099L57.708,44.502L56.394,44.502Z" style="fill:white;fill-rule:nonzero;"/>
        </g>
        <g transform="matrix(1.12104,0,0,1.12104,-4.88101,-5.15006)">
            <path d="M62.141,71.151C61.994,71.255 61.803,71.082 61.891,70.925L77.479,42.95C76.922,54.254 71.208,64.734 62.141,71.151ZM60.706,70.56L60.532,31.276C60.532,31.083 60.743,30.964 60.907,31.066L76.881,40.973C77.165,41.149 77.26,41.517 77.098,41.809L61.03,70.643C60.944,70.799 60.707,70.738 60.706,70.56ZM41.37,77.737C35.127,77.737 29.25,76.144 24.121,73.345L40.935,44.023L40.485,43.021L23.35,72.902C12.539,66.652 5.244,54.971 5.244,41.611C5.244,21.691 21.45,5.485 41.37,5.485C47.709,5.485 53.923,7.157 59.382,10.304L43.372,37.901L43.871,38.816L51.262,26.193C51.519,25.746 52.095,25.601 52.533,25.873L58.823,29.773C59.33,30.088 59.64,30.642 59.643,31.239L59.827,72.665C54.26,75.98 47.885,77.737 41.37,77.737ZM59.56,12.59L59.632,28.735C59.633,28.95 59.396,29.083 59.213,28.969L52.931,25.073C52.511,24.812 52.373,24.264 52.62,23.835L59.154,12.482C59.265,12.29 59.559,12.367 59.56,12.59ZM78.421,41.133C78.42,40.985 78.352,40.839 78.217,40.756L60.525,29.783L60.438,10.13C60.438,9.972 60.339,9.848 60.209,9.769L60.22,9.75C54.534,6.378 48.015,4.596 41.37,4.596C20.96,4.596 4.355,21.201 4.355,41.611C4.355,62.021 20.96,78.626 41.37,78.626C48.114,78.626 54.717,76.794 60.461,73.329C71.543,66.644 78.428,54.307 78.428,41.133L78.421,41.133Z" style="fill:white;fill-rule:nonzero;"/>
        </g>
        <g transform="matrix(1.12104,0,0,1.12104,-4.88101,-5.15006)">
            <path d="M62.141,71.151C61.994,71.255 61.803,71.082 61.891,70.925L77.479,42.95C76.922,54.254 71.208,64.734 62.141,71.151ZM60.706,70.56L60.532,31.276C60.532,31.083 60.743,30.964 60.907,31.066L76.881,40.973C77.165,41.149 77.26,41.517 77.098,41.809L61.03,70.643C60.944,70.799 60.707,70.738 60.706,70.56ZM41.37,77.737C35.127,77.737 29.25,76.144 24.121,73.345L40.935,44.023L40.485,43.021L23.35,72.902C12.539,66.652 5.244,54.971 5.244,41.611C5.244,21.691 21.45,5.485 41.37,5.485C47.709,5.485 53.923,7.157 59.382,10.304L43.372,37.901L43.871,38.816L51.262,26.193C51.519,25.746 52.095,25.601 52.533,25.873L58.823,29.773C59.33,30.088 59.64,30.642 59.643,31.239L59.827,72.665C54.26,75.98 47.885,77.737 41.37,77.737ZM59.56,12.59L59.632,28.735C59.633,28.95 59.396,29.083 59.213,28.969L52.931,25.073C52.511,24.812 52.373,24.264 52.62,23.835L59.154,12.482C59.265,12.29 59.559,12.367 59.56,12.59ZM78.421,41.133C78.42,40.985 78.352,40.839 78.217,40.756L60.525,29.783L60.438,10.13C60.438,9.972 60.339,9.848 60.209,9.769L60.22,9.75C54.534,6.378 48.015,4.596 41.37,4.596C20.96,4.596 4.355,21.201 4.355,41.611C4.355,62.021 20.96,78.626 41.37,78.626C48.114,78.626 54.717,76.794 60.461,73.329C71.543,66.644 78.428,54.307 78.428,41.133L78.421,41.133Z" style="fill:none;stroke:white;stroke-width:0.6px;"/>
        </g>
    </g>
</svg>
