<?xml version="1.0" encoding="UTF-8" standalone="no"?>
<!DOCTYPE svg PUBLIC "-//W3C//DTD SVG 1.1//EN" "http://www.w3.org/Graphics/SVG/1.1/DTD/svg11.dtd">
<svg width="100%" height="100%" viewBox="0 0 102 96" version="1.1" xmlns="http://www.w3.org/2000/svg" xmlns:xlink="http://www.w3.org/1999/xlink" xml:space="preserve" xmlns:serif="http://www.serif.com/" style="fill-rule:evenodd;clip-rule:evenodd;stroke-linejoin:round;stroke-miterlimit:2;">
    <g transform="matrix(1.02772,0,0,1.02772,0,-4.14145)">
        <path d="M58.545,53.82L75.933,78.822L72.738,89.415C70.254,91.584 58.662,96.912 46.512,97.056C21.627,97.353 0,76.239 0,50.553C0,24.858 20.826,4.266 46.512,4.032C61.524,3.897 71.847,9.864 78.921,16.479C86.058,23.148 89.478,30.447 89.478,30.447L86.652,42.03L58.545,53.82Z" style="fill:rgb(243,245,199);fill-rule:nonzero;"/>
        <path d="M71.784,62.595L76.095,78.822L71.451,87.066C69.147,89.082 58.473,93.951 47.178,94.077C24.057,94.365 3.834,74.709 3.834,50.85C3.834,26.982 23.562,7.776 47.421,7.794C63.099,7.812 74.682,15.471 82.035,24.561C91.494,36.243 91.125,49.509 91.125,49.509L86.958,55.836L71.784,62.595Z" style="fill:rgb(33,179,75);fill-rule:nonzero;"/>
        <path d="M47.223,91.053C25.083,91.053 7.146,73.107 7.146,50.967C7.146,28.827 25.083,10.881 47.223,10.881C63.175,10.881 76.954,20.199 83.41,33.688L55.121,46.983C53.636,44.121 50.651,42.165 47.205,42.165C42.273,42.165 38.268,46.17 38.268,51.102C38.268,56.025 42.273,60.03 47.205,60.03C48.993,60.03 50.656,59.504 52.051,58.598L56.809,65.674L69.189,84.506C62.879,88.646 55.332,91.053 47.223,91.053Z" style="fill:rgb(109,190,68);fill-rule:nonzero;"/>
        <path d="M91.121,48.864C91.077,47.062 90.73,41.689 88.276,35.373L89.008,32.372C89.733,33.87 91.259,37.233 91.854,40.149C92.47,43.169 92.844,46.919 93.004,48.774L91.121,48.864Z" style="fill:rgb(222,228,91);fill-rule:nonzero;"/>
        <path d="M88.276,35.373C87.914,34.442 87.506,33.491 87.047,32.527L88.7,31.75C88.768,31.885 88.874,32.097 89.008,32.372L88.276,35.373Z" style="fill:rgb(218,226,76);fill-rule:nonzero;"/>
        <path d="M87.272,49.048C87.022,43.742 85.74,38.707 83.622,34.136L87.047,32.527C87.506,33.491 87.914,34.442 88.276,35.373C90.73,41.689 91.077,47.062 91.121,48.864L87.272,49.048Z" style="fill:rgb(162,205,57);fill-rule:nonzero;"/>
        <path d="M56.106,50.542C56.037,49.439 55.77,48.389 55.338,47.43L83.622,34.136C85.74,38.707 87.022,43.742 87.272,49.048L56.106,50.542Z" style="fill:rgb(184,213,50);fill-rule:nonzero;"/>
        <path d="M56.124,51.102C56.124,56.025 52.137,60.03 47.205,60.03C42.273,60.03 38.268,56.025 38.268,51.102C38.268,46.17 42.273,42.165 47.205,42.165C52.137,42.165 56.124,46.17 56.124,51.102Z" style="fill:rgb(237,61,149);fill-rule:nonzero;"/>
        <clipPath id="_clip1">
            <path d="M56.286,51.102C56.286,56.025 52.29,60.021 47.358,60.021C42.426,60.021 38.43,56.025 38.43,51.102C38.43,46.17 42.426,42.165 47.358,42.165C52.29,42.165 56.286,46.17 56.286,51.102Z"/>
        </clipPath>
        <g clip-path="url(#_clip1)">
            <path d="M47.124,50.94L72.117,88.974C72.117,88.974 81.648,84.519 87.957,71.901C93.861,60.102 93.393,50.787 93.393,50.787L47.124,50.94Z" style="fill:white;fill-rule:nonzero;"/>
        </g>
        <path d="M49.419,51.102C49.419,52.326 48.429,53.316 47.205,53.316C45.972,53.316 44.982,52.326 44.982,51.102C44.982,49.869 45.972,48.879 47.205,48.879C48.429,48.879 49.419,49.869 49.419,51.102Z" style="fill:rgb(245,237,79);fill-rule:nonzero;"/>
        <path d="M71.973,88.74L71.071,87.369C71.148,87.312 71.219,87.257 71.286,87.204L72.232,88.61C72.063,88.698 71.973,88.74 71.973,88.74Z" style="fill:rgb(214,236,218);fill-rule:nonzero;"/>
        <path d="M71.071,87.369L69.189,84.506C69.254,84.464 69.32,84.42 69.385,84.376L71.286,87.204C71.219,87.257 71.148,87.312 71.071,87.369Z" style="fill:rgb(138,203,149);fill-rule:nonzero;"/>
        <path d="M69.189,84.506L56.809,65.674L69.385,84.376C69.32,84.42 69.254,84.464 69.189,84.506Z" style="fill:rgb(167,213,158);fill-rule:nonzero;"/>
        <path d="M73.133,88.104L75.746,79.441L76.095,78.822L76.086,78.789C82.007,72.651 85.987,64.631 87.039,55.713L90.257,50.826L93.087,50.817C93.103,51.171 93.437,60.184 87.642,71.739C82.68,81.669 75.833,86.495 73.133,88.104Z" style="fill:rgb(219,240,239);fill-rule:nonzero;"/>
        <path d="M72.674,88.37L71.609,86.785L75.746,79.441L73.133,88.104C72.963,88.205 72.81,88.293 72.674,88.37Z" style="fill:rgb(214,236,218);fill-rule:nonzero;"/>
        <path d="M71.609,86.785L69.801,84.096C72.076,82.544 74.181,80.764 76.086,78.789L76.095,78.822L75.746,79.441L71.609,86.785ZM87.039,55.713C87.222,54.157 87.318,52.573 87.318,50.967C87.318,50.923 87.317,50.88 87.317,50.836L90.257,50.826L87.039,55.713Z" style="fill:rgb(138,203,149);fill-rule:nonzero;"/>
        <path d="M76.086,78.789L71.784,62.595L86.958,55.836L87.039,55.713C85.987,64.631 82.007,72.651 76.086,78.789Z" style="fill:rgb(210,232,202);fill-rule:nonzero;"/>
        <path d="M69.801,84.096L52.517,58.381C53.695,57.547 54.66,56.435 55.319,55.141L71.676,62.82L71.784,62.595L76.086,78.789C74.181,80.764 72.076,82.544 69.801,84.096ZM71.784,62.595L71.892,62.37L55.534,54.687C56.017,53.59 56.286,52.377 56.286,51.102C56.286,51.047 56.284,50.993 56.283,50.938L87.317,50.836C87.317,50.88 87.318,50.923 87.318,50.967C87.318,52.573 87.222,54.157 87.039,55.713L86.958,55.836L71.784,62.595Z" style="fill:rgb(167,213,158);fill-rule:nonzero;"/>
        <path d="M52.517,58.381L48.714,52.723C48.869,52.578 49.004,52.411 49.113,52.226L55.319,55.141C54.66,56.435 53.695,57.547 52.517,58.381ZM55.534,54.687L49.317,51.767C49.383,51.557 49.419,51.334 49.419,51.102C49.419,51.055 49.417,51.007 49.414,50.96L56.283,50.938C56.284,50.993 56.286,51.047 56.286,51.102C56.286,52.377 56.017,53.59 55.534,54.687Z" style="fill:rgb(219,240,239);fill-rule:nonzero;"/>
        <path d="M48.714,52.723L48.042,51.724L49.113,52.226C49.004,52.411 48.869,52.578 48.714,52.723ZM49.317,51.767L47.714,51.013L47.815,50.965L49.414,50.96C49.417,51.007 49.419,51.055 49.419,51.102C49.419,51.334 49.383,51.557 49.317,51.767ZM47.611,51.082L47.601,51.066L47.623,51.056L47.611,51.082Z" style="fill:rgb(216,232,177);fill-rule:nonzero;"/>
        <path d="M78.057,97.272L72.749,89.379L72.936,88.759L78.471,96.993L78.057,97.272Z" style="fill:rgb(226,218,218);fill-rule:nonzero;"/>
        <path d="M72.749,89.379L72.232,88.61C72.345,88.551 72.494,88.471 72.674,88.37L72.936,88.759L72.749,89.379Z" style="fill:rgb(218,210,172);fill-rule:nonzero;"/>
        <path d="M56.809,65.674L52.051,58.598C52.075,58.582 52.1,58.566 52.124,58.55L52.168,58.617L52.169,58.616L56.809,65.674Z" style="fill:rgb(101,175,69);fill-rule:nonzero;"/>
        <path d="M52.051,58.598L48.303,53.025C48.349,52.998 48.395,52.971 48.438,52.942L52.124,58.55C52.1,58.566 52.075,58.582 52.051,58.598Z" style="fill:rgb(214,59,131);fill-rule:nonzero;"/>
        <path d="M52.168,58.617L52.124,58.55L48.438,52.942L48.439,52.941L52.169,58.616L52.168,58.617Z" style="fill:rgb(226,218,218);fill-rule:nonzero;"/>
        <path d="M89.219,31.505L89.37,30.887L95.706,27.909L95.913,28.359L89.219,31.505Z" style="fill:rgb(226,218,218);fill-rule:nonzero;"/>
        <path d="M86.964,32.354C86.92,32.262 86.876,32.172 86.831,32.08L89.37,30.887L89.219,31.505L88.7,31.75C88.644,31.64 88.614,31.581 88.614,31.581L86.964,32.354Z" style="fill:rgb(218,210,172);fill-rule:nonzero;"/>
        <path d="M83.539,33.958C83.496,33.868 83.454,33.778 83.41,33.688L86.831,32.08C86.876,32.172 86.92,32.262 86.964,32.354L83.539,33.958Z" style="fill:rgb(29,164,73);fill-rule:nonzero;"/>
        <path d="M55.237,47.214C55.2,47.136 55.161,47.059 55.121,46.983L83.41,33.688C83.454,33.778 83.496,33.868 83.539,33.958L55.237,47.214Z" style="fill:rgb(101,175,69);fill-rule:nonzero;"/>
        <path d="M87.047,32.527C87.02,32.47 86.991,32.411 86.964,32.354L88.614,31.581C88.614,31.581 88.644,31.64 88.7,31.75L87.047,32.527Z" style="fill:rgb(197,195,70);fill-rule:nonzero;"/>
        <path d="M83.622,34.136C83.594,34.078 83.566,34.017 83.539,33.958L86.964,32.354C86.991,32.411 87.02,32.47 87.047,32.527L83.622,34.136Z" style="fill:rgb(151,184,60);fill-rule:nonzero;"/>
        <path d="M55.338,47.43C55.305,47.357 55.272,47.285 55.237,47.214L83.539,33.958C83.566,34.017 83.594,34.078 83.622,34.136L55.338,47.43Z" style="fill:rgb(170,186,56);fill-rule:nonzero;"/>
        <path d="M49.264,50.285C49.203,50.128 49.125,49.981 49.032,49.845L55.121,46.983C55.161,47.059 55.2,47.136 55.237,47.214C55.272,47.285 55.305,47.357 55.338,47.43L49.264,50.285Z" style="fill:rgb(214,59,131);fill-rule:nonzero;"/>
        <path d="M48.303,53.025L46.854,50.868L49.032,49.845C49.125,49.981 49.203,50.128 49.264,50.285L47.878,50.936L47.829,50.938L47.124,50.94L47.451,51.438L47.448,51.444L47.458,51.449L48.439,52.941L48.438,52.942C48.395,52.971 48.349,52.998 48.303,53.025Z" style="fill:rgb(221,204,71);fill-rule:nonzero;"/>
        <path d="M72.232,88.61L71.286,87.204C71.345,87.157 71.4,87.111 71.451,87.066L71.609,86.785L72.674,88.37C72.494,88.471 72.345,88.551 72.232,88.61Z" style="fill:rgb(193,202,188);fill-rule:nonzero;"/>
        <path d="M71.286,87.204L69.385,84.376C69.524,84.284 69.663,84.19 69.801,84.096L71.609,86.785L71.451,87.066C71.4,87.111 71.345,87.157 71.286,87.204Z" style="fill:rgb(126,187,135);fill-rule:nonzero;"/>
        <path d="M69.385,84.376L56.809,65.674L52.169,58.616C52.287,58.541 52.403,58.462 52.517,58.381L69.801,84.096C69.663,84.19 69.524,84.284 69.385,84.376Z" style="fill:rgb(154,191,140);fill-rule:nonzero;"/>
        <path d="M52.169,58.616L48.439,52.941C48.536,52.876 48.628,52.802 48.714,52.723L52.517,58.381C52.403,58.462 52.287,58.541 52.169,58.616Z" style="fill:rgb(198,205,204);fill-rule:nonzero;"/>
        <path d="M48.439,52.941L47.458,51.449L48.042,51.724L48.714,52.723C48.628,52.802 48.536,52.876 48.439,52.941ZM47.451,51.438L47.124,50.94L47.829,50.938L47.223,50.967L47.815,50.965L47.714,51.013L47.655,50.985L47.623,51.056L47.601,51.066L47.611,51.082L47.451,51.438Z" style="fill:rgb(195,200,153);fill-rule:nonzero;"/>
        <path d="M47.223,50.967L99.063,48.483C99.324,49.437 99.234,50.796 99.234,50.796L47.223,50.967Z" style="fill:rgb(237,61,149);fill-rule:nonzero;"/>
        <path d="M71.676,62.82L55.319,55.141C55.395,54.992 55.467,54.84 55.534,54.687L71.892,62.37L71.676,62.82Z" style="fill:rgb(145,170,106);fill-rule:nonzero;"/>
        <path d="M55.319,55.141L49.113,52.226C49.197,52.083 49.267,51.929 49.317,51.767L55.534,54.687C55.467,54.84 55.395,54.992 55.319,55.141Z" style="fill:rgb(175,181,150);fill-rule:nonzero;"/>
        <path d="M49.113,52.226L48.042,51.724L47.611,51.082L47.623,51.056L47.714,51.013L49.317,51.767C49.267,51.929 49.197,52.083 49.113,52.226Z" style="fill:rgb(174,178,116);fill-rule:nonzero;"/>
        <path d="M47.458,51.449L47.448,51.444L47.451,51.438L47.458,51.449Z" style="fill:rgb(176,161,56);fill-rule:nonzero;"/>
        <path d="M48.042,51.724L47.458,51.449L47.451,51.438L47.611,51.082L48.042,51.724ZM47.623,51.056L47.655,50.985L47.714,51.013L47.623,51.056Z" style="fill:rgb(163,161,104);fill-rule:nonzero;"/>
        <path d="M75.995,88.533L76.07,88.633C82.201,84.037 86.203,80.339 90.191,72.667C93.814,65.697 95.105,56.713 95.106,52.707L95.106,52.584L49.148,51.964L75.968,88.709L76.07,88.633L75.995,88.533L76.096,88.459L49.644,52.221L94.979,52.832L94.981,52.707L94.856,52.707C94.857,56.667 93.566,65.64 89.97,72.552C85.995,80.191 82.043,83.84 75.92,88.433L75.995,88.533L76.096,88.459L75.995,88.533Z" style="fill:rgb(122,111,44);fill-rule:nonzero;"/>
        <path d="M14.621,27.013L27.474,27.013L27.474,28.104L15.889,28.104L15.889,36.301L26.325,36.301L26.325,37.394L15.889,37.394L15.889,47.489L14.621,47.489L14.621,27.013Z" style="fill:white;fill-rule:nonzero;"/>
        <path d="M43.445,39.832L39.056,28.245L39,28.245L34.441,39.832L43.445,39.832ZM38.31,27.013L39.687,27.013L47.775,47.489L46.425,47.489L43.845,40.919L34.033,40.919L31.425,47.489L30.082,47.489L38.31,27.013Z" style="fill:white;fill-rule:nonzero;"/>
        <path d="M10.084,63.905C10.084,62.413 10.304,61.014 10.748,59.703C11.182,58.391 11.822,57.257 12.649,56.291C13.483,55.326 14.514,54.562 15.725,54.008C16.936,53.455 18.307,53.175 19.831,53.175C21.04,53.175 22.085,53.333 22.964,53.65C23.839,53.965 24.582,54.359 25.181,54.828C25.788,55.294 26.279,55.808 26.666,56.36C27.043,56.915 27.337,57.434 27.535,57.923C27.734,58.41 27.871,58.833 27.953,59.185C28.025,59.54 28.066,59.736 28.066,59.77L26.806,59.77C26.673,58.912 26.394,58.143 25.97,57.466C25.556,56.787 25.025,56.209 24.394,55.731C23.765,55.252 23.064,54.888 22.29,54.64C21.51,54.394 20.698,54.27 19.831,54.27C18.497,54.27 17.302,54.525 16.252,55.043C15.201,55.556 14.309,56.251 13.584,57.122C12.856,57.99 12.302,59.009 11.924,60.175C11.537,61.342 11.343,62.585 11.343,63.905C11.343,65.222 11.537,66.466 11.924,67.634C12.302,68.799 12.856,69.816 13.584,70.684C14.309,71.556 15.201,72.253 16.252,72.765C17.302,73.281 18.497,73.542 19.831,73.542C20.83,73.542 21.765,73.334 22.632,72.926C23.501,72.511 24.263,71.967 24.912,71.287C25.561,70.611 26.081,69.826 26.476,68.935C26.869,68.049 27.087,67.122 27.151,66.169L28.41,66.169C28.293,67.394 27.995,68.52 27.505,69.557C27.018,70.585 26.397,71.481 25.646,72.236C24.889,72.99 24.015,73.581 23.017,74.001C22.022,74.415 20.963,74.631 19.831,74.631C18.307,74.631 16.936,74.354 15.725,73.801C14.514,73.24 13.483,72.484 12.649,71.517C11.822,70.552 11.182,69.417 10.748,68.102C10.304,66.797 10.084,65.395 10.084,63.905Z" style="fill:white;fill-rule:nonzero;"/>
        <path d="M30.861,56.049L30.861,54.961L46.55,54.961L46.55,56.049L39.32,56.049L39.32,75.433L38.058,75.433L38.058,56.049L30.861,56.049Z" style="fill:white;fill-rule:nonzero;"/>
        <path d="M64.222,60.894C64.184,59.999 63.992,59.216 63.647,58.551C63.31,57.881 62.845,57.327 62.255,56.877C61.672,56.428 60.973,56.095 60.162,55.867C59.351,55.641 58.468,55.533 57.509,55.533C56.923,55.533 56.293,55.601 55.62,55.74C54.946,55.875 54.322,56.116 53.747,56.457C53.172,56.796 52.696,57.253 52.326,57.832C51.954,58.41 51.77,59.125 51.77,59.983C51.77,60.827 51.973,61.508 52.388,62.04C52.796,62.564 53.332,62.987 53.995,63.308C54.661,63.632 55.42,63.893 56.281,64.085C57.139,64.283 58.01,64.466 58.888,64.641C59.784,64.82 60.66,65.031 61.514,65.271C62.359,65.519 63.124,65.852 63.794,66.271C64.468,66.693 65.015,67.233 65.421,67.91C65.833,68.588 66.04,69.431 66.04,70.444C66.04,71.537 65.803,72.461 65.335,73.201C64.866,73.939 64.275,74.543 63.56,75.016C62.853,75.488 62.058,75.823 61.192,76.028C60.32,76.227 59.485,76.338 58.685,76.338C57.455,76.338 56.294,76.205 55.224,75.943C54.151,75.681 53.215,75.249 52.416,74.654C51.611,74.055 50.982,73.289 50.525,72.345C50.064,71.413 49.843,70.27 49.861,68.923L51.154,68.923C51.097,70.072 51.266,71.046 51.654,71.837C52.043,72.629 52.585,73.279 53.278,73.787C53.971,74.291 54.785,74.658 55.726,74.883C56.667,75.11 57.646,75.222 58.685,75.222C59.307,75.222 59.975,75.146 60.696,74.984C61.403,74.832 62.058,74.563 62.655,74.195C63.248,73.827 63.75,73.334 64.149,72.73C64.546,72.122 64.752,71.367 64.752,70.444C64.752,69.568 64.546,68.847 64.129,68.293C63.718,67.734 63.182,67.284 62.507,66.943C61.835,66.604 61.064,66.329 60.221,66.125C59.373,65.921 58.497,65.731 57.596,65.554C56.718,65.378 55.852,65.172 54.994,64.94C54.131,64.704 53.371,64.384 52.704,63.985C52.043,63.583 51.504,63.072 51.097,62.434C50.681,61.795 50.483,60.982 50.483,59.983C50.483,58.99 50.689,58.137 51.103,57.424C51.53,56.708 52.074,56.135 52.752,55.696C53.426,55.252 54.18,54.933 55.021,54.729C55.86,54.522 56.687,54.416 57.509,54.416C58.606,54.416 59.625,54.542 60.574,54.787C61.52,55.027 62.347,55.411 63.064,55.932C63.779,56.448 64.348,57.113 64.781,57.937C65.207,58.761 65.453,59.739 65.509,60.894L64.222,60.894Z" style="fill:white;fill-rule:nonzero;"/>
    </g>
</svg>
