<?xml version="1.0" encoding="UTF-8" standalone="no"?>
<!DOCTYPE svg PUBLIC "-//W3C//DTD SVG 1.1//EN" "http://www.w3.org/Graphics/SVG/1.1/DTD/svg11.dtd">
<svg width="100%" height="100%" viewBox="0 0 1000 1000" version="1.1" xmlns="http://www.w3.org/2000/svg" xmlns:xlink="http://www.w3.org/1999/xlink" xml:space="preserve" xmlns:serif="http://www.serif.com/" style="fill-rule:evenodd;clip-rule:evenodd;stroke-linejoin:round;stroke-miterlimit:2;">
    <g transform="matrix(2.35591,0,0,2.35591,-34.2525,-34.2549)">
        <g>
            <g>
                <path d="M14.539,226.772C14.539,109.558 109.557,14.54 226.771,14.54C343.989,14.54 439.004,109.558 439.004,226.772C439.004,343.988 343.988,439.003 226.771,439.003C117.556,439.003 14.539,343.99 14.539,226.772Z" style="fill:rgb(24,30,48);fill-rule:nonzero;"/>
            </g>
        </g>
        <path d="M399.629,158.732C399.139,151.318 394.761,145.86 389.093,141.666C386.04,139.404 384.932,136.885 384.635,133.325C384.288,129.126 383.468,124.955 382.662,120.808C382.213,118.511 381.39,116.284 380.709,114.031C380.411,113.054 380.533,112.33 381.615,111.955C381.99,111.825 382.321,111.565 382.666,111.351C387.003,108.645 387.66,107.102 385.374,102.621C380.132,92.339 374.852,82.066 369.23,71.992C365.982,66.17 361.444,61.352 355.785,57.595C344.6,50.17 332.681,49.699 320.218,53.336C310.736,56.104 302.029,60.509 293.762,65.857C285.135,71.436 280.988,79.982 278.399,89.415C274.356,104.144 273.4,119.251 273.751,134.439C273.919,141.8 274.534,149.155 275.078,156.5C275.207,158.191 274.679,159.041 273.359,160.107C269.703,163.069 266.077,166.14 262.901,169.592C261.3,171.33 260.177,173.895 259.754,176.25C258.277,184.493 264.744,190.178 272.897,188.026C275.21,187.416 277.459,186.551 280.098,185.682C279.756,187.013 279.54,187.977 279.263,188.923C277.752,194.051 278.034,199.121 280.063,204.017C281.229,206.829 282.443,209.617 283.744,212.358L186.072,212.358C164.607,212.358 142.405,222.406 142.405,239.222C142.405,259.48 164.081,274.722 210.621,287.187C234.183,293.498 261.739,298.726 283.882,302.927C298.616,305.724 311.341,308.138 316.979,309.816C317.109,309.855 317.241,309.888 317.374,309.918C345.005,315.748 368.745,328.346 375.106,340.551C377.074,344.328 377.302,347.877 375.836,351.328C372.544,358.734 357.607,373.183 294.564,386.724C249.879,396.322 182.413,403.767 117.921,406.833C117.921,406.833 119.405,407.806 125.23,411.2C131.053,414.595 133.963,415.934 133.963,415.934C198.983,412.844 251.461,406.209 296.663,396.5C348.042,385.463 377.755,371.631 385.007,355.312C387.672,349.042 387.315,342.339 383.973,335.927C374.414,317.585 343.388,305.216 319.633,300.171C313.442,298.357 301.2,296.034 285.746,293.101C263.767,288.931 236.412,283.742 213.208,277.525C172.294,266.568 152.405,254.037 152.405,239.22C152.405,230.236 168.137,222.356 186.072,222.356L289.177,222.356C290.321,224.165 291.54,225.934 292.865,227.644C293.287,228.187 293.623,228.931 293.677,229.606C294.243,236.415 300.949,241.774 307.716,240.823C308.333,240.735 309.05,240.907 309.636,241.159C320.133,245.622 330.808,245.374 341.319,241.663C352.131,237.841 357.225,229.317 358.209,218.295C358.612,213.775 358.08,209.172 357.974,204.648C358.174,204.736 358.691,204.898 359.138,205.17C365.876,209.242 372.918,209.159 380.25,207.029C387.092,205.041 392.279,201.201 395.81,194.95C398.523,190.147 400.402,185.238 400.18,179.605C399.91,172.651 400.086,165.673 399.629,158.732ZM280.73,183.458C280.619,183.744 280.114,183.94 279.75,184.063C277.391,184.863 275.044,185.719 272.644,186.39C267.535,187.823 263.591,186.1 261.914,181.824C260.412,177.999 261.283,174.535 263.541,171.308C266.66,166.856 270.871,163.604 275.375,160.691C275.687,160.488 276.137,160.316 276.48,160.376C278.249,160.677 280,161.059 281.904,161.441C282.272,166.518 282.918,171.754 282.914,176.989C282.911,179.149 281.546,181.317 280.73,183.458ZM292.416,165.302C289.748,167.995 287.032,170.636 284.371,173.251C284.122,169.442 283.847,165.227 283.577,161.116C286.569,160.242 289.302,159.445 292.111,158.622C292.386,160.461 292.693,162.184 292.878,163.922C292.925,164.367 292.728,164.986 292.416,165.302ZM378.902,113.437C379.387,115.439 379.827,117.244 380.304,119.201C377.924,119.382 375.753,119.548 373.522,119.718C373.211,118.059 372.945,116.648 372.677,115.223C374.887,114.59 376.843,114.027 378.902,113.437ZM370.349,115.458C370.634,115.458 371.106,116.005 371.176,116.367C372.208,121.638 373.187,126.92 374.216,132.393C372.593,132.273 371.037,132.466 369.713,132.002C366,130.697 362.383,129.116 358.721,127.659C358.097,127.41 357.446,127.229 356.638,126.96C357.045,126.646 357.192,126.505 357.363,126.405C361.896,123.738 366.673,121.349 368.816,116.013C368.957,115.661 369.821,115.457 370.349,115.458ZM293.915,159.666C293.555,158.201 293.957,157.33 295.27,156.538C297.861,154.978 298.8,152.711 298.647,149.54C298.109,138.335 297.555,127.115 297.599,115.904C297.648,104.388 299.272,93.034 302.56,81.913C304.942,73.86 309.52,68.203 317.34,64.83C321.481,63.044 325.21,62.775 329.168,64.747C330.254,65.289 331.344,65.832 332.406,66.418C338.773,69.938 343.107,75.424 346.885,81.437C352.792,90.836 357.88,100.671 362.247,110.87C363.229,113.169 364.325,115.097 367.158,115.344C366.152,118.095 364.448,119.984 362.262,121.415C359.832,123.006 357.289,124.426 354.86,126.009C354.303,126.371 353.98,127.093 353.548,127.651C354.177,127.96 354.778,128.365 355.437,128.563C359.496,129.763 363.561,130.917 367.624,132.087C364.094,133.598 360.687,134.629 357.262,135.585C350.218,137.547 345.934,142.427 343.308,148.935C341.087,154.428 340.598,160.219 341.086,166.078C341.433,170.161 341.991,174.227 342.486,178.568C341.94,178.107 341.577,177.733 341.149,177.452C336.031,174.071 331.159,170.21 325.729,167.44C315.976,162.462 305.674,160.128 294.606,164.095C294.36,162.453 294.248,161.033 293.915,159.666ZM309.915,239.47C310.95,234.925 309.136,231.675 306.169,228.91C303.195,226.141 299.653,224.936 295.19,225.694C299.122,222.556 305.11,224.036 309.119,228.671C311.698,231.653 313.389,236.873 309.915,239.47ZM348.531,229.473C347.381,235.099 342.641,239.726 337.251,240.189C338.426,239.582 339.374,239.138 340.279,238.615C344.477,236.191 346.648,232.515 346.956,227.703C347.223,223.44 346.246,219.387 344.884,215.395C339.91,200.827 331.099,189.787 316.243,184.365C313.287,183.286 310.242,182.46 307.238,181.519C307.896,181.373 308.547,181.346 309.182,181.44C316.855,182.573 323.945,185.19 330.281,189.742C339.223,196.17 344.023,205.343 347.304,215.491C348.775,220.033 349.51,224.688 348.531,229.473ZM375.345,151.799C373.986,150.441 371.753,149.297 369.877,149.237C363.222,149.029 357.539,153.787 356.768,160.401C356.182,165.468 355.969,170.678 356.435,175.749C357.216,184.279 361.666,190.799 369.01,195.282C369.401,195.523 369.779,195.787 370.161,196.04C361.07,194.999 354.835,189.999 351.436,181.692C348.162,173.696 347.859,165.316 349.951,157.001C352.185,148.111 361.089,142.375 370.126,143.756C375.773,144.619 378.599,148.668 380.252,153.688C380.892,155.622 381.181,157.671 381.713,160.048C379.395,156.97 377.653,154.102 375.345,151.799ZM379.162,135.054C376.235,134.09 375.341,132.037 375.518,129.058C377.435,129.059 379.377,129.002 381.31,129.102C381.746,129.124 382.45,129.639 382.522,130.021C382.944,132.324 383.222,134.652 383.612,137.444C381.857,136.479 380.589,135.523 379.162,135.054Z" style="fill:rgb(246,25,46);fill-rule:nonzero;"/>
        <g>
            <path d="M142.921,269.965L142.921,266.415C144.002,269.2 146.979,270.798 151.506,270.798C157.998,270.798 160.803,268.829 161.934,267.741C162.102,268.579 162.521,270.589 166.289,270.589C168.257,270.589 169.263,270.296 170.394,270.087L170.394,269.962L174.659,269.962L174.659,260.208C175.118,265.702 178.981,270.798 188.347,270.798C196.807,270.798 199.823,265.9 201.078,263.427L194.796,263.427C193.665,265.271 191.991,266.611 188.18,266.611C182.443,266.611 180.768,262.8 180.64,260.33L201.582,260.33L201.582,259.492C201.582,253 197.811,246.926 187.971,246.926C180.47,246.926 175.149,251.227 174.659,258.039L174.659,239.557L168.88,239.557L168.88,266.145C168.749,266.149 168.619,266.151 168.509,266.151C168.132,266.151 167.253,266.11 167.253,264.895L167.253,254.383C167.253,251.492 166.918,246.926 155.317,246.926C148.742,246.926 144.43,248.729 143.59,254.549L149.243,254.549C149.453,252.078 151.505,250.865 155.316,250.865C158.667,250.865 161.598,251.492 161.598,254.047C161.598,255.766 160.718,256.057 152.426,256.854C149.33,257.135 144.418,257.579 142.919,261.329L142.919,255.222C142.919,248.435 137.643,247.181 134.082,247.181C129.433,247.181 126.502,249.232 125.077,251.283C123.529,247.642 119.843,247.181 117.246,247.181C113.309,247.181 110.378,248.73 108.493,251.117L108.407,251.117L108.407,247.767L102.629,247.767L102.629,256.919C101.718,251.483 97.754,246.927 89.233,246.927C84.881,246.927 81.266,248.378 78.896,250.921L78.896,247.767L72.824,247.767L72.824,246.05C72.824,244.038 73.284,243.411 75.924,243.411C77.011,243.411 78.268,243.493 78.897,243.579L78.897,239.391C77.555,239.305 76.216,239.221 73.704,239.221C67.674,239.221 67.046,242.448 67.046,244.918L67.046,247.766L62.48,247.766L62.48,251.954L67.046,251.954L67.046,269.964L72.825,269.964L72.825,251.954L78.039,251.954C76.65,253.876 75.873,256.284 75.873,259.073C75.873,264.979 79.602,270.8 89.61,270.8C98.07,270.8 101.087,265.902 102.341,263.429L96.06,263.429C94.929,265.273 93.254,266.613 89.443,266.613C83.706,266.613 82.031,262.802 81.904,260.332L102.632,260.332L102.632,269.965L108.41,269.965L108.41,257.608C108.41,252.751 112.432,251.62 114.443,251.62C119.594,251.62 119.888,254.429 119.888,256.731L119.888,269.965L125.665,269.965L125.665,257.608C125.665,252.751 129.686,251.62 131.697,251.62C136.847,251.62 137.14,254.429 137.14,256.731L137.14,269.965L142.921,269.965ZM188.054,250.865C190.904,250.865 194.839,252.205 195.551,256.644L180.641,256.644C181.606,252.121 185.375,250.865 188.054,250.865ZM153.893,260.287C157.998,259.826 159.799,259.617 161.474,258.906L161.474,261.041C161.474,265.941 156.24,267.113 153.14,267.113C151.172,267.113 148.492,266.568 148.492,263.638C148.492,261.753 149.538,260.789 153.893,260.287ZM81.904,256.644C82.868,252.121 86.637,250.865 89.319,250.865C92.167,250.865 96.102,252.205 96.816,256.644L81.904,256.644Z" style="fill:white;fill-rule:nonzero;"/>
            <path d="M343.364,259.951C343.364,264.685 339.176,266.361 336.621,266.361C331.679,266.361 330.883,263.806 330.883,260.414L330.883,247.766L325.107,247.766L325.107,260.52C323.599,257.762 319.424,257.135 313.67,256.309C308.101,255.514 307.555,255.221 307.555,253.42C307.555,252.248 309.315,250.865 312.583,250.865C314.551,250.865 318.403,251.24 318.864,254.549L324.893,254.549C324.558,247.43 316.31,246.926 312.875,246.926C309.271,246.926 302.276,247.727 301.817,253.498C300.748,247.389 293.178,246.926 289.923,246.926C286.194,246.926 278.826,247.766 278.826,254.09C278.826,259.158 282.426,259.951 289.296,260.875C295.534,261.709 296.498,262.299 296.498,264.012C296.498,266.11 293.357,266.862 290.469,266.862C288.375,266.862 284.521,266.362 284.355,263.01L278.071,263.01C278.076,263.156 278.102,263.285 278.113,263.428L272.629,263.428C271.501,265.272 269.826,266.612 266.015,266.612C260.278,266.612 258.602,262.801 258.477,260.331L279.415,260.331L279.415,259.493C279.415,253.001 275.645,246.927 265.805,246.927C260.81,246.927 256.782,248.839 254.5,252.124L254.5,247.39C253.744,247.263 253.076,247.181 252.197,247.181C247.759,247.181 245.37,249.566 243.82,252.079L243.736,252.079L243.736,247.767L237.958,247.767L237.958,255.552C236.738,251.111 233.035,247.181 226.276,247.181C222.8,247.181 219.491,248.269 217.775,250.951L217.692,250.951L217.692,247.767L211.912,247.767L211.912,278.421L217.692,278.421L217.692,266.905L217.775,266.905C218.194,268.245 221.671,270.8 226.276,270.8C233.035,270.8 236.738,266.87 237.958,262.384L237.958,269.964L243.736,269.964L243.736,259.243C243.736,254.091 247.883,252.542 250.813,252.542C251.7,252.542 252.674,252.593 253.976,252.944C252.989,254.68 252.446,256.745 252.446,259.073C252.446,264.979 256.17,270.8 266.179,270.8C273.481,270.8 276.723,267.155 278.283,264.566C279.518,269.941 286.17,270.8 290.508,270.8C295.832,270.8 300.264,269.634 301.993,266.482C304.197,270.154 309.696,270.8 313.461,270.8C319.407,270.8 324.248,269.351 325.441,265.294C326.577,269.567 330.502,270.8 334.526,270.8C338.463,270.8 341.395,269.251 343.279,266.862L343.362,266.862L343.362,269.964L349.142,269.964L349.142,247.767L343.362,247.767L343.362,259.951L343.364,259.951ZM265.888,250.865C268.736,250.865 272.674,252.205 273.384,256.644L258.477,256.644C259.441,252.121 263.21,250.865 265.888,250.865ZM224.896,266.361C219.492,266.361 217.441,262.716 217.441,258.947C217.441,255.261 219.492,251.617 224.896,251.617C230.339,251.617 232.391,255.262 232.391,258.947C232.391,262.716 230.339,266.361 224.896,266.361ZM313.419,266.861C311.326,266.861 307.473,266.361 307.304,263.009L302.77,263.009C302.635,258.056 297.903,257.339 290.719,256.308C285.148,255.513 284.607,255.22 284.607,253.419C284.607,252.247 286.365,250.864 289.629,250.864C291.599,250.864 295.451,251.239 295.914,254.548L301.795,254.548C302.017,259.196 305.599,259.98 312.247,260.874C318.486,261.708 319.45,262.298 319.45,264.011C319.451,266.109 316.31,266.861 313.419,266.861Z" style="fill:white;fill-rule:nonzero;"/>
            <path d="M391.095,259.492C391.095,253 387.325,246.926 377.485,246.926C372.49,246.926 368.463,248.836 366.18,252.121L366.18,247.389C365.424,247.262 364.755,247.18 363.877,247.18C359.439,247.18 357.05,249.565 355.5,252.078L355.416,252.078L355.416,247.766L349.639,247.766L349.639,269.963L355.416,269.963L355.416,259.242C355.416,254.09 359.563,252.541 362.493,252.541C363.38,252.541 364.35,252.592 365.654,252.943C364.667,254.679 364.124,256.742 364.124,259.072C364.124,264.978 367.85,270.799 377.861,270.799C386.322,270.799 389.337,265.901 390.592,263.428L384.31,263.428C383.18,265.272 381.505,266.612 377.694,266.612C371.955,266.612 370.281,262.801 370.153,260.331L391.094,260.331L391.094,259.492L391.095,259.492ZM370.154,256.644C371.119,252.121 374.888,250.865 377.568,250.865C380.416,250.865 384.352,252.205 385.064,256.644L370.154,256.644Z" style="fill:white;fill-rule:nonzero;"/>
            <rect x="203.197" y="248.97" width="6.232" height="5.672" style="fill:white;"/>
            <rect x="203.197" y="264.191" width="6.232" height="5.674" style="fill:white;"/>
            <path d="M85.397,282.949C84.59,281.924 83.579,281.111 82.363,280.51C81.146,279.908 79.718,279.608 78.079,279.608C76.602,279.608 75.25,279.874 74.019,280.407C72.79,280.94 71.887,281.796 71.313,282.969L71.231,282.969L71.231,280.1L67.747,280.1L67.747,309.373L71.231,309.373L71.231,298.467L71.313,298.467C71.696,299.096 72.167,299.623 72.728,300.045C73.288,300.471 73.882,300.805 74.511,301.051C75.14,301.297 75.775,301.475 76.417,301.584C77.06,301.691 77.641,301.748 78.16,301.748C79.772,301.748 81.186,301.461 82.403,300.887C83.619,300.313 84.631,299.528 85.437,298.53C86.243,297.532 86.844,296.364 87.241,295.024C87.637,293.684 87.836,292.264 87.836,290.76C87.836,289.256 87.631,287.834 87.221,286.496C86.811,285.156 86.203,283.974 85.397,282.949ZM83.818,293.546C83.599,294.53 83.245,295.405 82.753,296.171C82.261,296.937 81.611,297.552 80.806,298.015C79.999,298.482 78.994,298.712 77.792,298.712C76.589,298.712 75.563,298.487 74.717,298.036C73.869,297.585 73.18,296.991 72.647,296.253C72.114,295.515 71.724,294.661 71.478,293.691C71.232,292.721 71.109,291.716 71.109,290.677C71.109,289.693 71.225,288.722 71.458,287.765C71.69,286.81 72.066,285.954 72.586,285.203C73.105,284.453 73.774,283.844 74.595,283.379C75.416,282.914 76.412,282.682 77.588,282.682C78.708,282.682 79.686,282.903 80.52,283.338C81.353,283.776 82.037,284.363 82.57,285.102C83.103,285.841 83.499,286.68 83.758,287.623C84.017,288.566 84.148,289.529 84.148,290.514C84.146,291.552 84.037,292.562 83.818,293.546Z" style="fill:white;fill-rule:nonzero;"/>
            <path d="M108.417,282.826C107.542,281.828 106.47,281.043 105.198,280.469C103.927,279.895 102.444,279.608 100.75,279.608C99.083,279.608 97.606,279.895 96.322,280.469C95.037,281.043 93.958,281.828 93.083,282.826C92.208,283.824 91.552,284.998 91.115,286.351C90.677,287.705 90.459,289.16 90.459,290.718C90.459,292.276 90.678,293.724 91.115,295.064C91.552,296.404 92.208,297.572 93.083,298.57C93.958,299.568 95.037,300.347 96.322,300.906C97.606,301.467 99.083,301.748 100.75,301.748C102.444,301.748 103.928,301.467 105.198,300.906C106.469,300.347 107.542,299.568 108.417,298.57C109.292,297.572 109.947,296.404 110.385,295.064C110.823,293.724 111.041,292.277 111.041,290.718C111.041,289.159 110.822,287.704 110.385,286.351C109.948,284.998 109.292,283.824 108.417,282.826ZM106.839,294.142C106.496,295.14 106.026,295.972 105.424,296.642C104.822,297.312 104.118,297.826 103.313,298.179C102.506,298.534 101.653,298.712 100.751,298.712C99.85,298.712 98.994,298.534 98.189,298.179C97.382,297.825 96.678,297.312 96.078,296.642C95.476,295.972 95.005,295.14 94.664,294.142C94.321,293.144 94.151,292.003 94.151,290.718C94.151,289.433 94.321,288.292 94.664,287.294C95.005,286.296 95.476,285.456 96.078,284.773C96.679,284.089 97.383,283.57 98.189,283.214C98.995,282.86 99.85,282.681 100.751,282.681C101.653,282.681 102.507,282.861 103.313,283.214C104.119,283.569 104.823,284.089 105.424,284.773C106.025,285.457 106.496,286.296 106.839,287.294C107.18,288.292 107.352,289.433 107.352,290.718C107.352,292.003 107.18,293.144 106.839,294.142Z" style="fill:white;fill-rule:nonzero;"/>
            <path d="M130.271,282.927L130.189,282.927C129.805,282.3 129.335,281.773 128.774,281.349C128.213,280.925 127.62,280.585 126.991,280.324C126.362,280.066 125.733,279.881 125.105,279.771C124.476,279.662 123.888,279.607 123.341,279.607C121.729,279.607 120.314,279.902 119.098,280.488C117.881,281.076 116.869,281.869 116.064,282.867C115.257,283.865 114.656,285.033 114.26,286.373C113.864,287.713 113.665,289.133 113.665,290.637C113.665,292.141 113.87,293.561 114.28,294.901C114.69,296.241 115.298,297.417 116.104,298.426C116.91,299.438 117.921,300.244 119.138,300.846C120.354,301.448 121.783,301.748 123.422,301.748C124.899,301.748 126.251,301.486 127.482,300.969C128.711,300.449 129.614,299.602 130.188,298.426L130.27,298.426L130.27,301.297L133.754,301.297L133.754,272.022L130.27,272.022L130.27,282.927L130.271,282.927ZM130.045,293.628C129.813,294.585 129.437,295.44 128.917,296.19C128.397,296.942 127.729,297.551 126.908,298.014C126.088,298.481 125.09,298.711 123.915,298.711C122.794,298.711 121.817,298.492 120.983,298.055C120.149,297.619 119.466,297.032 118.933,296.293C118.4,295.554 118.003,294.715 117.745,293.772C117.484,292.829 117.355,291.866 117.355,290.881C117.355,289.842 117.463,288.83 117.683,287.846C117.901,286.864 118.256,285.989 118.748,285.223C119.24,284.457 119.896,283.842 120.716,283.377C121.536,282.912 122.533,282.68 123.709,282.68C124.912,282.68 125.937,282.907 126.784,283.358C127.631,283.809 128.321,284.403 128.854,285.141C129.387,285.879 129.777,286.733 130.023,287.703C130.269,288.673 130.392,289.678 130.392,290.717C130.394,291.703 130.277,292.673 130.045,293.628Z" style="fill:white;fill-rule:nonzero;"/>
            <path d="M151.57,297.361C150.599,298.261 149.254,298.713 147.531,298.713C146.438,298.713 145.495,298.494 144.702,298.057C143.909,297.621 143.267,297.039 142.775,296.315C142.283,295.592 141.921,294.764 141.689,293.835C141.456,292.907 141.34,291.95 141.34,290.966C141.34,289.9 141.448,288.868 141.668,287.87C141.886,286.872 142.248,285.991 142.754,285.225C143.26,284.459 143.937,283.844 144.783,283.379C145.631,282.914 146.682,282.682 147.94,282.682C149.417,282.682 150.591,283.051 151.466,283.789C152.34,284.527 152.914,285.566 153.188,286.906L156.796,286.906C156.658,285.648 156.33,284.562 155.812,283.646C155.292,282.73 154.629,281.972 153.824,281.371C153.017,280.769 152.088,280.324 151.036,280.037C149.983,279.75 148.856,279.607 147.653,279.607C145.986,279.607 144.523,279.902 143.266,280.488C142.008,281.076 140.963,281.883 140.129,282.908C139.295,283.933 138.674,285.137 138.264,286.515C137.854,287.896 137.649,289.378 137.649,290.964C137.649,292.55 137.861,294.005 138.285,295.329C138.709,296.655 139.337,297.798 140.171,298.753C141.005,299.71 142.043,300.448 143.287,300.968C144.53,301.486 145.958,301.747 147.571,301.747C150.277,301.747 152.416,301.036 153.988,299.614C155.559,298.194 156.536,296.171 156.92,293.546L153.353,293.546C153.134,295.187 152.54,296.458 151.57,297.361Z" style="fill:white;fill-rule:nonzero;"/>
            <path d="M177.235,298.099C177.139,297.718 177.091,297.119 177.091,296.298L177.091,285.415C177.091,284.188 176.859,283.192 176.395,282.429C175.929,281.667 175.315,281.074 174.549,280.65C173.783,280.228 172.93,279.949 171.987,279.812C171.045,279.675 170.094,279.607 169.137,279.607C167.934,279.607 166.807,279.73 165.755,279.976C164.702,280.222 163.766,280.626 162.946,281.185C162.126,281.746 161.469,282.476 160.978,283.378C160.486,284.28 160.212,285.388 160.158,286.7L163.642,286.7C163.724,285.141 164.257,284.083 165.242,283.522C166.225,282.961 167.456,282.68 168.931,282.68C169.478,282.68 170.032,282.721 170.592,282.803C171.152,282.885 171.657,283.049 172.109,283.295C172.561,283.541 172.929,283.897 173.216,284.361C173.503,284.825 173.647,285.441 173.647,286.207C173.647,286.863 173.455,287.361 173.073,287.703C172.69,288.045 172.171,288.305 171.514,288.482C170.859,288.66 170.1,288.796 169.239,288.892C168.379,288.988 167.469,289.13 166.512,289.322C165.611,289.486 164.729,289.691 163.867,289.937C163.007,290.183 162.241,290.546 161.571,291.023C160.901,291.502 160.362,292.125 159.952,292.888C159.542,293.654 159.337,294.638 159.337,295.841C159.337,296.907 159.522,297.816 159.891,298.568C160.26,299.32 160.758,299.927 161.387,300.392C162.016,300.857 162.761,301.199 163.622,301.417C164.482,301.636 165.391,301.745 166.348,301.745C167.825,301.745 169.198,301.491 170.469,300.985C171.74,300.481 172.853,299.653 173.811,298.505C173.811,299.653 174.077,300.482 174.61,300.985C175.143,301.491 175.861,301.745 176.762,301.745C177.828,301.745 178.661,301.565 179.263,301.212L179.263,298.505C178.854,298.614 178.497,298.669 178.198,298.669C177.652,298.671 177.331,298.482 177.235,298.099ZM173.607,293.898C173.607,294.388 173.484,294.912 173.238,295.47C172.992,296.027 172.609,296.544 172.09,297.019C171.57,297.496 170.902,297.89 170.081,298.203C169.26,298.516 168.277,298.672 167.129,298.672C166.582,298.672 166.064,298.619 165.571,298.51C165.078,298.401 164.648,298.225 164.279,297.979C163.91,297.735 163.609,297.415 163.378,297.02C163.145,296.625 163.029,296.143 163.029,295.573C163.029,294.702 163.226,294.016 163.624,293.512C164.02,293.008 164.532,292.621 165.161,292.35C165.789,292.079 166.5,291.879 167.293,291.758C168.086,291.635 168.871,291.526 169.65,291.432C170.429,291.336 171.173,291.213 171.884,291.065C172.595,290.915 173.169,290.676 173.607,290.35L173.607,293.898Z" style="fill:white;fill-rule:nonzero;"/>
            <path d="M196.668,290.861C196.025,290.41 195.287,290.049 194.454,289.775C193.62,289.502 192.766,289.269 191.892,289.078C191.072,288.887 190.252,288.703 189.432,288.525C188.612,288.347 187.874,288.129 187.218,287.869C186.562,287.609 186.022,287.281 185.598,286.885C185.174,286.489 184.963,285.99 184.963,285.389C184.963,284.842 185.099,284.399 185.372,284.057C185.645,283.715 186.001,283.442 186.438,283.237C186.875,283.032 187.361,282.887 187.893,282.805C188.426,282.723 188.953,282.682 189.472,282.682C190.046,282.682 190.613,282.744 191.173,282.868C191.733,282.992 192.245,283.19 192.711,283.462C193.175,283.735 193.558,284.099 193.858,284.55C194.159,284.999 194.337,285.568 194.391,286.251L197.876,286.251C197.794,284.966 197.521,283.894 197.056,283.032C196.591,282.17 195.969,281.487 195.191,280.981C194.412,280.475 193.516,280.12 192.505,279.915C191.493,279.71 190.386,279.608 189.184,279.608C188.254,279.608 187.319,279.725 186.375,279.956C185.432,280.188 184.585,280.546 183.833,281.022C183.081,281.501 182.466,282.124 181.988,282.887C181.509,283.653 181.27,284.569 181.27,285.635C181.27,287.002 181.612,288.069 182.295,288.832C182.978,289.598 183.832,290.193 184.857,290.615C185.881,291.039 186.995,291.367 188.198,291.599C189.401,291.831 190.514,292.091 191.54,292.378C192.566,292.665 193.419,293.04 194.102,293.505C194.785,293.97 195.127,294.653 195.127,295.556C195.127,296.212 194.963,296.751 194.635,297.175C194.307,297.599 193.89,297.921 193.384,298.138C192.878,298.359 192.324,298.507 191.724,298.589C191.122,298.671 190.548,298.712 190.002,298.712C189.291,298.712 188.601,298.644 187.931,298.507C187.261,298.37 186.66,298.146 186.127,297.831C185.594,297.516 185.164,297.093 184.836,296.56C184.508,296.027 184.329,295.378 184.303,294.613L180.818,294.613C180.873,295.925 181.146,297.039 181.638,297.955C182.13,298.871 182.785,299.609 183.606,300.168C184.426,300.729 185.369,301.133 186.435,301.379C187.501,301.625 188.622,301.748 189.797,301.748C190.862,301.748 191.935,301.644 193.015,301.439C194.095,301.234 195.066,300.873 195.926,300.353C196.787,299.833 197.485,299.15 198.018,298.302C198.55,297.456 198.817,296.39 198.817,295.105C198.817,294.093 198.619,293.246 198.222,292.562C197.83,291.88 197.31,291.312 196.668,290.861Z" style="fill:white;fill-rule:nonzero;"/>
            <path d="M207.185,273.744L203.701,273.744L203.701,280.099L200.093,280.099L200.093,283.173L203.701,283.173L203.701,296.663C203.701,297.645 203.796,298.44 203.988,299.04C204.178,299.642 204.472,300.106 204.869,300.435C205.266,300.764 205.785,300.988 206.428,301.111C207.07,301.234 207.842,301.297 208.744,301.297L211.409,301.297L211.409,298.221L209.809,298.221C209.262,298.221 208.818,298.201 208.477,298.16C208.135,298.119 207.869,298.031 207.677,297.892C207.486,297.757 207.356,297.564 207.287,297.32C207.219,297.074 207.184,296.746 207.184,296.336L207.184,283.174L211.408,283.174L211.408,280.1L207.184,280.1L207.184,273.744L207.185,273.744Z" style="fill:white;fill-rule:nonzero;"/>
        </g>
    </g>
</svg>
