<?xml version="1.0" encoding="UTF-8" standalone="no"?>
<!DOCTYPE svg PUBLIC "-//W3C//DTD SVG 1.1//EN" "http://www.w3.org/Graphics/SVG/1.1/DTD/svg11.dtd">
<svg width="100%" height="100%" viewBox="0 0 543 543" version="1.1" xmlns="http://www.w3.org/2000/svg" xmlns:xlink="http://www.w3.org/1999/xlink" xml:space="preserve" xmlns:serif="http://www.serif.com/" style="fill-rule:evenodd;clip-rule:evenodd;stroke-linejoin:round;stroke-miterlimit:2;">
    <circle cx="271.5" cy="271.5" r="271.5" style="fill:rgb(51,132,123);"/>
    <circle cx="271.413" cy="270.81" r="105.033" style="fill:rgb(255,245,236);"/>
    <circle cx="270.544" cy="271.279" r="12.487" style="fill:rgb(1,1,1);"/>
    <g id="die-vorspielservice" serif:id="die vorspielservice" transform="matrix(1,0,0,1,26.2995,403.185)">
        <g transform="matrix(37,0,0,37,0,0)">
            <path d="M0.568,-0L0.81,-0L0.81,-0.739L0.56,-0.739L0.56,-0.485L0.558,-0.485C0.515,-0.537 0.443,-0.562 0.341,-0.562C0.179,-0.562 0.03,-0.473 0.03,-0.27C0.03,-0.067 0.179,0.022 0.341,0.022C0.452,0.022 0.521,-0.006 0.566,-0.058L0.568,-0.058L0.568,-0ZM0.56,-0.27C0.56,-0.192 0.519,-0.146 0.423,-0.146C0.326,-0.146 0.286,-0.198 0.286,-0.27C0.286,-0.34 0.332,-0.394 0.422,-0.394C0.519,-0.394 0.56,-0.347 0.56,-0.27Z" style="fill:rgb(255,245,236);fill-rule:nonzero;"/>
        </g>
        <g transform="matrix(37,0,0,37,32.19,0)">
            <path d="M0.06,-0L0.31,-0L0.31,-0.547L0.06,-0.547L0.06,-0ZM0.06,-0.601L0.31,-0.601L0.31,-0.739L0.06,-0.739L0.06,-0.601Z" style="fill:rgb(255,245,236);fill-rule:nonzero;"/>
        </g>
        <g transform="matrix(37,0,0,37,45.88,0)">
            <path d="M0.286,-0.341C0.299,-0.41 0.349,-0.437 0.436,-0.437C0.522,-0.437 0.579,-0.4 0.584,-0.341L0.286,-0.341ZM0.567,-0.164C0.54,-0.13 0.502,-0.116 0.437,-0.116C0.327,-0.116 0.286,-0.176 0.286,-0.215L0.836,-0.215C0.84,-0.488 0.662,-0.569 0.42,-0.569C0.174,-0.569 0.03,-0.463 0.03,-0.274C0.03,-0.074 0.18,0.022 0.443,0.022C0.558,0.022 0.644,0.004 0.708,-0.028C0.772,-0.06 0.814,-0.107 0.833,-0.164L0.567,-0.164Z" style="fill:rgb(255,245,236);fill-rule:nonzero;"/>
        </g>
        <g transform="matrix(37,0,0,37,93.166,0)">
            <path d="M0.237,-0L0.523,-0L0.776,-0.547L0.494,-0.547L0.381,-0.22L0.379,-0.22L0.266,-0.547L-0.016,-0.547L0.237,-0Z" style="fill:rgb(255,245,236);fill-rule:nonzero;"/>
        </g>
        <g transform="matrix(37,0,0,37,121.286,0)">
            <path d="M0.292,-0.274C0.292,-0.36 0.335,-0.407 0.435,-0.407C0.536,-0.407 0.578,-0.36 0.578,-0.274C0.578,-0.186 0.536,-0.14 0.435,-0.14C0.335,-0.14 0.292,-0.186 0.292,-0.274ZM0.03,-0.274C0.03,-0.072 0.153,0.022 0.435,0.022C0.717,0.022 0.84,-0.072 0.84,-0.274C0.84,-0.475 0.717,-0.569 0.435,-0.569C0.153,-0.569 0.03,-0.475 0.03,-0.274Z" style="fill:rgb(255,245,236);fill-rule:nonzero;"/>
        </g>
        <g transform="matrix(37,0,0,37,153.476,0)">
            <path d="M0.06,-0L0.31,-0L0.31,-0.205C0.31,-0.323 0.405,-0.352 0.494,-0.352C0.538,-0.352 0.575,-0.343 0.619,-0.332L0.619,-0.556C0.592,-0.56 0.564,-0.562 0.537,-0.562C0.451,-0.562 0.369,-0.527 0.304,-0.442L0.302,-0.442L0.302,-0.547L0.06,-0.547L0.06,-0Z" style="fill:rgb(255,245,236);fill-rule:nonzero;"/>
        </g>
        <g transform="matrix(37,0,0,37,176.786,0)">
            <path d="M0.469,-0.192C0.495,-0.189 0.503,-0.174 0.503,-0.158C0.503,-0.133 0.484,-0.116 0.42,-0.116C0.392,-0.116 0.367,-0.118 0.349,-0.126C0.332,-0.134 0.321,-0.148 0.318,-0.17L0.024,-0.17C0.032,-0.032 0.145,0.022 0.405,0.022C0.669,0.022 0.791,-0.032 0.791,-0.173C0.791,-0.266 0.74,-0.326 0.605,-0.338L0.367,-0.359C0.313,-0.364 0.3,-0.379 0.3,-0.393C0.3,-0.414 0.314,-0.431 0.389,-0.431C0.426,-0.431 0.449,-0.425 0.463,-0.417C0.477,-0.409 0.482,-0.397 0.482,-0.383L0.764,-0.383C0.759,-0.538 0.572,-0.569 0.402,-0.569C0.158,-0.569 0.038,-0.514 0.038,-0.385C0.038,-0.29 0.08,-0.232 0.225,-0.217L0.469,-0.192Z" style="fill:rgb(255,245,236);fill-rule:nonzero;"/>
        </g>
        <g transform="matrix(37,0,0,37,206.941,0)">
            <path d="M0.06,0.196L0.31,0.196L0.31,-0.055L0.312,-0.055C0.355,-0.003 0.427,0.022 0.529,0.022C0.691,0.022 0.84,-0.067 0.84,-0.27C0.84,-0.473 0.691,-0.562 0.529,-0.562C0.418,-0.562 0.349,-0.534 0.304,-0.482L0.302,-0.482L0.302,-0.547L0.06,-0.547L0.06,0.196ZM0.31,-0.27C0.31,-0.348 0.351,-0.394 0.447,-0.394C0.544,-0.394 0.584,-0.342 0.584,-0.27C0.584,-0.2 0.538,-0.146 0.448,-0.146C0.351,-0.146 0.31,-0.193 0.31,-0.27Z" style="fill:rgb(255,245,236);fill-rule:nonzero;"/>
        </g>
        <g transform="matrix(37,0,0,37,239.131,0)">
            <path d="M0.06,-0L0.31,-0L0.31,-0.547L0.06,-0.547L0.06,-0ZM0.06,-0.601L0.31,-0.601L0.31,-0.739L0.06,-0.739L0.06,-0.601Z" style="fill:rgb(255,245,236);fill-rule:nonzero;"/>
        </g>
        <g transform="matrix(37,0,0,37,252.821,0)">
            <path d="M0.286,-0.341C0.299,-0.41 0.349,-0.437 0.436,-0.437C0.522,-0.437 0.579,-0.4 0.584,-0.341L0.286,-0.341ZM0.567,-0.164C0.54,-0.13 0.502,-0.116 0.437,-0.116C0.327,-0.116 0.286,-0.176 0.286,-0.215L0.836,-0.215C0.84,-0.488 0.662,-0.569 0.42,-0.569C0.174,-0.569 0.03,-0.463 0.03,-0.274C0.03,-0.074 0.18,0.022 0.443,0.022C0.558,0.022 0.644,0.004 0.708,-0.028C0.772,-0.06 0.814,-0.107 0.833,-0.164L0.567,-0.164Z" style="fill:rgb(255,245,236);fill-rule:nonzero;"/>
        </g>
        <g transform="matrix(37,0,0,37,285.011,0)">
            <rect x="0.06" y="-0.739" width="0.25" height="0.739" style="fill:rgb(255,245,236);fill-rule:nonzero;"/>
        </g>
        <g transform="matrix(37,0,0,37,298.701,0)">
            <path d="M0.469,-0.192C0.495,-0.189 0.503,-0.174 0.503,-0.158C0.503,-0.133 0.484,-0.116 0.42,-0.116C0.392,-0.116 0.367,-0.118 0.349,-0.126C0.332,-0.134 0.321,-0.148 0.318,-0.17L0.024,-0.17C0.032,-0.032 0.145,0.022 0.405,0.022C0.669,0.022 0.791,-0.032 0.791,-0.173C0.791,-0.266 0.74,-0.326 0.605,-0.338L0.367,-0.359C0.313,-0.364 0.3,-0.379 0.3,-0.393C0.3,-0.414 0.314,-0.431 0.389,-0.431C0.426,-0.431 0.449,-0.425 0.463,-0.417C0.477,-0.409 0.482,-0.397 0.482,-0.383L0.764,-0.383C0.759,-0.538 0.572,-0.569 0.402,-0.569C0.158,-0.569 0.038,-0.514 0.038,-0.385C0.038,-0.29 0.08,-0.232 0.225,-0.217L0.469,-0.192Z" style="fill:rgb(255,245,236);fill-rule:nonzero;"/>
        </g>
        <g transform="matrix(37,0,0,37,328.856,0)">
            <path d="M0.286,-0.341C0.299,-0.41 0.349,-0.437 0.436,-0.437C0.522,-0.437 0.579,-0.4 0.584,-0.341L0.286,-0.341ZM0.567,-0.164C0.54,-0.13 0.502,-0.116 0.437,-0.116C0.327,-0.116 0.286,-0.176 0.286,-0.215L0.836,-0.215C0.84,-0.488 0.662,-0.569 0.42,-0.569C0.174,-0.569 0.03,-0.463 0.03,-0.274C0.03,-0.074 0.18,0.022 0.443,0.022C0.558,0.022 0.644,0.004 0.708,-0.028C0.772,-0.06 0.814,-0.107 0.833,-0.164L0.567,-0.164Z" style="fill:rgb(255,245,236);fill-rule:nonzero;"/>
        </g>
        <g transform="matrix(37,0,0,37,361.046,0)">
            <path d="M0.06,-0L0.31,-0L0.31,-0.205C0.31,-0.323 0.405,-0.352 0.494,-0.352C0.538,-0.352 0.575,-0.343 0.619,-0.332L0.619,-0.556C0.592,-0.56 0.564,-0.562 0.537,-0.562C0.451,-0.562 0.369,-0.527 0.304,-0.442L0.302,-0.442L0.302,-0.547L0.06,-0.547L0.06,-0Z" style="fill:rgb(255,245,236);fill-rule:nonzero;"/>
        </g>
        <g transform="matrix(37,0,0,37,384.356,0)">
            <path d="M0.237,-0L0.523,-0L0.776,-0.547L0.494,-0.547L0.381,-0.22L0.379,-0.22L0.266,-0.547L-0.016,-0.547L0.237,-0Z" style="fill:rgb(255,245,236);fill-rule:nonzero;"/>
        </g>
        <g transform="matrix(37,0,0,37,412.476,0)">
            <path d="M0.06,-0L0.31,-0L0.31,-0.547L0.06,-0.547L0.06,-0ZM0.06,-0.601L0.31,-0.601L0.31,-0.739L0.06,-0.739L0.06,-0.601Z" style="fill:rgb(255,245,236);fill-rule:nonzero;"/>
        </g>
        <g transform="matrix(37,0,0,37,426.166,0)">
            <path d="M0.842,-0.327C0.815,-0.509 0.675,-0.569 0.44,-0.569C0.21,-0.569 0.03,-0.499 0.03,-0.275C0.03,-0.048 0.21,0.022 0.44,0.022C0.612,0.022 0.816,-0.004 0.842,-0.231L0.58,-0.231C0.563,-0.16 0.511,-0.14 0.441,-0.14C0.342,-0.14 0.292,-0.194 0.292,-0.278C0.292,-0.351 0.331,-0.413 0.443,-0.413C0.475,-0.413 0.51,-0.408 0.533,-0.396C0.561,-0.382 0.577,-0.361 0.58,-0.327L0.842,-0.327Z" style="fill:rgb(255,245,236);fill-rule:nonzero;"/>
        </g>
        <g transform="matrix(37,0,0,37,458.356,0)">
            <path d="M0.286,-0.341C0.299,-0.41 0.349,-0.437 0.436,-0.437C0.522,-0.437 0.579,-0.4 0.584,-0.341L0.286,-0.341ZM0.567,-0.164C0.54,-0.13 0.502,-0.116 0.437,-0.116C0.327,-0.116 0.286,-0.176 0.286,-0.215L0.836,-0.215C0.84,-0.488 0.662,-0.569 0.42,-0.569C0.174,-0.569 0.03,-0.463 0.03,-0.274C0.03,-0.074 0.18,0.022 0.443,0.022C0.558,0.022 0.644,0.004 0.708,-0.028C0.772,-0.06 0.814,-0.107 0.833,-0.164L0.567,-0.164Z" style="fill:rgb(255,245,236);fill-rule:nonzero;"/>
        </g>
    </g>
</svg>
