<?xml version="1.0" encoding="UTF-8" standalone="no"?>
<!DOCTYPE svg PUBLIC "-//W3C//DTD SVG 1.1//EN" "http://www.w3.org/Graphics/SVG/1.1/DTD/svg11.dtd">
<svg width="100%" height="100%" viewBox="0 0 2000 2000" version="1.1" xmlns="http://www.w3.org/2000/svg" xmlns:xlink="http://www.w3.org/1999/xlink" xml:space="preserve" xmlns:serif="http://www.serif.com/" style="fill-rule:evenodd;clip-rule:evenodd;stroke-linejoin:round;stroke-miterlimit:2;">
    <g transform="matrix(3.72834,0,0,3.72848,-111.047,-273.546)">
        <path d="M298,73.367C359.153,73.367 418.469,94.265 466.116,132.597L298,341.567L298,73.367Z" style="fill:rgb(19,79,92);fill-rule:nonzero;"/>
    </g>
    <g transform="matrix(3.72834,0,0,3.72848,-111.047,-273.546)">
        <path d="M282.733,73.802C287.817,73.512 292.908,73.367 298,73.367L298,341.567L282.733,73.802Z" style="fill-rule:nonzero;"/>
    </g>
    <g transform="matrix(3.72834,0,0,3.72848,-111.047,-273.546)">
        <path d="M185.788,97.969C216.304,83.912 249.189,75.714 282.733,73.802L298,341.567L185.788,97.969Z" style="fill:rgb(102,102,102);fill-rule:nonzero;"/>
    </g>
    <g transform="matrix(3.72834,0,0,3.72848,-111.047,-273.546)">
        <path d="M466.116,132.597C559.495,207.721 591.7,335.679 545.008,446.056C498.317,556.434 384.062,622.436 265.12,607.744C146.177,593.051 51.418,501.229 32.99,382.808C14.561,264.386 76.936,148.111 185.788,97.969L298,341.567L466.116,132.597Z" style="fill:rgb(106,168,79);fill-rule:nonzero;"/>
    </g>
    <g transform="matrix(3.72834,0,0,3.72848,-111.047,-273.546)">
        <path d="M353.459,144.476L347.959,144.476L347.959,143.429L350.069,143.429L350.069,136.617L347.959,136.617L347.959,135.679C348.24,135.679 348.542,135.658 348.865,135.617C349.199,135.565 349.449,135.492 349.615,135.398C349.834,135.283 350.001,135.143 350.115,134.976C350.24,134.799 350.308,134.559 350.319,134.257L351.381,134.257L351.381,143.429L353.459,143.429L353.459,144.476ZM363.037,139.382C363.037,141.205 362.751,142.549 362.178,143.414C361.605,144.268 360.714,144.695 359.506,144.695C358.287,144.695 357.397,144.263 356.834,143.398C356.272,142.523 355.99,141.19 355.99,139.398C355.99,137.586 356.272,136.247 356.834,135.382C357.407,134.518 358.298,134.086 359.506,134.086C360.735,134.086 361.631,134.528 362.194,135.414C362.756,136.289 363.037,137.612 363.037,139.382ZM361.24,142.492C361.397,142.117 361.501,141.679 361.553,141.179C361.615,140.679 361.647,140.08 361.647,139.382C361.647,138.695 361.615,138.096 361.553,137.586C361.501,137.075 361.391,136.638 361.225,136.273C361.069,135.929 360.85,135.669 360.569,135.492C360.298,135.315 359.944,135.226 359.506,135.226C359.079,135.226 358.725,135.315 358.444,135.492C358.162,135.669 357.944,135.934 357.787,136.289C357.631,136.632 357.522,137.075 357.459,137.617C357.407,138.158 357.381,138.752 357.381,139.398C357.381,140.106 357.402,140.7 357.444,141.179C357.496,141.658 357.605,142.086 357.772,142.461C357.928,142.815 358.141,143.086 358.412,143.273C358.694,143.461 359.058,143.554 359.506,143.554C359.933,143.554 360.287,143.466 360.569,143.289C360.86,143.112 361.084,142.846 361.24,142.492ZM367.412,144.476L365.787,144.476L365.787,142.523L367.412,142.523L367.412,144.476ZM377.115,141.632C377.115,142.518 376.772,143.252 376.084,143.836C375.407,144.419 374.548,144.711 373.506,144.711C372.402,144.711 371.522,144.424 370.865,143.851C370.209,143.278 369.881,142.549 369.881,141.664C369.881,141.101 370.042,140.591 370.365,140.132C370.699,139.674 371.168,139.309 371.772,139.039L371.772,139.007C371.22,138.716 370.813,138.398 370.553,138.054C370.293,137.7 370.162,137.263 370.162,136.742C370.162,135.981 370.475,135.346 371.1,134.836C371.735,134.325 372.537,134.07 373.506,134.07C374.516,134.07 375.324,134.315 375.928,134.804C376.543,135.283 376.85,135.898 376.85,136.648C376.85,137.117 376.704,137.575 376.412,138.023C376.131,138.461 375.709,138.804 375.147,139.054L375.147,139.101C375.793,139.372 376.282,139.711 376.615,140.117C376.949,140.513 377.115,141.018 377.115,141.632ZM375.506,136.664C375.506,136.184 375.313,135.799 374.928,135.507C374.553,135.216 374.074,135.07 373.49,135.07C372.917,135.07 372.449,135.205 372.084,135.476C371.72,135.747 371.537,136.117 371.537,136.586C371.537,136.919 371.626,137.205 371.803,137.445C371.99,137.684 372.272,137.893 372.647,138.07C372.813,138.153 373.053,138.263 373.365,138.398C373.688,138.533 374.001,138.643 374.303,138.726C374.751,138.424 375.063,138.112 375.24,137.789C375.417,137.466 375.506,137.091 375.506,136.664ZM375.709,141.773C375.709,141.346 375.615,141.007 375.428,140.757C375.251,140.507 374.891,140.252 374.35,139.992C374.141,139.898 373.907,139.809 373.647,139.726C373.397,139.632 373.058,139.507 372.631,139.351C372.214,139.58 371.881,139.888 371.631,140.273C371.391,140.648 371.272,141.08 371.272,141.57C371.272,142.184 371.48,142.695 371.897,143.101C372.324,143.497 372.865,143.695 373.522,143.695C374.188,143.695 374.72,143.523 375.115,143.179C375.511,142.836 375.709,142.367 375.709,141.773ZM384.1,137.117C384.1,138.138 383.881,138.898 383.444,139.398C383.016,139.898 382.397,140.148 381.584,140.148C380.761,140.148 380.136,139.898 379.709,139.398C379.282,138.898 379.069,138.143 379.069,137.132C379.069,136.112 379.282,135.351 379.709,134.851C380.147,134.351 380.772,134.101 381.584,134.101C382.407,134.101 383.032,134.356 383.459,134.867C383.886,135.367 384.1,136.117 384.1,137.117ZM388.819,134.304L383.49,144.476L382.365,144.476L387.694,134.304L388.819,134.304ZM392.1,141.648C392.1,142.669 391.881,143.429 391.444,143.929C391.016,144.429 390.397,144.679 389.584,144.679C388.761,144.679 388.136,144.429 387.709,143.929C387.293,143.419 387.084,142.664 387.084,141.664C387.084,140.643 387.298,139.882 387.725,139.382C388.152,138.882 388.772,138.632 389.584,138.632C390.418,138.632 391.043,138.882 391.459,139.382C391.886,139.882 392.1,140.638 392.1,141.648ZM382.881,137.117C382.881,136.336 382.777,135.789 382.569,135.476C382.371,135.164 382.043,135.007 381.584,135.007C381.126,135.007 380.793,135.164 380.584,135.476C380.386,135.789 380.287,136.341 380.287,137.132C380.287,137.914 380.386,138.461 380.584,138.773C380.793,139.075 381.126,139.226 381.584,139.226C382.043,139.226 382.371,139.075 382.569,138.773C382.777,138.461 382.881,137.908 382.881,137.117ZM390.881,141.648C390.881,140.867 390.777,140.325 390.569,140.023C390.371,139.711 390.048,139.554 389.6,139.554C389.131,139.554 388.793,139.711 388.584,140.023C388.386,140.325 388.287,140.872 388.287,141.664C388.287,142.445 388.386,142.992 388.584,143.304C388.793,143.606 389.131,143.757 389.6,143.757C390.048,143.757 390.371,143.606 390.569,143.304C390.777,142.992 390.881,142.44 390.881,141.648Z" style="fill:white;fill-rule:nonzero;"/>
    </g>
    <g transform="matrix(3.72834,0,0,3.72848,-111.047,-273.546)">
        <path d="M255.274,565.629C255.274,566.514 254.931,567.249 254.243,567.832C253.566,568.415 252.707,568.707 251.665,568.707C250.561,568.707 249.681,568.421 249.024,567.848C248.368,567.275 248.04,566.546 248.04,565.66C248.04,565.098 248.201,564.587 248.524,564.129C248.858,563.671 249.326,563.306 249.931,563.035L249.931,563.004C249.379,562.712 248.972,562.394 248.712,562.051C248.451,561.697 248.321,561.259 248.321,560.738C248.321,559.978 248.634,559.342 249.259,558.832C249.894,558.322 250.696,558.066 251.665,558.066C252.675,558.066 253.483,558.311 254.087,558.801C254.701,559.28 255.009,559.895 255.009,560.645C255.009,561.113 254.863,561.572 254.571,562.02C254.29,562.457 253.868,562.801 253.306,563.051L253.306,563.098C253.951,563.368 254.441,563.707 254.774,564.113C255.108,564.509 255.274,565.014 255.274,565.629ZM253.665,560.66C253.665,560.181 253.472,559.796 253.087,559.504C252.712,559.212 252.233,559.066 251.649,559.066C251.076,559.066 250.608,559.202 250.243,559.473C249.879,559.743 249.696,560.113 249.696,560.582C249.696,560.915 249.785,561.202 249.962,561.441C250.149,561.681 250.431,561.889 250.806,562.066C250.972,562.15 251.212,562.259 251.524,562.395C251.847,562.53 252.16,562.639 252.462,562.723C252.91,562.421 253.222,562.108 253.399,561.785C253.576,561.462 253.665,561.087 253.665,560.66ZM253.868,565.77C253.868,565.342 253.774,565.004 253.587,564.754C253.41,564.504 253.05,564.249 252.509,563.988C252.3,563.894 252.066,563.806 251.806,563.723C251.556,563.629 251.217,563.504 250.79,563.348C250.373,563.577 250.04,563.884 249.79,564.27C249.55,564.645 249.431,565.077 249.431,565.566C249.431,566.181 249.639,566.691 250.056,567.098C250.483,567.493 251.024,567.691 251.681,567.691C252.347,567.691 252.879,567.519 253.274,567.176C253.67,566.832 253.868,566.363 253.868,565.77ZM264.196,568.473L257.306,568.473L257.306,567.051C257.785,566.634 258.264,566.223 258.743,565.816C259.233,565.4 259.686,564.988 260.102,564.582C260.977,563.738 261.576,563.066 261.899,562.566C262.222,562.066 262.384,561.53 262.384,560.957C262.384,560.426 262.207,560.014 261.852,559.723C261.509,559.421 261.024,559.27 260.399,559.27C259.983,559.27 259.53,559.342 259.04,559.488C258.561,559.634 258.092,559.858 257.634,560.16L257.571,560.16L257.571,558.723C257.894,558.556 258.321,558.41 258.852,558.285C259.394,558.15 259.92,558.082 260.431,558.082C261.472,558.082 262.29,558.337 262.884,558.848C263.477,559.348 263.774,560.025 263.774,560.879C263.774,561.275 263.722,561.639 263.618,561.973C263.524,562.306 263.384,562.624 263.196,562.926C263.019,563.207 262.811,563.483 262.571,563.754C262.332,564.025 262.04,564.327 261.696,564.66C261.207,565.139 260.701,565.603 260.181,566.051C259.66,566.499 259.175,566.915 258.727,567.301L264.196,567.301L264.196,568.473ZM268.571,568.473L266.946,568.473L266.946,566.52L268.571,566.52L268.571,568.473ZM277.306,563.566C277.524,563.764 277.701,564.014 277.837,564.316C277.983,564.608 278.056,564.988 278.056,565.457C278.056,565.926 277.972,566.353 277.806,566.738C277.639,567.124 277.405,567.462 277.102,567.754C276.759,568.066 276.352,568.301 275.884,568.457C275.425,568.613 274.92,568.691 274.368,568.691C273.806,568.691 273.248,568.624 272.696,568.488C272.155,568.353 271.707,568.202 271.352,568.035L271.352,566.613L271.462,566.613C271.847,566.863 272.3,567.077 272.821,567.254C273.342,567.421 273.847,567.504 274.337,567.504C274.629,567.504 274.936,567.457 275.259,567.363C275.582,567.259 275.842,567.118 276.04,566.941C276.248,566.733 276.405,566.509 276.509,566.27C276.613,566.03 276.665,565.723 276.665,565.348C276.665,564.983 276.608,564.686 276.493,564.457C276.379,564.217 276.217,564.025 276.009,563.879C275.8,563.743 275.55,563.65 275.259,563.598C274.967,563.546 274.655,563.52 274.321,563.52L273.712,563.52L273.712,562.379L274.181,562.379C274.879,562.379 275.431,562.238 275.837,561.957C276.254,561.665 276.462,561.238 276.462,560.676C276.462,560.436 276.41,560.223 276.306,560.035C276.201,559.848 276.056,559.697 275.868,559.582C275.67,559.457 275.457,559.374 275.227,559.332C275.009,559.29 274.759,559.27 274.477,559.27C274.04,559.27 273.576,559.348 273.087,559.504C272.608,559.65 272.149,559.868 271.712,560.16L271.649,560.16L271.649,558.723C271.972,558.566 272.405,558.421 272.946,558.285C273.488,558.15 274.009,558.082 274.509,558.082C275.009,558.082 275.446,558.129 275.821,558.223C276.207,558.306 276.55,558.452 276.852,558.66C277.175,558.879 277.42,559.144 277.587,559.457C277.764,559.759 277.852,560.118 277.852,560.535C277.852,561.098 277.649,561.592 277.243,562.02C276.847,562.436 276.379,562.702 275.837,562.816L275.837,562.91C276.056,562.941 276.306,563.02 276.587,563.145C276.868,563.259 277.108,563.4 277.306,563.566ZM285.259,561.113C285.259,562.134 285.04,562.895 284.602,563.395C284.175,563.895 283.556,564.145 282.743,564.145C281.92,564.145 281.295,563.895 280.868,563.395C280.441,562.895 280.227,562.139 280.227,561.129C280.227,560.108 280.441,559.348 280.868,558.848C281.306,558.348 281.931,558.098 282.743,558.098C283.566,558.098 284.191,558.353 284.618,558.863C285.045,559.363 285.259,560.113 285.259,561.113ZM289.977,558.301L284.649,568.473L283.524,568.473L288.852,558.301L289.977,558.301ZM293.259,565.645C293.259,566.665 293.04,567.426 292.602,567.926C292.175,568.426 291.556,568.676 290.743,568.676C289.92,568.676 289.295,568.426 288.868,567.926C288.451,567.415 288.243,566.66 288.243,565.66C288.243,564.639 288.457,563.879 288.884,563.379C289.311,562.879 289.931,562.629 290.743,562.629C291.576,562.629 292.201,562.879 292.618,563.379C293.045,563.879 293.259,564.634 293.259,565.645ZM284.04,561.113C284.04,560.332 283.936,559.785 283.727,559.473C283.53,559.16 283.201,559.004 282.743,559.004C282.285,559.004 281.951,559.16 281.743,559.473C281.545,559.785 281.446,560.337 281.446,561.129C281.446,561.91 281.545,562.457 281.743,562.77C281.951,563.072 282.285,563.223 282.743,563.223C283.201,563.223 283.53,563.072 283.727,562.77C283.936,562.457 284.04,561.905 284.04,561.113ZM292.04,565.645C292.04,564.863 291.936,564.322 291.727,564.02C291.53,563.707 291.207,563.551 290.759,563.551C290.29,563.551 289.951,563.707 289.743,564.02C289.545,564.322 289.446,564.868 289.446,565.66C289.446,566.441 289.545,566.988 289.743,567.301C289.951,567.603 290.29,567.754 290.759,567.754C291.207,567.754 291.53,567.603 291.727,567.301C291.936,566.988 292.04,566.436 292.04,565.645Z" style="fill:white;fill-rule:nonzero;"/>
    </g>
    <g transform="matrix(3.72834,0,0,3.72848,-111.047,-273.546)">
        <path d="M233.934,130.841C233.934,131.872 233.591,132.716 232.903,133.372C232.226,134.028 231.393,134.356 230.403,134.356C229.903,134.356 229.445,134.278 229.028,134.122C228.622,133.966 228.262,133.731 227.95,133.419C227.565,133.044 227.262,132.544 227.044,131.919C226.835,131.294 226.731,130.544 226.731,129.669C226.731,128.763 226.825,127.961 227.012,127.263C227.21,126.565 227.523,125.945 227.95,125.403C228.346,124.893 228.861,124.492 229.497,124.2C230.132,123.909 230.872,123.763 231.716,123.763C231.986,123.763 232.21,123.778 232.387,123.81C232.575,123.83 232.762,123.867 232.95,123.919L232.95,125.231L232.872,125.231C232.747,125.159 232.554,125.096 232.294,125.044C232.044,124.981 231.783,124.95 231.512,124.95C230.533,124.95 229.752,125.258 229.169,125.872C228.585,126.476 228.247,127.299 228.153,128.341C228.528,128.112 228.903,127.94 229.278,127.825C229.653,127.7 230.08,127.638 230.559,127.638C230.997,127.638 231.377,127.679 231.7,127.763C232.033,127.836 232.377,127.992 232.731,128.231C233.127,128.513 233.424,128.867 233.622,129.294C233.83,129.711 233.934,130.226 233.934,130.841ZM232.544,130.888C232.544,130.461 232.481,130.112 232.356,129.841C232.231,129.56 232.028,129.315 231.747,129.106C231.539,128.961 231.304,128.867 231.044,128.825C230.794,128.784 230.528,128.763 230.247,128.763C229.861,128.763 229.502,128.81 229.169,128.903C228.835,128.987 228.492,129.127 228.137,129.325C228.127,129.419 228.117,129.513 228.106,129.606L228.106,129.966C228.106,130.685 228.179,131.252 228.325,131.669C228.481,132.086 228.69,132.414 228.95,132.653C229.158,132.851 229.382,132.997 229.622,133.091C229.872,133.185 230.137,133.231 230.419,133.231C231.085,133.231 231.606,133.034 231.981,132.638C232.356,132.231 232.544,131.648 232.544,130.888ZM238.153,134.138L236.528,134.138L236.528,132.185L238.153,132.185L238.153,134.138ZM247.778,129.044C247.778,130.867 247.492,132.211 246.919,133.075C246.346,133.929 245.455,134.356 244.247,134.356C243.028,134.356 242.137,133.924 241.575,133.06C241.012,132.185 240.731,130.851 240.731,129.06C240.731,127.247 241.012,125.909 241.575,125.044C242.148,124.179 243.039,123.747 244.247,123.747C245.476,123.747 246.372,124.19 246.934,125.075C247.497,125.95 247.778,127.273 247.778,129.044ZM245.981,132.153C246.137,131.778 246.242,131.341 246.294,130.841C246.356,130.341 246.387,129.742 246.387,129.044C246.387,128.356 246.356,127.758 246.294,127.247C246.242,126.737 246.132,126.299 245.966,125.935C245.809,125.591 245.591,125.33 245.309,125.153C245.039,124.976 244.684,124.888 244.247,124.888C243.82,124.888 243.466,124.976 243.184,125.153C242.903,125.33 242.684,125.596 242.528,125.95C242.372,126.294 242.262,126.737 242.2,127.278C242.148,127.82 242.122,128.414 242.122,129.06C242.122,129.768 242.143,130.362 242.184,130.841C242.236,131.32 242.346,131.747 242.512,132.122C242.669,132.476 242.882,132.747 243.153,132.935C243.434,133.122 243.799,133.216 244.247,133.216C244.674,133.216 245.028,133.127 245.309,132.95C245.601,132.773 245.825,132.508 245.981,132.153ZM254.841,126.778C254.841,127.799 254.622,128.56 254.184,129.06C253.757,129.56 253.137,129.81 252.325,129.81C251.502,129.81 250.877,129.56 250.45,129.06C250.023,128.56 249.809,127.804 249.809,126.794C249.809,125.773 250.023,125.013 250.45,124.513C250.887,124.013 251.512,123.763 252.325,123.763C253.148,123.763 253.773,124.018 254.2,124.528C254.627,125.028 254.841,125.778 254.841,126.778ZM259.559,123.966L254.231,134.138L253.106,134.138L258.434,123.966L259.559,123.966ZM262.841,131.31C262.841,132.33 262.622,133.091 262.184,133.591C261.757,134.091 261.137,134.341 260.325,134.341C259.502,134.341 258.877,134.091 258.45,133.591C258.033,133.08 257.825,132.325 257.825,131.325C257.825,130.304 258.039,129.544 258.466,129.044C258.893,128.544 259.512,128.294 260.325,128.294C261.158,128.294 261.783,128.544 262.2,129.044C262.627,129.544 262.841,130.299 262.841,131.31ZM253.622,126.778C253.622,125.997 253.518,125.45 253.309,125.138C253.111,124.825 252.783,124.669 252.325,124.669C251.867,124.669 251.533,124.825 251.325,125.138C251.127,125.45 251.028,126.002 251.028,126.794C251.028,127.575 251.127,128.122 251.325,128.435C251.533,128.737 251.867,128.888 252.325,128.888C252.783,128.888 253.111,128.737 253.309,128.435C253.518,128.122 253.622,127.57 253.622,126.778ZM261.622,131.31C261.622,130.528 261.518,129.987 261.309,129.685C261.111,129.372 260.789,129.216 260.341,129.216C259.872,129.216 259.533,129.372 259.325,129.685C259.127,129.987 259.028,130.534 259.028,131.325C259.028,132.106 259.127,132.653 259.325,132.966C259.533,133.268 259.872,133.419 260.341,133.419C260.789,133.419 261.111,133.268 261.309,132.966C261.518,132.653 261.622,132.101 261.622,131.31Z" style="fill:white;fill-rule:nonzero;"/>
    </g>
</svg>
