<?xml version="1.0" encoding="utf-8"?>
<!-- Generator: Adobe Illustrator 16.0.0, SVG Export Plug-In . SVG Version: 6.00 Build 0)  -->
<!DOCTYPE svg PUBLIC "-//W3C//DTD SVG 1.1//EN" "http://www.w3.org/Graphics/SVG/1.1/DTD/svg11.dtd">
<svg version="1.1" id="Layer_2" xmlns="http://www.w3.org/2000/svg" xmlns:xlink="http://www.w3.org/1999/xlink" x="0px" y="0px"
	 width="453.543px" height="453.543px" viewBox="0 0 453.543 453.543" enable-background="new 0 0 453.543 453.543"
	 xml:space="preserve">
<g>
	<g>
		<g>
			<path fill="#181E30" d="M14.539,226.772c0-117.214,95.018-212.232,212.232-212.232c117.218,0,212.233,95.018,212.233,212.232
				c0,117.216-95.016,212.231-212.233,212.231C117.556,439.003,14.539,343.99,14.539,226.772L14.539,226.772z"/>
		</g>
	</g>
	<path fill="#F6192E" d="M399.629,158.732c-0.49-7.414-4.868-12.872-10.536-17.066c-3.053-2.262-4.161-4.781-4.458-8.341
		c-0.347-4.199-1.167-8.37-1.973-12.517c-0.449-2.297-1.272-4.524-1.953-6.777c-0.298-0.977-0.176-1.701,0.906-2.076
		c0.375-0.13,0.706-0.39,1.051-0.604c4.337-2.706,4.994-4.249,2.708-8.73c-5.242-10.282-10.522-20.555-16.144-30.629
		c-3.248-5.822-7.786-10.64-13.445-14.397c-11.185-7.425-23.104-7.896-35.567-4.259c-9.482,2.768-18.189,7.173-26.456,12.521
		c-8.627,5.579-12.774,14.125-15.363,23.558c-4.043,14.729-4.999,29.836-4.648,45.024c0.168,7.361,0.783,14.716,1.327,22.061
		c0.129,1.691-0.399,2.541-1.719,3.607c-3.656,2.962-7.282,6.033-10.458,9.485c-1.601,1.738-2.724,4.303-3.147,6.658
		c-1.477,8.243,4.99,13.928,13.143,11.776c2.313-0.61,4.562-1.475,7.201-2.344c-0.342,1.331-0.558,2.295-0.835,3.241
		c-1.511,5.128-1.229,10.198,0.8,15.094c1.166,2.812,2.38,5.6,3.681,8.341h-97.672c-21.465,0-43.667,10.048-43.667,26.864
		c0,20.258,21.676,35.5,68.216,47.965c23.562,6.311,51.118,11.539,73.261,15.74c14.734,2.797,27.459,5.211,33.097,6.889
		c0.13,0.039,0.262,0.072,0.395,0.102c27.631,5.83,51.371,18.428,57.732,30.633c1.968,3.777,2.196,7.326,0.73,10.777
		c-3.292,7.406-18.229,21.855-81.272,35.396c-44.685,9.598-112.151,17.043-176.643,20.109c0,0,1.484,0.973,7.309,4.367
		c5.823,3.395,8.733,4.734,8.733,4.734c65.02-3.09,117.498-9.725,162.7-19.434c51.379-11.037,81.092-24.869,88.344-41.188
		c2.665-6.27,2.308-12.973-1.034-19.385c-9.559-18.342-40.585-30.711-64.34-35.756c-6.191-1.814-18.433-4.137-33.887-7.07
		c-21.979-4.17-49.334-9.359-72.538-15.576c-40.914-10.957-60.803-23.488-60.803-38.305c0-8.984,15.732-16.864,33.667-16.864
		h103.105c1.144,1.809,2.363,3.578,3.688,5.288c0.422,0.543,0.758,1.287,0.812,1.962c0.566,6.809,7.272,12.168,14.039,11.217
		c0.617-0.088,1.334,0.084,1.92,0.336c10.497,4.463,21.172,4.215,31.683,0.504c10.812-3.822,15.906-12.346,16.89-23.368
		c0.403-4.52-0.129-9.123-0.235-13.647c0.2,0.088,0.717,0.25,1.164,0.522c6.738,4.072,13.78,3.989,21.112,1.859
		c6.842-1.988,12.029-5.828,15.56-12.079c2.713-4.803,4.592-9.712,4.37-15.345C399.91,172.651,400.086,165.673,399.629,158.732z
		 M280.73,183.458c-0.111,0.286-0.616,0.482-0.98,0.605c-2.359,0.8-4.706,1.656-7.106,2.327c-5.109,1.433-9.053-0.29-10.73-4.566
		c-1.502-3.825-0.631-7.289,1.627-10.516c3.119-4.452,7.33-7.704,11.834-10.617c0.312-0.203,0.762-0.375,1.105-0.315
		c1.769,0.301,3.52,0.683,5.424,1.065c0.368,5.077,1.014,10.313,1.01,15.548C282.911,179.149,281.546,181.317,280.73,183.458z
		 M292.416,165.302c-2.668,2.693-5.384,5.334-8.045,7.949c-0.249-3.809-0.524-8.024-0.794-12.135
		c2.992-0.874,5.725-1.671,8.534-2.494c0.275,1.839,0.582,3.562,0.767,5.3C292.925,164.367,292.728,164.986,292.416,165.302z
		 M378.902,113.437c0.485,2.002,0.925,3.807,1.402,5.764c-2.38,0.181-4.551,0.347-6.782,0.517c-0.311-1.659-0.577-3.07-0.845-4.495
		C374.887,114.59,376.843,114.027,378.902,113.437z M370.349,115.458c0.285,0,0.757,0.547,0.827,0.909
		c1.032,5.271,2.011,10.553,3.04,16.026c-1.623-0.12-3.179,0.073-4.503-0.391c-3.713-1.305-7.33-2.886-10.992-4.343
		c-0.624-0.249-1.275-0.43-2.083-0.699c0.407-0.314,0.554-0.455,0.725-0.555c4.533-2.667,9.31-5.056,11.453-10.392
		C368.957,115.661,369.821,115.457,370.349,115.458z M293.915,159.666c-0.36-1.465,0.042-2.336,1.355-3.128
		c2.591-1.56,3.53-3.827,3.377-6.998c-0.538-11.205-1.092-22.425-1.048-33.636c0.049-11.516,1.673-22.87,4.961-33.991
		c2.382-8.053,6.96-13.71,14.78-17.083c4.141-1.786,7.87-2.055,11.828-0.083c1.086,0.542,2.176,1.085,3.238,1.671
		c6.367,3.52,10.701,9.006,14.479,15.019c5.907,9.399,10.995,19.234,15.362,29.433c0.982,2.299,2.078,4.227,4.911,4.474
		c-1.006,2.751-2.71,4.64-4.896,6.071c-2.43,1.591-4.973,3.011-7.402,4.594c-0.557,0.362-0.88,1.084-1.312,1.642
		c0.629,0.309,1.23,0.714,1.889,0.912c4.059,1.2,8.124,2.354,12.187,3.524c-3.53,1.511-6.937,2.542-10.362,3.498
		c-7.044,1.962-11.328,6.842-13.954,13.35c-2.221,5.493-2.71,11.284-2.222,17.143c0.347,4.083,0.905,8.149,1.4,12.49
		c-0.546-0.461-0.909-0.835-1.337-1.116c-5.118-3.381-9.99-7.242-15.42-10.012c-9.753-4.978-20.055-7.312-31.123-3.345
		C294.36,162.453,294.248,161.033,293.915,159.666z M309.915,239.47c1.035-4.545-0.779-7.795-3.746-10.56
		c-2.974-2.769-6.516-3.974-10.979-3.216c3.932-3.138,9.92-1.658,13.929,2.977C311.698,231.653,313.389,236.873,309.915,239.47z
		 M348.531,229.473c-1.15,5.626-5.89,10.253-11.28,10.716c1.175-0.607,2.123-1.051,3.028-1.574c4.198-2.424,6.369-6.1,6.677-10.912
		c0.267-4.263-0.71-8.316-2.072-12.308c-4.974-14.568-13.785-25.608-28.641-31.03c-2.956-1.079-6.001-1.905-9.005-2.846
		c0.658-0.146,1.309-0.173,1.944-0.079c7.673,1.133,14.763,3.75,21.099,8.302c8.942,6.428,13.742,15.601,17.023,25.749
		C348.775,220.033,349.51,224.688,348.531,229.473z M375.345,151.799c-1.359-1.358-3.592-2.502-5.468-2.562
		c-6.655-0.208-12.338,4.55-13.109,11.164c-0.586,5.067-0.799,10.277-0.333,15.348c0.781,8.53,5.231,15.05,12.575,19.533
		c0.391,0.241,0.769,0.505,1.151,0.758c-9.091-1.041-15.326-6.041-18.725-14.348c-3.274-7.996-3.577-16.376-1.485-24.691
		c2.234-8.89,11.138-14.626,20.175-13.245c5.647,0.863,8.473,4.912,10.126,9.932c0.64,1.934,0.929,3.983,1.461,6.36
		C379.395,156.97,377.653,154.102,375.345,151.799z M379.162,135.054c-2.927-0.964-3.821-3.017-3.644-5.996
		c1.917,0.001,3.859-0.056,5.792,0.044c0.436,0.022,1.14,0.537,1.212,0.919c0.422,2.303,0.7,4.631,1.09,7.423
		C381.857,136.479,380.589,135.523,379.162,135.054z"/>
	<g>
		<path fill="#FFFFFF" d="M142.921,269.962v-3.547c1.081,2.785,4.058,4.383,8.585,4.383c6.492,0,9.297-1.969,10.428-3.057
			c0.168,0.838,0.587,2.848,4.355,2.848c1.968,0,2.974-0.293,4.105-0.502v-0.125h4.265v-9.754c0.459,5.494,4.322,10.59,13.688,10.59
			c8.46,0,11.476-4.898,12.731-7.371h-6.282c-1.131,1.844-2.805,3.184-6.616,3.184c-5.737,0-7.412-3.811-7.54-6.281h20.942v-0.838
			c0-6.492-3.771-12.566-13.611-12.566c-7.501,0-12.822,4.301-13.312,11.113v-18.482h-5.779v26.588
			c-0.131,0.004-0.261,0.006-0.371,0.006c-0.377,0-1.256-0.041-1.256-1.256v-10.512c0-2.891-0.335-7.457-11.936-7.457
			c-6.575,0-10.887,1.803-11.727,7.623h5.653c0.21-2.471,2.262-3.684,6.073-3.684c3.351,0,6.282,0.627,6.282,3.182
			c0,1.719-0.88,2.01-9.172,2.807c-3.096,0.281-8.008,0.725-9.507,4.475v-6.107c0-6.787-5.276-8.041-8.837-8.041
			c-4.649,0-7.58,2.051-9.005,4.102c-1.548-3.641-5.234-4.102-7.831-4.102c-3.937,0-6.868,1.549-8.753,3.936h-0.086v-3.35h-5.778
			v9.152c-0.911-5.436-4.875-9.992-13.396-9.992c-4.352,0-7.967,1.451-10.337,3.994v-3.154h-6.072v-1.717
			c0-2.012,0.46-2.639,3.1-2.639c1.087,0,2.344,0.082,2.973,0.168v-4.188c-1.342-0.086-2.681-0.17-5.193-0.17
			c-6.03,0-6.658,3.227-6.658,5.697v2.848H62.48v4.188h4.566v18.01h5.779v-18.01h5.214c-1.389,1.922-2.166,4.33-2.166,7.119
			c0,5.906,3.729,11.727,13.737,11.727c8.46,0,11.477-4.898,12.731-7.371H96.06c-1.131,1.844-2.806,3.184-6.617,3.184
			c-5.737,0-7.412-3.811-7.539-6.281h20.728v9.633h5.778v-12.357c0-4.857,4.022-5.988,6.033-5.988c5.151,0,5.445,2.809,5.445,5.111
			v13.234h5.777v-12.357c0-4.857,4.021-5.988,6.032-5.988c5.15,0,5.443,2.809,5.443,5.111v13.234H142.921z M188.054,250.865
			c2.85,0,6.785,1.34,7.497,5.779h-14.91C181.606,252.121,185.375,250.865,188.054,250.865z M153.893,260.287
			c4.105-0.461,5.906-0.67,7.581-1.381v2.135c0,4.9-5.234,6.072-8.334,6.072c-1.968,0-4.648-0.545-4.648-3.475
			C148.492,261.753,149.538,260.789,153.893,260.287z M81.904,256.644c0.964-4.523,4.733-5.779,7.415-5.779
			c2.848,0,6.783,1.34,7.497,5.779H81.904z"/>
		<path fill="#FFFFFF" d="M343.364,259.951c0,4.734-4.188,6.41-6.743,6.41c-4.942,0-5.738-2.555-5.738-5.947v-12.648h-5.776v12.754
			c-1.508-2.758-5.683-3.385-11.437-4.211c-5.569-0.795-6.115-1.088-6.115-2.889c0-1.172,1.76-2.555,5.028-2.555
			c1.968,0,5.82,0.375,6.281,3.684h6.029c-0.335-7.119-8.583-7.623-12.018-7.623c-3.604,0-10.599,0.801-11.058,6.572
			c-1.069-6.109-8.639-6.572-11.894-6.572c-3.729,0-11.097,0.84-11.097,7.164c0,5.068,3.6,5.861,10.47,6.785
			c6.238,0.834,7.202,1.424,7.202,3.137c0,2.098-3.141,2.85-6.029,2.85c-2.094,0-5.948-0.5-6.114-3.852h-6.284
			c0.005,0.146,0.031,0.275,0.042,0.418h-5.484c-1.128,1.844-2.803,3.184-6.614,3.184c-5.737,0-7.413-3.811-7.538-6.281h20.938
			v-0.838c0-6.492-3.77-12.566-13.61-12.566c-4.995,0-9.023,1.912-11.305,5.197v-4.734c-0.756-0.127-1.424-0.209-2.303-0.209
			c-4.438,0-6.827,2.385-8.377,4.898h-0.084v-4.312h-5.778v7.785c-1.22-4.441-4.923-8.371-11.682-8.371
			c-3.476,0-6.785,1.088-8.501,3.77h-0.083v-3.184h-5.78v30.654h5.78v-11.516h0.083c0.419,1.34,3.896,3.895,8.501,3.895
			c6.759,0,10.462-3.93,11.682-8.416v7.58h5.778v-10.721c0-5.152,4.147-6.701,7.077-6.701c0.887,0,1.861,0.051,3.163,0.402
			c-0.987,1.736-1.53,3.801-1.53,6.129c0,5.906,3.724,11.727,13.733,11.727c7.302,0,10.544-3.645,12.104-6.234
			c1.235,5.375,7.887,6.234,12.225,6.234c5.324,0,9.756-1.166,11.485-4.318c2.204,3.672,7.703,4.318,11.468,4.318
			c5.946,0,10.787-1.449,11.98-5.506c1.136,4.273,5.061,5.506,9.085,5.506c3.937,0,6.869-1.549,8.753-3.938h0.083v3.102h5.78
			v-22.197h-5.78V259.951z M265.888,250.865c2.848,0,6.786,1.34,7.496,5.779h-14.907
			C259.441,252.121,263.21,250.865,265.888,250.865z M224.896,266.361c-5.404,0-7.455-3.645-7.455-7.414
			c0-3.686,2.051-7.33,7.455-7.33c5.443,0,7.495,3.645,7.495,7.33C232.391,262.716,230.339,266.361,224.896,266.361z
			 M313.419,266.861c-2.093,0-5.946-0.5-6.115-3.852h-4.534c-0.135-4.953-4.867-5.67-12.051-6.701
			c-5.571-0.795-6.112-1.088-6.112-2.889c0-1.172,1.758-2.555,5.022-2.555c1.97,0,5.822,0.375,6.285,3.684h5.881
			c0.222,4.648,3.804,5.432,10.452,6.326c6.239,0.834,7.203,1.424,7.203,3.137C319.451,266.109,316.31,266.861,313.419,266.861z"/>
		<path fill="#FFFFFF" d="M391.095,259.492c0-6.492-3.77-12.566-13.61-12.566c-4.995,0-9.022,1.91-11.305,5.195v-4.732
			c-0.756-0.127-1.425-0.209-2.303-0.209c-4.438,0-6.827,2.385-8.377,4.898h-0.084v-4.312h-5.777v22.197h5.777v-10.721
			c0-5.152,4.147-6.701,7.077-6.701c0.887,0,1.857,0.051,3.161,0.402c-0.987,1.736-1.53,3.799-1.53,6.129
			c0,5.906,3.726,11.727,13.737,11.727c8.461,0,11.476-4.898,12.731-7.371h-6.282c-1.13,1.844-2.805,3.184-6.616,3.184
			c-5.739,0-7.413-3.811-7.541-6.281h20.941V259.492z M370.154,256.644c0.965-4.523,4.734-5.779,7.414-5.779
			c2.848,0,6.784,1.34,7.496,5.779H370.154z"/>
		<rect x="203.197" y="248.97" fill="#FFFFFF" width="6.232" height="5.672"/>
		<rect x="203.197" y="264.191" fill="#FFFFFF" width="6.232" height="5.674"/>
		<path fill="#FFFFFF" d="M85.397,282.949c-0.807-1.025-1.818-1.838-3.034-2.439c-1.217-0.602-2.645-0.902-4.284-0.902
			c-1.477,0-2.829,0.266-4.06,0.799c-1.229,0.533-2.132,1.389-2.706,2.562h-0.082v-2.869h-3.484v29.273h3.484v-10.906h0.082
			c0.383,0.629,0.854,1.156,1.415,1.578c0.56,0.426,1.154,0.76,1.783,1.006s1.264,0.424,1.906,0.533
			c0.643,0.107,1.224,0.164,1.743,0.164c1.612,0,3.026-0.287,4.243-0.861c1.216-0.574,2.228-1.359,3.034-2.357
			c0.806-0.998,1.407-2.166,1.804-3.506c0.396-1.34,0.595-2.76,0.595-4.264s-0.205-2.926-0.615-4.264
			C86.811,285.156,86.203,283.974,85.397,282.949z M83.818,293.546c-0.219,0.984-0.573,1.859-1.065,2.625s-1.142,1.381-1.947,1.844
			c-0.807,0.467-1.812,0.697-3.014,0.697c-1.203,0-2.229-0.225-3.075-0.676c-0.848-0.451-1.537-1.045-2.07-1.783
			s-0.923-1.592-1.169-2.562s-0.369-1.975-0.369-3.014c0-0.984,0.116-1.955,0.349-2.912c0.232-0.955,0.608-1.811,1.128-2.562
			c0.519-0.75,1.188-1.359,2.009-1.824s1.817-0.697,2.993-0.697c1.12,0,2.098,0.221,2.932,0.656c0.833,0.438,1.517,1.025,2.05,1.764
			s0.929,1.578,1.188,2.521s0.39,1.906,0.39,2.891C84.146,291.552,84.037,292.562,83.818,293.546z"/>
		<path fill="#FFFFFF" d="M108.417,282.826c-0.875-0.998-1.947-1.783-3.219-2.357c-1.271-0.574-2.754-0.861-4.448-0.861
			c-1.667,0-3.144,0.287-4.428,0.861c-1.285,0.574-2.364,1.359-3.239,2.357s-1.531,2.172-1.968,3.525
			c-0.438,1.354-0.656,2.809-0.656,4.367s0.219,3.006,0.656,4.346c0.437,1.34,1.093,2.508,1.968,3.506s1.954,1.777,3.239,2.336
			c1.284,0.561,2.761,0.842,4.428,0.842c1.694,0,3.178-0.281,4.448-0.842c1.271-0.559,2.344-1.338,3.219-2.336
			s1.53-2.166,1.968-3.506s0.656-2.787,0.656-4.346s-0.219-3.014-0.656-4.367S109.292,283.824,108.417,282.826z M106.839,294.142
			c-0.343,0.998-0.813,1.83-1.415,2.5s-1.306,1.184-2.111,1.537c-0.807,0.355-1.66,0.533-2.562,0.533
			c-0.901,0-1.757-0.178-2.562-0.533c-0.807-0.354-1.511-0.867-2.111-1.537c-0.602-0.67-1.073-1.502-1.414-2.5
			c-0.343-0.998-0.513-2.139-0.513-3.424s0.17-2.426,0.513-3.424c0.341-0.998,0.812-1.838,1.414-2.521
			c0.601-0.684,1.305-1.203,2.111-1.559c0.806-0.354,1.661-0.533,2.562-0.533c0.902,0,1.756,0.18,2.562,0.533
			c0.806,0.355,1.51,0.875,2.111,1.559s1.072,1.523,1.415,2.521c0.341,0.998,0.513,2.139,0.513,3.424
			S107.18,293.144,106.839,294.142z"/>
		<path fill="#FFFFFF" d="M130.271,282.927h-0.082c-0.384-0.627-0.854-1.154-1.415-1.578s-1.154-0.764-1.783-1.025
			c-0.629-0.258-1.258-0.443-1.886-0.553c-0.629-0.109-1.217-0.164-1.764-0.164c-1.612,0-3.027,0.295-4.243,0.881
			c-1.217,0.588-2.229,1.381-3.034,2.379c-0.807,0.998-1.408,2.166-1.804,3.506c-0.396,1.34-0.595,2.76-0.595,4.264
			s0.205,2.924,0.615,4.264s1.018,2.516,1.824,3.525c0.806,1.012,1.817,1.818,3.034,2.42c1.216,0.602,2.645,0.902,4.284,0.902
			c1.477,0,2.829-0.262,4.06-0.779c1.229-0.52,2.132-1.367,2.706-2.543h0.082v2.871h3.484v-29.275h-3.484V282.927z M130.045,293.628
			c-0.232,0.957-0.608,1.812-1.128,2.562c-0.52,0.752-1.188,1.361-2.009,1.824c-0.82,0.467-1.818,0.697-2.993,0.697
			c-1.121,0-2.098-0.219-2.932-0.656c-0.834-0.436-1.517-1.023-2.05-1.762s-0.93-1.578-1.188-2.521
			c-0.261-0.943-0.39-1.906-0.39-2.891c0-1.039,0.108-2.051,0.328-3.035c0.218-0.982,0.573-1.857,1.065-2.623
			s1.148-1.381,1.968-1.846c0.82-0.465,1.817-0.697,2.993-0.697c1.203,0,2.228,0.227,3.075,0.678
			c0.847,0.451,1.537,1.045,2.07,1.783s0.923,1.592,1.169,2.562s0.369,1.975,0.369,3.014
			C130.394,291.703,130.277,292.673,130.045,293.628z"/>
		<path fill="#FFFFFF" d="M151.57,297.361c-0.971,0.9-2.316,1.352-4.039,1.352c-1.093,0-2.036-0.219-2.829-0.656
			c-0.793-0.436-1.435-1.018-1.927-1.742c-0.492-0.723-0.854-1.551-1.086-2.48c-0.233-0.928-0.349-1.885-0.349-2.869
			c0-1.066,0.108-2.098,0.328-3.096c0.218-0.998,0.58-1.879,1.086-2.645s1.183-1.381,2.029-1.846
			c0.848-0.465,1.899-0.697,3.157-0.697c1.477,0,2.651,0.369,3.526,1.107c0.874,0.738,1.448,1.777,1.722,3.117h3.608
			c-0.138-1.258-0.466-2.344-0.984-3.26c-0.52-0.916-1.183-1.674-1.988-2.275c-0.807-0.602-1.736-1.047-2.788-1.334
			c-1.053-0.287-2.18-0.43-3.383-0.43c-1.667,0-3.13,0.295-4.387,0.881c-1.258,0.588-2.303,1.395-3.137,2.42
			s-1.455,2.229-1.865,3.607c-0.41,1.381-0.615,2.863-0.615,4.449s0.212,3.041,0.636,4.365c0.424,1.326,1.052,2.469,1.886,3.424
			c0.834,0.957,1.872,1.695,3.116,2.215c1.243,0.518,2.671,0.779,4.284,0.779c2.706,0,4.845-0.711,6.417-2.133
			c1.571-1.42,2.548-3.443,2.932-6.068h-3.567C153.134,295.187,152.54,296.458,151.57,297.361z"/>
		<path fill="#FFFFFF" d="M177.235,298.099c-0.096-0.381-0.144-0.98-0.144-1.801v-10.883c0-1.227-0.232-2.223-0.696-2.986
			c-0.466-0.762-1.08-1.355-1.846-1.779c-0.766-0.422-1.619-0.701-2.562-0.838c-0.942-0.137-1.893-0.205-2.85-0.205
			c-1.203,0-2.33,0.123-3.382,0.369c-1.053,0.246-1.989,0.65-2.809,1.209c-0.82,0.561-1.477,1.291-1.968,2.193
			c-0.492,0.902-0.766,2.01-0.82,3.322h3.484c0.082-1.559,0.615-2.617,1.6-3.178c0.983-0.561,2.214-0.842,3.689-0.842
			c0.547,0,1.101,0.041,1.661,0.123c0.56,0.082,1.065,0.246,1.517,0.492s0.82,0.602,1.107,1.066s0.431,1.08,0.431,1.846
			c0,0.656-0.192,1.154-0.574,1.496c-0.383,0.342-0.902,0.602-1.559,0.779c-0.655,0.178-1.414,0.314-2.275,0.41
			c-0.86,0.096-1.77,0.238-2.727,0.43c-0.901,0.164-1.783,0.369-2.645,0.615c-0.86,0.246-1.626,0.609-2.296,1.086
			c-0.67,0.479-1.209,1.102-1.619,1.865c-0.41,0.766-0.615,1.75-0.615,2.953c0,1.066,0.185,1.975,0.554,2.727
			s0.867,1.359,1.496,1.824s1.374,0.807,2.235,1.025c0.86,0.219,1.769,0.328,2.726,0.328c1.477,0,2.85-0.254,4.121-0.76
			c1.271-0.504,2.384-1.332,3.342-2.48c0,1.148,0.266,1.977,0.799,2.48c0.533,0.506,1.251,0.76,2.152,0.76
			c1.066,0,1.899-0.18,2.501-0.533v-2.707c-0.409,0.109-0.766,0.164-1.065,0.164C177.652,298.671,177.331,298.482,177.235,298.099z
			 M173.607,293.898c0,0.49-0.123,1.014-0.369,1.572c-0.246,0.557-0.629,1.074-1.148,1.549c-0.52,0.477-1.188,0.871-2.009,1.184
			s-1.804,0.469-2.952,0.469c-0.547,0-1.065-0.053-1.558-0.162s-0.923-0.285-1.292-0.531c-0.369-0.244-0.67-0.564-0.901-0.959
			c-0.233-0.395-0.349-0.877-0.349-1.447c0-0.871,0.197-1.557,0.595-2.061c0.396-0.504,0.908-0.891,1.537-1.162
			c0.628-0.271,1.339-0.471,2.132-0.592c0.793-0.123,1.578-0.232,2.357-0.326c0.779-0.096,1.523-0.219,2.234-0.367
			c0.711-0.15,1.285-0.389,1.723-0.715V293.898z"/>
		<path fill="#FFFFFF" d="M196.668,290.861c-0.643-0.451-1.381-0.812-2.214-1.086c-0.834-0.273-1.688-0.506-2.562-0.697
			c-0.82-0.191-1.64-0.375-2.46-0.553s-1.558-0.396-2.214-0.656s-1.196-0.588-1.62-0.984s-0.635-0.895-0.635-1.496
			c0-0.547,0.136-0.99,0.409-1.332s0.629-0.615,1.066-0.82c0.437-0.205,0.923-0.35,1.455-0.432c0.533-0.082,1.06-0.123,1.579-0.123
			c0.574,0,1.141,0.062,1.701,0.186s1.072,0.322,1.538,0.594c0.464,0.273,0.847,0.637,1.147,1.088
			c0.301,0.449,0.479,1.018,0.533,1.701h3.485c-0.082-1.285-0.355-2.357-0.82-3.219s-1.087-1.545-1.865-2.051
			c-0.779-0.506-1.675-0.861-2.686-1.066c-1.012-0.205-2.119-0.307-3.321-0.307c-0.93,0-1.865,0.117-2.809,0.348
			c-0.943,0.232-1.79,0.59-2.542,1.066c-0.752,0.479-1.367,1.102-1.845,1.865c-0.479,0.766-0.718,1.682-0.718,2.748
			c0,1.367,0.342,2.434,1.025,3.197c0.683,0.766,1.537,1.361,2.562,1.783c1.024,0.424,2.138,0.752,3.341,0.984
			s2.316,0.492,3.342,0.779s1.879,0.662,2.562,1.127c0.683,0.465,1.025,1.148,1.025,2.051c0,0.656-0.164,1.195-0.492,1.619
			s-0.745,0.746-1.251,0.963c-0.506,0.221-1.06,0.369-1.66,0.451c-0.602,0.082-1.176,0.123-1.722,0.123
			c-0.711,0-1.401-0.068-2.071-0.205s-1.271-0.361-1.804-0.676s-0.963-0.738-1.291-1.271s-0.507-1.182-0.533-1.947h-3.485
			c0.055,1.312,0.328,2.426,0.82,3.342s1.147,1.654,1.968,2.213c0.82,0.561,1.763,0.965,2.829,1.211s2.187,0.369,3.362,0.369
			c1.065,0,2.138-0.104,3.218-0.309s2.051-0.566,2.911-1.086c0.861-0.52,1.559-1.203,2.092-2.051
			c0.532-0.846,0.799-1.912,0.799-3.197c0-1.012-0.198-1.859-0.595-2.543C197.83,291.88,197.31,291.312,196.668,290.861z"/>
		<path fill="#FFFFFF" d="M207.185,273.744h-3.484v6.355h-3.608v3.074h3.608v13.49c0,0.982,0.095,1.777,0.287,2.377
			c0.19,0.602,0.484,1.066,0.881,1.395s0.916,0.553,1.559,0.676c0.642,0.123,1.414,0.186,2.316,0.186h2.665v-3.076h-1.6
			c-0.547,0-0.991-0.02-1.332-0.061c-0.342-0.041-0.608-0.129-0.8-0.268c-0.191-0.135-0.321-0.328-0.39-0.572
			c-0.068-0.246-0.103-0.574-0.103-0.984v-13.162h4.224v-3.074h-4.224V273.744z"/>
	</g>
</g>
</svg>
