<?xml version="1.0" encoding="utf-8"?>
<!-- Generator: Adobe Illustrator 16.0.0, SVG Export Plug-In . SVG Version: 6.00 Build 0)  -->
<!DOCTYPE svg PUBLIC "-//W3C//DTD SVG 1.1//EN" "http://www.w3.org/Graphics/SVG/1.1/DTD/svg11.dtd">
<svg version="1.1" id="Layer_1" xmlns="http://www.w3.org/2000/svg" xmlns:xlink="http://www.w3.org/1999/xlink" x="0px" y="0px"
	 width="440px" height="440px" viewBox="0 0 440 440" enable-background="new 0 0 440 440" xml:space="preserve">
<g>
	<g>
		<path fill="#077377" d="M220.001,436.999c-58.231,0-112.977-22.676-154.151-63.85S2,277.231,2,219
			c0-58.231,22.676-112.976,63.85-154.15S161.77,1,220.001,1c58.23,0,112.976,22.676,154.149,63.85S438,160.77,438,219
			s-22.676,112.976-63.85,154.149S278.231,436.999,220.001,436.999z"/>
		<path fill="#FFFFFF" d="M220.001,3C339.296,3,436,99.705,436,219c0,119.296-96.704,215.999-215.999,215.999
			C100.704,434.999,4,338.296,4,219C4,99.705,100.704,3,220.001,3 M220.001-1c-29.699,0-58.511,5.817-85.637,17.29
			c-26.198,11.081-49.726,26.943-69.929,47.146c-20.203,20.203-36.065,43.73-47.146,69.928C5.817,160.489,0,189.302,0,219
			s5.817,58.511,17.29,85.636c11.081,26.198,26.943,49.726,47.146,69.928c20.203,20.203,43.73,36.065,69.929,47.146
			c27.125,11.473,55.938,17.29,85.637,17.29c29.698,0,58.511-5.817,85.636-17.29c26.197-11.08,49.725-26.942,69.928-47.146
			c20.203-20.202,36.065-43.729,47.146-69.928C434.183,277.511,440,248.698,440,219s-5.817-58.51-17.29-85.636
			c-11.08-26.198-26.942-49.725-47.146-69.928s-43.73-36.065-69.928-47.146C278.512,4.817,249.699-1,220.001-1L220.001-1z"/>
	</g>
	<path fill="#FFFFFF" d="M43.664,281.121h6.337v-19.748h6.659v-4.593h-6.659v-1.884c0-2.204,0.504-2.893,3.399-2.893
		c1.192,0,2.571,0.09,3.26,0.184v-4.593c-1.471-0.092-2.939-0.186-5.695-0.186c-6.613,0-7.301,3.539-7.301,6.247v3.124h-5.008v4.593
		h5.008V281.121L43.664,281.121z"/>
	<path fill-rule="evenodd" clip-rule="evenodd" fill="#FFFFFF" d="M59.957,266.516c1.057-4.96,5.19-6.337,8.131-6.337
		c3.123,0,7.438,1.47,8.221,6.337H59.957L59.957,266.516z M82.922,270.558v-0.919c0-7.12-4.134-13.778-14.927-13.778
		c-8.635,0-14.651,5.191-14.651,13.318c0,6.478,4.088,12.86,15.064,12.86c9.277,0,12.585-5.373,13.961-8.084H75.48
		c-1.24,2.021-3.076,3.49-7.256,3.49c-6.292,0-8.128-4.18-8.267-6.888H82.922L82.922,270.558z"/>
	<path fill="#FFFFFF" d="M101.609,281.121h6.337v-13.55c0-5.327,4.41-6.568,6.614-6.568c5.649,0,5.97,3.079,5.97,5.605v14.513h6.338
		v-16.166c0-7.442-5.786-8.818-9.69-8.818c-5.099,0-8.313,2.25-9.875,4.499c-1.698-3.993-5.74-4.499-8.588-4.499
		c-4.317,0-7.532,1.698-9.598,4.317h-0.093v-3.674h-6.338v24.341h6.338v-13.55c0-5.327,4.409-6.568,6.614-6.568
		c5.649,0,5.971,3.079,5.971,5.605V281.121L101.609,281.121z"/>
	<path fill-rule="evenodd" clip-rule="evenodd" fill="#FFFFFF" d="M147.214,271.338c0,5.374-5.741,6.659-9.139,6.659
		c-2.159,0-5.099-0.599-5.099-3.812c0-2.065,1.148-3.125,5.925-3.674c4.502-0.505,6.476-0.734,8.313-1.516V271.338L147.214,271.338z
		 M153.552,264.036c0-3.169-0.368-8.176-13.09-8.176c-7.21,0-11.939,1.975-12.858,8.359h6.199c0.23-2.71,2.48-4.041,6.659-4.041
		c3.675,0,6.889,0.688,6.889,3.49c0,1.883-0.964,2.204-10.058,3.077c-4.041,0.367-10.929,0.964-10.929,7.669
		c0,4.775,3.582,7.624,9.919,7.624c7.12,0,10.195-2.159,11.435-3.354c0.185,0.919,0.643,3.123,4.776,3.123
		c2.159,0,3.262-0.319,4.502-0.549v-4.457c-0.505,0.094-1.47,0.139-2.067,0.139c-0.413,0-1.377-0.045-1.377-1.377V264.036
		L153.552,264.036z"/>
	<polygon fill="#FFFFFF" points="155.335,281.121 161.673,281.121 161.673,247.779 155.335,247.779 155.335,281.121 	"/>
	<path fill-rule="evenodd" clip-rule="evenodd" fill="#FFFFFF" d="M168.232,266.516c1.059-4.96,5.191-6.337,8.13-6.337
		c3.124,0,7.441,1.47,8.22,6.337H168.232L168.232,266.516z M191.197,270.558v-0.919c0-7.12-4.134-13.778-14.926-13.778
		c-8.635,0-14.651,5.191-14.651,13.318c0,6.478,4.087,12.86,15.063,12.86c9.278,0,12.585-5.373,13.961-8.084h-6.888
		c-1.24,2.021-3.076,3.49-7.255,3.49c-6.292,0-8.129-4.18-8.269-6.888H191.197L191.197,270.558z"/>
	<path fill-rule="evenodd" clip-rule="evenodd" fill="#FFFFFF" d="M202.525,290.396h6.338v-12.628h0.091
		c0.46,1.47,4.272,4.271,9.323,4.271c9.277,0,13.318-6.751,13.318-12.997c0-6.155-4.041-12.905-13.318-12.905
		c-3.812,0-7.441,1.194-9.323,4.133h-0.091v-3.489h-6.338V290.396L202.525,290.396z M216.762,261.003
		c5.97,0,8.222,3.998,8.222,8.039c0,4.134-2.252,8.13-8.222,8.13c-5.926,0-8.175-3.996-8.175-8.13
		C208.587,265.001,210.836,261.003,216.762,261.003L216.762,261.003z"/>
	<path fill="#FFFFFF" d="M231.087,281.121h6.337v-11.757c0-5.649,4.547-7.349,7.761-7.349c1.104,0,2.3,0.045,4.042,0.598v-6.246
		c-0.827-0.141-1.561-0.23-2.525-0.23c-4.867,0-7.486,2.616-9.186,5.373h-0.092v-4.729h-6.337V281.121L231.087,281.121z"/>
	<path fill-rule="evenodd" clip-rule="evenodd" fill="#FFFFFF" d="M253.587,266.516c1.057-4.96,5.19-6.337,8.127-6.337
		c3.123,0,7.442,1.47,8.222,6.337H253.587L253.587,266.516z M276.549,270.558v-0.919c0-7.12-4.133-13.778-14.926-13.778
		c-8.633,0-14.649,5.191-14.649,13.318c0,6.478,4.085,12.86,15.062,12.86c9.279,0,12.585-5.373,13.962-8.084h-6.89
		c-1.238,2.021-3.075,3.49-7.255,3.49c-6.292,0-8.129-4.18-8.267-6.888H276.549L276.549,270.558z"/>
	<path fill="#FFFFFF" d="M275.076,273.497c0.23,7.439,8.452,8.542,13.639,8.542c7.533,0,13.459-2.114,13.459-8.312
		c0-5.648-5.238-6.432-13.228-7.578c-6.11-0.872-6.704-1.193-6.704-3.169c0-1.284,1.928-2.801,5.509-2.801
		c2.16,0,6.383,0.412,6.891,4.041h6.613c-0.37-7.808-9.415-8.359-13.183-8.359c-4.087,0-12.168,0.92-12.168,7.854
		c0,5.557,3.947,6.428,11.48,7.44c6.841,0.916,7.899,1.562,7.899,3.441c0,2.299-3.444,3.123-6.613,3.123
		c-2.296,0-6.523-0.548-6.705-4.223H275.076L275.076,273.497z"/>
	<path fill="#FFFFFF" d="M300.245,273.497c0.229,7.439,8.448,8.542,13.64,8.542c7.531,0,13.454-2.114,13.454-8.312
		c0-5.648-5.234-6.432-13.227-7.578c-6.108-0.872-6.705-1.193-6.705-3.169c0-1.284,1.929-2.801,5.513-2.801
		c2.159,0,6.383,0.412,6.889,4.041h6.611c-0.367-7.808-9.412-8.359-13.178-8.359c-4.088,0-12.173,0.92-12.173,7.854
		c0,5.557,3.951,6.428,11.483,7.44c6.841,0.916,7.899,1.562,7.899,3.441c0,2.299-3.444,3.123-6.614,3.123
		c-2.295,0-6.522-0.548-6.707-4.223H300.245L300.245,273.497z"/>
	<path fill="#FFFFFF" d="M326.654,273.038c0,7.118,5.097,9.001,10.331,9.001c4.316,0,7.531-1.699,9.6-4.319h0.091v3.401h6.337
		V256.78h-6.337v13.362c0,5.191-4.594,7.029-7.395,7.029c-5.419,0-6.292-2.802-6.292-6.523V256.78h-6.335V273.038L326.654,273.038z"
		/>
	<path fill="#FFFFFF" d="M353.556,281.121h6.337v-11.757c0-5.649,4.546-7.349,7.761-7.349c1.103,0,2.296,0.045,4.042,0.598v-6.246
		c-0.828-0.141-1.562-0.23-2.526-0.23c-4.867,0-7.486,2.616-9.186,5.373h-0.091v-4.729h-6.337V281.121L353.556,281.121z"/>
	<path fill-rule="evenodd" clip-rule="evenodd" fill="#FFFFFF" d="M376.053,266.516c1.06-4.96,5.192-6.337,8.13-6.337
		c3.124,0,7.441,1.47,8.222,6.337H376.053L376.053,266.516z M399.018,270.558v-0.919c0-7.12-4.134-13.778-14.926-13.778
		c-8.634,0-14.649,5.191-14.649,13.318c0,6.478,4.085,12.86,15.062,12.86c9.278,0,12.584-5.373,13.961-8.084h-6.888
		c-1.24,2.021-3.077,3.49-7.256,3.49c-6.292,0-8.129-4.18-8.27-6.888H399.018L399.018,270.558z"/>
	<polygon fill="#FFFFFF" points="315.304,246.516 310.126,242.752 304.945,246.516 306.924,240.426 301.745,236.665 
		308.146,236.665 310.126,230.575 312.104,236.665 318.506,236.665 313.328,240.429 315.304,246.516 	"/>
	<polygon fill="#FFFFFF" points="336.253,246.516 331.073,242.752 325.894,246.516 327.873,240.426 322.692,236.665 
		329.096,236.665 331.073,230.575 333.051,236.665 339.455,236.665 334.272,240.429 336.253,246.516 	"/>
	<polygon fill="#FFFFFF" points="357.2,246.516 352.021,242.752 346.843,246.516 348.819,240.426 343.641,236.665 350.043,236.665 
		352.021,230.575 354.001,236.665 360.402,236.665 355.223,240.429 357.2,246.516 	"/>
	<polygon fill="#FFFFFF" points="378.149,246.516 372.971,242.752 367.79,246.516 369.768,240.426 364.589,236.665 370.991,236.665 
		372.971,230.575 374.948,236.665 381.351,236.665 376.17,240.429 378.149,246.516 	"/>
	<polygon fill="#FFFFFF" points="399.099,246.516 393.917,242.752 388.739,246.516 390.716,240.426 385.537,236.665 
		391.938,236.665 393.917,230.575 395.897,236.665 402.3,236.665 397.119,240.429 399.099,246.516 	"/>
	<path fill-rule="evenodd" clip-rule="evenodd" fill="#FFFFFF" d="M192.967,264.322h6.835v-6.222h-6.835V264.322L192.967,264.322z
		 M192.967,281.015h6.835v-6.222h-6.835V281.015L192.967,281.015z"/>
</g>
</svg>
